<svg width="20" height="20" viewBox="0 0 20 20" fill="none" xmlns="http://www.w3.org/2000/svg">
	<path d="M9.2056 3.04458C5.71365 3.43902 3 6.40261 3 10C3 13.866 6.13401 17 10 17C13.6375 17 16.6271 14.2254 16.9677 10.6772C13.9868 11.4334 11.6267 10.4633 10.2369 8.7528C8.94769 7.16602 8.5168 4.95975 9.2056 3.04458ZM10.1547 3.36177L16.544 9.75109C14.0044 10.3364 12.1136 9.47671 11.0131 8.1222C9.92246 6.77993 9.58224 4.93121 10.1547 3.36177ZM2 10C2 5.58172 5.58172 2 10 2C10.1326 2 10.2598 2.05268 10.3536 2.14645L17.8536 9.64645C17.9473 9.74021 18 9.86739 18 10C18 14.4183 14.4183 18 10 18C5.58172 18 2 14.4183 2 10Z" />
</svg>
