<svg width="20" height="20" viewBox="0 0 20 20" fill="none" xmlns="http://www.w3.org/2000/svg">
<path d="M2.23586 4.43636L2.00668 4.18764C1.48803 3.62582 1.35644 2.84691 1.66347 2.15309C1.97817 1.44182 2.6657 1 3.45958 1H16.5412C17.3351 1 18.0226 1.44182 18.3373 2.15309C18.6432 2.84691 18.5116 3.62582 17.9941 4.18764L17.7649 4.43636H2.23586ZM16.2517 6.07273H3.74687L9.17688 11.9549V17.3636H7.25796C6.804 17.3636 6.43556 17.7302 6.43556 18.1818C6.43556 18.6335 6.804 19 7.25796 19H12.7406C13.1946 19 13.563 18.6335 13.563 18.1818C13.563 17.7302 13.1946 17.3636 12.7406 17.3636H10.8217V11.9549L16.2517 6.07273Z" fill="black"/>
</svg>
