<svg width="48" height="48" viewBox="0 0 48 48" fill="none" xmlns="http://www.w3.org/2000/svg">
	<g fill="#c4c4c4">
		<path fill-rule="evenodd" clip-rule="evenodd" d="M24 48C37.2548 48 48 37.2548 48 24C48 10.7452 37.2548 0 24 0C10.7452 0 0 10.7452 0 24C0 37.2548 10.7452 48 24 48ZM11.7749 15.9585L12.1254 16.3455H35.8757L36.2262 15.9585C37.0178 15.0846 37.219 13.873 36.7511 12.7937C36.2698 11.6873 35.2183 11 34.0041 11H13.997C12.7828 11 11.7313 11.6873 11.25 12.7937C10.7804 13.873 10.9817 15.0846 11.7749 15.9585ZM14.4364 18.8909H33.5614L25.2567 28.041V36.4545H28.1915C28.8858 36.4545 29.4493 37.0247 29.4493 37.7273C29.4493 38.4298 28.8858 39 28.1915 39H19.8063C19.112 39 18.5485 38.4298 18.5485 37.7273C18.5485 37.0247 19.112 36.4545 19.8063 36.4545H22.7411V28.041L14.4364 18.8909Z" />
	</g>
</svg>
