<svg xmlns="http://www.w3.org/2000/svg" version="1.1" viewBox="0 0 20.68179963299997 15.757561632999995">
	<g>
		<path d="M19.332952365,11.636466841L1.338432512,11.636466841L0.577396447,3.54397409C0.50050447,2.726550583,0.939204835,1.949998253,1.706199219,1.656513666C3.396985583,1.00996121,6.600645591,0,10.116059106,0C13.673821068,0,16.912295444,1.0345824,18.586339395,1.679657578C19.321626618,1.96329369,19.758258802,2.695035457,19.720834588,3.48242112L19.332952365,11.636466841Z" fill="#B3B3B3" />
		<path d="M20.681799633,12.514950902C20.681799633,13.409684949,20.040466884,14.174419111,19.163361607,14.350706836C15.826697926,15.021388051,13.086851901,15.757561633,10.340899816,15.757561633C7.594947734,15.757561633,4.855101705,15.021388051,1.518438024,14.350706836C0.641313055,14.174419111,0,13.409684949,0,12.514950902C0,11.494156362,0.826375768,10.666884377,1.847130912,10.666884377C4.021871388,10.666884377,7.674818876,10.666884377,10.340899816,10.666884377C13.006980758,10.666884377,16.659928246,10.666884377,18.834668725,10.666884377C19.855414017,10.666884377,20.681799633,11.494156362,20.681799633,12.514950902Z" fill="#CECECE" />
	</g>
</svg>
