<svg id="Coat check" width="64" height="64" viewBox="0 0 64 64" fill="none" xmlns="http://www.w3.org/2000/svg">
	<g fill="#c4c4c4">
		<path fill-rule="evenodd" clip-rule="evenodd" d="M32 64C49.6731 64 64 49.6731 64 32C64 14.3269 49.6731 0 32 0C14.3269 0 0 14.3269 0 32C0 49.6731 14.3269 64 32 64ZM33.3821 28.0617L50.2345 38.5039C52.1773 39.7598 52.1773 41.8421 51.8133 43.185C51.4605 44.4892 50.3153 46 47.8057 46H15.9832H15.9788C13.7368 46 12.4912 44.4459 12.1372 43.1426C11.7728 41.7989 12.076 39.5839 13.756 38.5429L30.7796 28.0621V26.9561C30.7796 26.3912 30.2928 26.0466 29.6925 25.6216C29.1184 25.2152 28.4405 24.7353 27.9852 23.919C27.4372 22.9368 27.2968 22.076 27.2968 21.1438C27.2968 19.908 28.39 16 32.1977 16C35.7197 16 37.2649 19.1182 37.2649 20.8948C37.2649 22.7756 34.7377 23.3714 34.5561 21.0288C34.4397 19.536 33.3401 18.8831 32.2185 18.8831C31.5509 18.8831 30.0528 19.4466 30.0528 21.2026C30.0528 21.2026 29.9312 22.6987 31.2873 23.392C31.2873 23.392 33.3821 24.2679 33.3821 26.2834V28.0617ZM16.0288 43.0682H47.8457C48.9545 43.0649 49.5101 41.633 48.4853 40.8717L31.9749 30.7424L15.3772 40.9158C14.3532 41.5877 14.9932 43.1106 16.0288 43.0682Z" />
	</g>
</svg>
