<svg width="48" height="48" viewBox="0 0 48 48" fill="none" xmlns="http://www.w3.org/2000/svg">
	<g fill="#c4c4c4">
		<path fill-rule="evenodd" clip-rule="evenodd" d="M24 48C37.2548 48 48 37.2548 48 24C48 10.7452 37.2548 0 24 0C10.7452 0 0 10.7452 0 24C0 37.2548 10.7452 48 24 48ZM25.0479 9.61622C25.4231 10.2272 25.2363 11.0292 24.6304 11.4076C24.5508 11.4572 24.2679 11.7185 23.998 12.2657C23.7448 12.7794 23.5537 13.448 23.5537 14.205C23.5537 14.9236 22.976 15.5062 22.2632 15.5062C21.5505 15.5062 20.9727 14.9236 20.9727 14.205C20.9727 13.0102 21.2727 11.9473 21.6868 11.1073C22.0844 10.3008 22.6453 9.58613 23.2712 9.19518C23.8772 8.81678 24.6726 9.00528 25.0479 9.61622ZM28.2899 13.2194C28.7452 12.8063 28.8563 12.1115 28.5223 11.568C28.147 10.9571 27.3515 10.7686 26.7456 11.147C26.3692 11.3822 26.1528 11.7328 26.0427 11.9359C25.913 12.1754 25.8133 12.4364 25.7379 12.6792C25.5905 13.1545 25.4879 13.7201 25.4879 14.205C25.4879 14.9236 26.0657 15.5062 26.7784 15.5062C27.4912 15.5062 28.0689 14.9236 28.0689 14.205C28.0689 14.0393 28.1135 13.7392 28.2012 13.4562C28.2342 13.3496 28.2659 13.2706 28.2899 13.2194ZM20.0333 11.3689C20.5088 11.8864 20.4875 12.6892 19.992 13.1805L19.9808 13.1939C19.9594 13.2207 19.9186 13.276 19.8741 13.3592C19.7875 13.5208 19.6807 13.7981 19.6807 14.205C19.6807 14.9236 19.1029 15.5062 18.3902 15.5062C17.6774 15.5062 17.0996 14.9236 17.0996 14.205C17.0996 13.3107 17.341 12.6121 17.6027 12.1231C17.7324 11.881 17.8657 11.6923 17.9748 11.5564C18.0295 11.4884 18.0785 11.433 18.1185 11.3902C18.1386 11.3688 18.1565 11.3505 18.1717 11.3353L18.1927 11.3147L18.2017 11.3061L18.2058 11.3022L18.2077 11.3004L18.2096 11.2987C18.7325 10.8103 19.549 10.8417 20.0333 11.3689ZM13.2491 17.1325C11.9932 17.1325 10.962 18.172 11.0011 19.4588C11.1713 25.0601 11.9702 30.6468 15.646 34.8877C16.301 35.6435 17.242 36 18.1613 36H26.3653C27.2846 36 28.2256 35.6435 28.8805 34.8877C29.9018 33.7095 30.701 32.4273 31.3264 31.0698C31.4642 31.0524 31.62 31.029 31.7908 30.9974C32.4345 30.8785 33.3084 30.6409 34.2312 30.1621C36.1248 29.1794 38.1187 27.2284 38.7978 23.5429L38.8121 23.4657C38.9014 22.9821 38.9965 22.467 38.9999 22.0146C39.004 21.4528 38.873 20.8743 38.4394 20.3485C37.9803 19.7914 37.3917 19.5738 36.8397 19.4847C36.3727 19.4094 35.8094 19.4095 35.2483 19.4097L33.5264 19.4097C33.5382 18.1457 32.5174 17.1325 31.2775 17.1325H13.2491ZM33.396 22.0121C33.2401 24.1093 32.9464 26.1757 32.3944 28.1399C32.6061 28.0603 32.8266 27.9641 33.0502 27.8481C34.2947 27.2022 35.7391 25.8962 36.2603 23.0675C36.3123 22.7853 36.3523 22.5673 36.3804 22.3793C36.4025 22.2321 36.4132 22.1279 36.4172 22.0522C36.1794 22.0159 35.8293 22.0121 35.1693 22.0121H33.396Z" />
	</g>
</svg>
