<svg width="20" height="20" viewBox="0 0 20 20" fill="none" xmlns="http://www.w3.org/2000/svg">
<path d="M10.2756 3.42672C10.6435 3.20248 10.7569 2.72722 10.5291 2.36517C10.3012 2.00313 9.81833 1.89142 9.45039 2.11566C9.07038 2.34733 8.72984 2.77085 8.48844 3.24875C8.23698 3.74657 8.05486 4.37641 8.05486 5.08445C8.05486 5.5103 8.40565 5.85553 8.83838 5.85553C9.27112 5.85553 9.6219 5.5103 9.6219 5.08445C9.6219 4.63585 9.73794 4.23962 9.89166 3.93524C10.0555 3.61094 10.2272 3.45615 10.2756 3.42672Z" fill="black"/>
<path d="M12.6385 3.52176C12.8413 3.84384 12.7738 4.25556 12.4974 4.50041C12.4828 4.53071 12.4636 4.57755 12.4436 4.64072C12.3903 4.8084 12.3633 4.98623 12.3633 5.08445C12.3633 5.5103 12.0125 5.85553 11.5798 5.85553C11.147 5.85553 10.7962 5.5103 10.7962 5.08445C10.7962 4.79713 10.8585 4.4619 10.948 4.1803C10.9938 4.03639 11.0543 3.88175 11.1331 3.73982C11.1999 3.61944 11.3313 3.41166 11.5599 3.27231C11.9277 3.04805 12.4107 3.15973 12.6385 3.52176Z" fill="black"/>
<path d="M7.48453 3.40378C7.77321 3.71045 7.76026 4.18619 7.45943 4.47732L7.45265 4.48529C7.43961 4.50114 7.41485 4.53392 7.38782 4.5832C7.3353 4.67898 7.2704 4.84331 7.2704 5.08445C7.2704 5.5103 6.9196 5.85553 6.48688 5.85553C6.05415 5.85553 5.70336 5.5103 5.70336 5.08445C5.70336 4.5545 5.8499 4.14051 6.0088 3.85075C6.0875 3.70726 6.16846 3.59545 6.2347 3.51493C6.26789 3.47458 6.29764 3.44177 6.32196 3.41643C6.33414 3.40375 6.34499 3.39289 6.35427 3.38387L6.36701 3.37167L6.37246 3.36659L6.37494 3.36429L6.37613 3.36321L6.37727 3.36217C6.69471 3.07275 7.19044 3.09139 7.48453 3.40378Z" fill="black"/>
<path fill-rule="evenodd" clip-rule="evenodd" d="M2.00065 8.19781C1.97692 7.43528 2.60298 6.81927 3.3655 6.81927H14.3113C15.0641 6.81927 15.6839 7.41967 15.6768 8.16871L16.7222 8.1687C17.0628 8.1686 17.4049 8.16851 17.6884 8.21318C18.0235 8.26596 18.3809 8.39493 18.6597 8.72503C18.9229 9.03663 19.0024 9.37945 18.9999 9.71233C18.9979 9.98043 18.9402 10.2857 18.8859 10.5722L18.8772 10.618C18.465 12.802 17.2543 13.9582 16.1047 14.5405C15.5444 14.8242 15.0138 14.965 14.623 15.0355C14.5193 15.0542 14.4247 15.0681 14.341 15.0784C13.9613 15.8829 13.4761 16.6426 12.856 17.3409C12.4584 17.7887 11.8871 18 11.329 18H6.34791C5.78977 18 5.21848 17.7887 4.8208 17.3409C2.58902 14.8278 2.10398 11.5171 2.00065 8.19781ZM14.9895 13.3422C15.3246 12.1782 15.5029 10.9537 15.5976 9.71086H16.6742C17.0749 9.71086 17.2875 9.7131 17.4319 9.73461C17.4295 9.77949 17.423 9.84125 17.4096 9.92846C17.3925 10.0399 17.3682 10.169 17.3366 10.3363C17.0201 12.0126 16.1432 12.7865 15.3876 13.1693C15.2519 13.238 15.118 13.295 14.9895 13.3422Z" fill="black"/>
</svg>
