<svg id="Compass" xmlns="http://www.w3.org/2000/svg" x="0" y="0" width="48" height="48" viewBox="0 0 283.465 283.465">
	<g fill="#CACACA">
		<path d="M185.884,97.953c-14.785,44.839-29.147,88.319-43.482,131.772
		c-13.151-28.211-22.354-48.164-24.383-53.607c-0.343-0.96-1.384-3.95-4.143-6.58c-2.429-2.37-5.004-3.324-5.871-3.609
		c-5.331-2.055-25.968-11.258-54.798-24.205C97.284,127.184,140.929,112.781,185.884,97.953z" />
		<path d="M231.796,33.319c-7.257,7.25-14.656,14.389-21.735,21.861
		c-3.471,3.668-5.696,5.057-10.077,0.434c-4.053-4.293-2.729-6.159,0.655-9.45c11.256-10.924,22.155-22.183,33.409-33.074
		c1.807-1.751,3.439-6.664,6.849-3.498c3.314,3.047,9.005,5.029,7.197,11.904c-3.164,11.968-5.719,24.045-8.411,36.141
		c-0.302,1.329-1.573,2.714,0.408,4.884c7.759-7.79,15.765-15.317,23.196-23.364c3.679-4.005,5.574-2.229,8.317,0.645
		c2.678,2.748,4.814,4.524,0.784,8.352c-11.731,11.146-22.902,22.863-34.506,34.121c-1.779,1.721-3.327,6.759-6.734,3.699
		c-3.342-2.964-8.889-5.028-7.084-11.881c3.469-13.116,6.255-26.385,9.307-39.621C232.834,34.055,232.33,33.692,231.796,33.319z" />
		<path d="M275.972,96.257c10.244,30.277,9.984,63.096-0.779,93.18
		c-10.749,30.104-31.363,55.662-58.466,72.569c-27.101,16.918-59.147,24.144-90.884,20.564
		c-31.751-3.59-61.378-17.803-84.005-40.316C19.18,219.737,4.783,190.218,1.011,158.482c-3.816-31.717,3.241-63.771,19.999-90.994
		C37.745,40.281,63.195,19.518,93.195,8.577c30.016-10.953,62.865-11.427,93.2-1.354L181,23.503
		c-26.661-8.853-55.505-8.436-81.909,1.185c-26.388,9.64-48.761,27.879-63.44,51.777c-14.756,23.945-20.957,52.106-17.633,80.015
		c3.33,27.866,15.97,53.808,35.871,73.633c19.909,19.781,45.954,32.282,73.86,35.415c27.891,3.154,56.041-3.22,79.886-18.058
		c23.815-14.867,41.937-37.325,51.389-63.766c9.451-26.463,9.694-55.302,0.68-81.907L275.972,96.257z" />
	</g>
</svg>
