<svg width="48" height="48" viewBox="0 0 48 48" fill="none" xmlns="http://www.w3.org/2000/svg">
	<g fill="#c4c4c4">
		<path fill-rule="evenodd" clip-rule="evenodd" d="M24 48C37.2548 48 48 37.2548 48 24C48 10.7452 37.2548 0 24 0C10.7452 0 0 10.7452 0 24C0 37.2548 10.7452 48 24 48ZM35.4208 13.2772C35.5527 13.3401 35.6697 13.432 35.7637 13.5463C35.8574 13.6606 35.9258 13.7946 35.9643 13.939C36.0027 14.0834 36.0102 14.2346 35.9863 14.3823L31.9863 39.1377C31.9475 39.3786 31.827 39.5974 31.6464 39.7553C31.4658 39.9132 31.2368 39.9999 31 40H17.0001C16.7633 39.9999 16.5343 39.9132 16.3537 39.7553C16.1731 39.5974 16.0526 39.3786 16.0138 39.1377L12.0138 14.3823C11.9897 14.2345 11.9972 14.0831 12.0358 13.9387C12.0743 13.7942 12.1429 13.6602 12.2368 13.5458C12.3307 13.4315 12.4476 13.3397 12.5795 13.2768C12.7113 13.2139 12.8548 13.1814 13.0001 13.1816H19.4001C20.4257 11.1749 21.5937 9.24902 22.8946 7.41988C22.9833 7.29533 23.0981 7.19299 23.2304 7.12045C23.3627 7.0479 23.5091 7.00702 23.6588 7.00083C23.8086 6.99463 23.9577 7.02329 24.0952 7.08468C24.2327 7.14606 24.3551 7.23859 24.4532 7.35541C25.986 9.17873 27.373 11.1272 28.6006 13.1816H35C35.1453 13.1816 35.2889 13.2142 35.4208 13.2772ZM16.1805 27.6223H31.8196L33.8203 15.2446H29.6059C29.8406 15.8012 29.9875 16.3928 30.0411 16.9973C30.0808 17.8087 29.9652 18.6203 29.7007 19.3857C29.4363 20.151 29.0282 20.8551 28.4999 21.4578C27.9715 22.0604 27.3332 22.5497 26.6214 22.8978C25.9096 23.2458 25.1383 23.4458 24.3516 23.4863C24.2481 23.4923 24.1446 23.4943 24.043 23.4943C22.5052 23.4932 21.0266 22.8827 19.9129 21.789C18.7991 20.6953 18.1353 19.202 18.0587 17.6178C18.0668 16.8036 18.2243 15.9983 18.5229 15.2446H14.1798L16.1805 27.6223Z" />
	</g>
</svg>
