<svg width="20" height="20" viewBox="0 0 20 20" fill="none" xmlns="http://www.w3.org/2000/svg">
<path d="M16.372 4.5707C16.3211 4.50834 16.2577 4.45825 16.1863 4.4239C16.1148 4.38955 16.0371 4.37177 15.9583 4.3718H12.492C11.827 3.25119 11.0757 2.1884 10.2455 1.19386C10.1923 1.13014 10.1261 1.07967 10.0516 1.04619C9.97709 1.01271 9.8963 0.997073 9.81521 1.00045C9.73411 1.00383 9.65479 1.02613 9.58312 1.0657C9.51146 1.10527 9.44929 1.16109 9.40124 1.22903C8.69659 2.22674 8.0639 3.27719 7.50837 4.3718H4.04171C3.96303 4.3717 3.88528 4.38942 3.81387 4.42373C3.74246 4.45804 3.67912 4.50811 3.62825 4.57046C3.57739 4.63281 3.54023 4.70593 3.51937 4.78473C3.4985 4.86352 3.49444 4.9461 3.50745 5.0267L5.67411 18.5296C5.69517 18.661 5.76041 18.7804 5.85824 18.8665C5.95606 18.9527 6.08013 19 6.20837 19H13.7917C13.9199 19 14.044 18.9527 14.1418 18.8665C14.2396 18.7804 14.3049 18.661 14.3259 18.5296L16.4926 5.0267C16.5055 4.94615 16.5015 4.86365 16.4806 4.78491C16.4598 4.70616 16.4227 4.63307 16.372 4.5707ZM14.2356 12.2485H5.76443L4.6807 5.49705H7.03323C6.87149 5.90818 6.78616 6.34741 6.78178 6.79152C6.82328 7.65564 7.18284 8.47017 7.78613 9.06673C8.38943 9.6633 9.19033 9.9963 10.0233 9.99691C10.0783 9.99691 10.1344 9.99578 10.1905 9.99252C10.6166 9.97045 11.0344 9.86137 11.4199 9.67151C11.8055 9.48166 12.1512 9.21476 12.4374 8.88606C12.7236 8.55735 12.9447 8.1733 13.0879 7.75583C13.2311 7.33836 13.2938 6.89567 13.2722 6.45305C13.2432 6.12337 13.1636 5.80063 13.0365 5.49705H15.3194L14.2356 12.2485Z" fill="black"/>
</svg>
