<svg id="Ducts" width="64" height="64" viewBox="0 0 64 64" fill="none" xmlns="http://www.w3.org/2000/svg">
	<g fill="#c4c4c4">
		<path fill-rule="evenodd" clip-rule="evenodd" d="M32 64C49.6731 64 64 49.6731 64 32C64 14.3269 49.6731 0 32 0C14.3269 0 0 14.3269 0 32C0 49.6731 14.3269 64 32 64ZM15.5111 14.48H48.9688C49.538 14.48 50 14.9419 50 15.5111V48.9688C50 49.538 49.538 50 48.9688 50H15.5111C14.9419 50 14.48 49.538 14.48 48.9688V15.5111C14.48 14.9419 14.9419 14.48 15.5111 14.48ZM20.2625 18.621C20.2625 17.7136 19.5283 16.9794 18.621 16.9794C17.7136 16.9794 16.9794 17.7136 16.9794 18.621C16.9794 19.5283 17.7156 20.2625 18.621 20.2625C19.5283 20.2625 20.2625 19.5263 20.2625 18.621ZM16.9794 45.859C16.9794 46.7664 17.7156 47.5005 18.621 47.5005C19.5263 47.5005 20.2625 46.7643 20.2625 45.859C20.2625 44.9516 19.5283 44.2175 18.621 44.2175C17.7136 44.2175 16.9794 44.9537 16.9794 45.859ZM17.6352 32.24C17.6352 40.3054 24.1746 46.8447 32.24 46.8447C40.3054 46.8447 46.8447 40.3054 46.8447 32.24C46.8447 24.1746 40.3074 17.6352 32.24 17.6352C24.1725 17.6352 17.6352 24.1746 17.6352 32.24ZM44.2175 45.859C44.2175 46.7664 44.9516 47.5005 45.859 47.5005C46.7643 47.5005 47.5005 46.7643 47.5005 45.859C47.5005 44.9516 46.7664 44.2175 45.859 44.2175C44.9516 44.2175 44.2175 44.9537 44.2175 45.859ZM44.2175 18.621C44.2175 19.5283 44.9516 20.2625 45.859 20.2625C46.7643 20.2625 47.5005 19.5263 47.5005 18.621C47.5005 17.7136 46.7664 16.9794 45.859 16.9794C44.9516 16.9794 44.2175 17.7136 44.2175 18.621ZM41.819 34.4199C41.3681 34.159 40.7828 33.8213 40.1373 33.4487C39.6346 33.1586 39.0954 32.8474 38.5545 32.535C38.5586 32.4381 38.5628 32.3391 38.5628 32.2401C38.5628 32.0442 38.5525 31.8503 38.536 31.6585L44.1659 28.4085C44.1659 28.4085 41.1158 23.7664 38.9175 25.0346C38.1153 25.4986 36.8862 26.208 35.6509 26.9195C35.4075 26.7628 35.1518 26.6226 34.8858 26.4988V19.9966C34.8858 19.9966 29.3404 20.3162 29.3404 22.8548V26.6267C29.0806 26.7607 28.8311 26.9133 28.5939 27.0824L22.9578 23.8282C22.9578 23.8282 20.4625 28.792 22.6609 30.0603C23.1116 30.321 23.6965 30.6586 24.3416 31.0309L24.342 31.0311C24.8449 31.3213 25.3843 31.6327 25.9254 31.9452C25.9213 32.0421 25.9171 32.1411 25.9171 32.2401C25.9171 32.436 25.9274 32.6299 25.9439 32.8216L20.314 36.0738C20.314 36.0738 23.3641 40.7159 25.5624 39.4476C26.0971 39.1384 26.8214 38.7201 27.6107 38.2643L27.6158 38.2613L28.829 37.5607C29.0744 37.7174 29.3281 37.8597 29.5941 37.9814V44.4836C29.5941 44.4836 35.1395 44.164 35.1395 41.6253V37.8535C35.3993 37.7195 35.6488 37.5668 35.886 37.3977L41.52 40.6499C41.52 40.652 44.0174 35.6882 41.819 34.4199ZM32.2399 36.5007C29.8911 36.5007 27.9794 34.589 27.9794 32.2401C27.9794 29.8912 29.8911 27.9795 32.2399 27.9795C34.5888 27.9795 36.5005 29.8912 36.5005 32.2401C36.4985 34.589 34.5888 36.5007 32.2399 36.5007ZM33.7942 30.6853C34.6527 31.5438 34.6527 32.9357 33.7942 33.7942C32.9357 34.6527 31.5438 34.6527 30.6853 33.7942C29.8268 32.9357 29.8268 31.5438 30.6853 30.6853C31.5438 29.8268 32.9357 29.8268 33.7942 30.6853Z" />
	</g>
</svg>
