<svg width="48" height="48" viewBox="0 0 48 48" fill="none" xmlns="http://www.w3.org/2000/svg">
	<g fill="#c4c4c4">
		<path fill-rule="evenodd" clip-rule="evenodd" d="M24 48C37.2548 48 48 37.2548 48 24C48 10.7452 37.2548 0 24 0C10.7452 0 0 10.7452 0 24C0 37.2548 10.7452 48 24 48ZM11 13.6875C11 11.0987 13.1256 9 15.7476 9H25.8759C28.4979 9 30.6235 11.0987 30.6235 13.6875V34.3125C30.6235 36.9013 28.4979 39 25.8759 39H15.7476C13.1256 39 11 36.9013 11 34.3125V13.6875ZM20.6815 17.539C22.0904 17.539 23.2326 16.397 23.2326 14.9883C23.2326 13.5795 22.0904 12.4375 20.6815 12.4375C19.2726 12.4375 18.1305 13.5795 18.1305 14.9883C18.1305 16.397 19.2726 17.539 20.6815 17.539ZM16.6167 26.3686C17.0932 26.3686 17.4857 25.9761 17.4857 25.4996V21.1269C17.4857 20.6504 17.766 20.258 18.1585 20.0617V34.4133C18.1585 35.0299 18.6631 35.5345 19.2798 35.5345C19.8966 35.5345 20.4012 35.0299 20.4012 34.4133V27.9102H20.9899V34.4413C20.9899 35.0579 21.4945 35.5625 22.1112 35.5625C22.728 35.5625 23.2326 35.0579 23.2326 34.4413V20.1459C23.597 20.342 23.8213 20.7345 23.8213 21.1549V25.5277C23.8213 26.0042 24.2138 26.3966 24.6903 26.3966C25.1669 26.3966 25.5594 26.0042 25.5594 25.5277V21.4352C25.5594 19.5011 23.9895 17.9315 22.0552 17.9315H19.2798C17.3175 17.9315 15.7476 19.5011 15.7476 21.4352V25.4996C15.7476 26.0042 16.1401 26.3686 16.6167 26.3686ZM32.9023 16.3125C33.1239 16.5312 33.5037 16.5312 33.7252 16.3125L34.8647 15.1875V21.7187C34.8647 22.0312 35.1179 22.2812 35.4344 22.2812H36.4472C36.7637 22.2812 37.0169 22.0312 37.0169 21.7187V15.1562L38.188 16.3125C38.4096 16.5312 38.7894 16.5312 39.0109 16.3125L39.7389 15.5937C39.9604 15.375 39.9604 15 39.7389 14.7812L36.3522 11.4375C36.1307 11.2187 35.7509 11.2187 35.5293 11.4375L32.1427 14.7812C31.9211 15 31.9211 15.375 32.1427 15.5937L32.9023 16.3125ZM38.2513 31.6875C38.4729 31.4687 38.8527 31.4687 39.0742 31.6875L39.8338 32.4063C40.0554 32.625 40.0554 33 39.8338 33.2188L36.4472 36.5625C36.2257 36.7812 35.8458 36.7812 35.6243 36.5625L32.2376 33.2188C32.0161 33 32.0161 32.625 32.2376 32.4063L32.9656 31.6875C33.1872 31.4687 33.567 31.4687 33.7885 31.6875L34.9596 32.8438V26.2812C34.9596 25.9687 35.2128 25.7188 35.5293 25.7188H36.5422C36.8587 25.7188 37.1119 25.9687 37.1119 26.2812V32.8125L38.2513 31.6875Z" />
	</g>
</svg>
