<svg width="20" height="20" viewBox="0 0 20 20" fill="none" xmlns="http://www.w3.org/2000/svg">
<path fill-rule="evenodd" clip-rule="evenodd" d="M3 4.5C3 3.11928 4.09944 2 5.45566 2H10.6944C12.0506 2 13.1501 3.11928 13.1501 4.5V15.5C13.1501 16.8807 12.0506 18 10.6944 18H5.45566C4.09944 18 3 16.8807 3 15.5V4.5ZM8.00768 6.55414C8.73643 6.55414 9.32719 5.94507 9.32719 5.19375C9.32719 4.4424 8.73643 3.83333 8.00768 3.83333C7.27893 3.83333 6.68817 4.4424 6.68817 5.19375C6.68817 5.94507 7.27893 6.55414 8.00768 6.55414ZM5.90517 11.2632C6.15166 11.2632 6.35467 11.0539 6.35467 10.7998V8.46769C6.35467 8.21354 6.49967 8.00425 6.70267 7.8996V15.5537C6.70267 15.8826 6.96367 16.1517 7.28267 16.1517C7.60168 16.1517 7.86268 15.8826 7.86268 15.5537V12.0855H8.16718V15.5687C8.16718 15.8976 8.42819 16.1667 8.74719 16.1667C9.06618 16.1667 9.32719 15.8976 9.32719 15.5687V7.94446C9.51569 8.04909 9.63169 8.25838 9.63169 8.48263V10.8147C9.63169 11.0689 9.8347 11.2782 10.0812 11.2782C10.3277 11.2782 10.5307 11.0689 10.5307 10.8147V8.63212C10.5307 7.60061 9.71869 6.76345 8.71819 6.76345H7.28267C6.26767 6.76345 5.45566 7.60061 5.45566 8.63212V10.7998C5.45566 11.0689 5.65866 11.2632 5.90517 11.2632Z" fill="black"/>
<path d="M14.3288 5.89998C14.4434 6.01666 14.6398 6.01666 14.7544 5.89998L15.3438 5.29999V8.78333C15.3438 8.94999 15.4748 9.08331 15.6385 9.08331H16.1624C16.3261 9.08331 16.457 8.94999 16.457 8.78333V5.28333L17.0628 5.89998C17.1774 6.01666 17.3738 6.01666 17.4884 5.89998L17.8649 5.51664C17.9795 5.39998 17.9795 5.19999 17.8649 5.08331L16.1132 3.29999C15.9986 3.18331 15.8022 3.18331 15.6876 3.29999L13.9359 5.08331C13.8213 5.19999 13.8213 5.39998 13.9359 5.51664L14.3288 5.89998Z" fill="black"/>
<path d="M17.5212 14.1C17.4066 13.9833 17.2101 13.9833 17.0955 14.1L16.5061 14.7V11.2167C16.5061 11.05 16.3752 10.9167 16.2115 10.9167H15.6876C15.5239 10.9167 15.3929 11.05 15.3929 11.2167V14.7167L14.7872 14.1C14.6726 13.9833 14.4761 13.9833 14.3615 14.1L13.985 14.4833C13.8704 14.6 13.8704 14.8 13.985 14.9167L15.7367 16.7C15.8513 16.8167 16.0478 16.8167 16.1624 16.7L17.9141 14.9167C18.0287 14.8 18.0287 14.6 17.9141 14.4833L17.5212 14.1Z" fill="black"/>
</svg>
