<svg id="Main entrance" xmlns="http://www.w3.org/2000/svg" version="1.1" viewBox="0 0 99.999 46.103">
	<g fill="#c4c4c4">
		<path d="M8.43,38.149L8.43,40.47L3.201,40.47L3.201,43.463L9.04,43.463L9.04,45.802L0,45.802L0,33.185L8.745,33.185L8.745,35.524L3.201,35.524L3.201,38.143L8.43,38.149Z" />
		<path d="M14.185,45.802L11.234,45.802L11.234,33.188L14.98,33.188L17.932,37.809C18.805,39.206,19.58,40.65,20.252,42.133L20.295,42.133C20.127,40.65,20.042,38.892,20.045,36.857L20.045,33.188L22.995,33.188L22.995,45.804L19.624,45.804L16.585,40.939C15.67,39.498,14.846,38.009,14.117,36.486L14.031,36.486C14.129,38.057,14.179,39.898,14.179,42.006L14.185,45.802Z" />
		<path d="M28.54,45.802L28.54,35.585L24.704,35.585L24.704,33.188L35.622,33.188L35.622,35.585L31.744,35.585L31.744,45.802L28.54,45.802Z" />
		<path d="M37.332,45.802L37.332,33.375C38.747,33.173,40.177,33.076,41.611,33.099C43.227,32.973,44.842,33.327,46.205,34.109C47.102,34.744,47.596,35.724,47.532,36.743C47.546,37.448,47.282,38.133,46.784,38.683C46.331,39.203,45.717,39.596,45.026,39.822L45.026,39.879C46.047,40.346,46.756,41.218,46.922,42.228C47.01,42.504,47.142,42.959,47.324,43.593C47.506,44.228,47.657,44.719,47.767,45.063C47.842,45.316,47.942,45.565,48.062,45.802L44.775,45.802C44.337,44.856,44.012,43.869,43.806,42.867C43.712,42.282,43.434,41.733,43.005,41.285C42.572,40.974,42.022,40.818,41.464,40.847L40.524,40.847L40.524,45.804L37.332,45.804ZM40.512,35.325L40.512,38.791L41.779,38.791C42.447,38.826,43.107,38.653,43.652,38.304C44.102,37.981,44.352,37.489,44.327,36.974C44.361,36.48,44.127,36,43.702,35.682C43.197,35.36,42.582,35.201,41.962,35.235C41.477,35.217,40.996,35.248,40.52,35.325L40.512,35.325Z" />
		<path d="M57.397,42.564L53.307,42.564L52.317,45.802L48.987,45.802L53.331,33.188L57.527,33.188L61.952,45.802L58.496,45.802L57.397,42.564ZM53.772,40.431L56.921,40.431L56.032,37.756C55.947,37.455,55.817,36.997,55.642,36.381C55.467,35.765,55.366,35.413,55.332,35.325L55.267,35.325C54.932,36.648,54.721,37.457,54.642,37.759L53.772,40.431Z" />
		<path d="M66.797,45.802L63.847,45.802L63.847,33.188L67.596,33.188L70.545,37.809C71.416,39.206,72.192,40.65,72.866,42.133L72.906,42.133C72.736,40.65,72.655,38.892,72.655,36.857L72.655,33.188L75.605,33.188L75.605,45.804L72.232,45.804L69.196,40.939C68.281,39.498,67.456,38.009,66.731,36.486L66.645,36.486C66.746,38.057,66.791,39.898,66.791,42.006L66.797,45.802Z" />
		<path d="M88.345,43.198L88.815,45.447C87.664,45.859,86.426,46.043,85.186,45.988C83.16,46.103,81.165,45.468,79.685,44.231C77,41.494,77.112,37.393,79.947,34.782C81.471,33.575,83.461,32.938,85.505,33C86.701,32.954,87.896,33.138,89.005,33.543L88.329,35.81C87.475,35.489,86.555,35.33,85.63,35.34C84.425,35.296,83.251,35.682,82.371,36.416C80.716,38.177,80.695,40.733,82.32,42.517C83.205,43.285,84.415,43.688,85.651,43.624C86.572,43.644,87.489,43.497,88.345,43.198Z" />
		<path d="M99.39,38.149L99.39,40.47L94.16,40.47L94.16,43.463L99.999,43.463L99.999,45.802L90.955,45.802L90.955,33.185L99.7,33.185L99.7,35.524L94.155,35.524L94.155,38.143L99.39,38.149Z" />
		<path d="M30.46,27.269C29.597,27.269,28.897,26.65,28.897,25.882L28.897,21.625L20.192,21.625L48.922,0L77.652,21.625L68.936,21.625L68.936,25.882C68.936,26.646,68.236,27.269,67.375,27.269L30.46,27.269Z" />
	</g>
</svg>
