<svg width="48" height="48" viewBox="0 0 48 48" fill="none" xmlns="http://www.w3.org/2000/svg">
<g clip-path="url(#clip0_5884_3373)">
<path fill-rule="evenodd" clip-rule="evenodd" d="M24 48C37.2548 48 48 37.2548 48 24C48 10.7452 37.2548 0 24 0C10.7452 0 0 10.7452 0 24C0 37.2548 10.7452 48 24 48ZM26.6834 9.02125L36.2566 11.4878C36.6702 11.5949 36.9997 12.329 37 13.1363V34.8601C37 35.6632 36.6705 36.4051 36.2569 36.5107L26.6834 38.9767C26.0789 39.1372 25.5764 38.4508 25.5764 37.453V10.5494C25.5764 9.54655 26.0789 8.86945 26.6834 9.02125ZM27.8629 23.9999C27.8629 24.8153 28.5159 25.4765 29.3218 25.4765C30.1272 25.4765 30.7808 24.8153 30.7808 23.9999C30.7808 23.1839 30.1272 22.5224 29.3218 22.5224C28.5159 22.5224 27.8629 23.1839 27.8629 23.9999ZM20.255 13.3217C20.255 13.156 20.3876 13.0217 20.5513 13.0217H23.9237C24.0873 13.0217 24.22 12.8874 24.22 12.7217V10.9628C24.22 10.7972 24.0873 10.6628 23.9237 10.6628H19.8573C18.7904 10.6628 17.9258 11.4971 17.9258 12.5264V17.7212C17.9258 17.8009 17.9571 17.8773 18.0128 17.9336L19.7494 19.6877C19.9362 19.8763 20.255 19.7424 20.255 19.4753V13.3217ZM21.7199 23.1059C21.7258 23.1122 21.7311 23.1188 21.7376 23.1257C22.0099 23.3429 22.1868 23.6792 22.1874 24.0569C22.1892 24.4469 22.0034 24.7919 21.7178 25.0085C21.6887 25.0469 21.6573 25.0835 21.623 25.1192L14.9365 31.925C14.4811 32.3888 13.7398 32.3888 13.2811 31.925C12.8222 31.4618 12.8189 30.7097 13.2746 30.2465L18.1895 25.2434L6.1754 25.2431C5.52889 25.2434 5.00267 24.7118 5.00001 24.0563C4.99764 23.4008 5.51971 22.8692 6.16622 22.8698H18.1747L13.3321 17.9786C12.8734 17.5154 12.8705 16.763 13.3259 16.2998C13.781 15.8366 14.5226 15.8363 14.9815 16.3001L21.7199 23.1059ZM19.7486 28.4606C19.935 28.2708 20.255 28.4045 20.255 28.6722V34.9036C20.255 35.0693 20.3877 35.2036 20.5513 35.2036L23.9236 35.2031C24.0873 35.2031 24.22 35.3374 24.22 35.5031V37.2614C24.22 37.427 24.0873 37.5613 23.9237 37.5614L19.8573 37.5619C18.7904 37.5619 17.9258 36.7276 17.9258 35.6977V30.4399C17.9258 30.3606 17.9568 30.2845 18.012 30.2283L19.7486 28.4606Z" fill="black"/>
</g>
<defs>
<clipPath id="clip0_5884_3373">
<rect width="48" height="48" fill="white"/>
</clipPath>
</defs>
</svg>
