<svg width="20" height="20" viewBox="0 0 20 20" fill="none" xmlns="http://www.w3.org/2000/svg">
<path d="M9.89187 9.53371C9.8884 9.53003 9.88557 9.52651 9.88242 9.52315L6.3027 5.89341C6.05887 5.64605 5.66489 5.64621 5.42311 5.89325C5.18118 6.14029 5.18275 6.54157 5.42642 6.78861L7.99906 9.39723H1.61955C1.27609 9.39691 0.998745 9.68043 1 10.03C1.00142 10.3796 1.28097 10.6631 1.62443 10.663L8.00693 10.6631L5.39588 13.3315C5.15379 13.5785 5.15552 13.9796 5.39934 14.2267C5.64301 14.474 6.03684 14.474 6.27877 14.2267L9.83095 10.5969C9.84921 10.5779 9.8659 10.5583 9.88132 10.5379C10.0331 10.4223 10.1318 10.2384 10.1308 10.0304C10.1305 9.82891 10.0365 9.64955 9.89187 9.53371Z" fill="black"/>
<path d="M9.1042 12.4918C9.1042 12.3491 8.93424 12.2778 8.8352 12.379L7.91264 13.3218C7.8833 13.3517 7.86684 13.3923 7.86684 13.4346V16.2388C7.86684 16.7881 8.32615 17.233 8.89297 17.233L11.0532 17.2327C11.1402 17.2327 11.2106 17.1611 11.2106 17.0727V16.135C11.2106 16.0466 11.1401 15.975 11.0532 15.975L9.26163 15.9752C9.17469 15.9753 9.1042 15.9036 9.1042 15.8153V12.4918Z" fill="black"/>
<path d="M9.1042 4.30492C9.1042 4.21656 9.17468 4.14493 9.26161 4.14493H11.0532C11.1401 4.14493 11.2106 4.07329 11.2106 3.98493V3.04685C11.2106 2.95849 11.1401 2.88685 11.0532 2.88685H8.89297C8.32615 2.88685 7.86684 3.33181 7.86684 3.88077V6.65133C7.86684 6.69383 7.88347 6.73458 7.91307 6.7646L8.83563 7.70009C8.93484 7.80069 9.1042 7.72927 9.1042 7.58681V4.30492Z" fill="black"/>
<path d="M17.6051 3.32685L12.5193 2.01133C12.1982 1.93038 11.9312 2.29149 11.9312 2.82637V17.1749C11.9312 17.7071 12.1982 18.0732 12.5193 17.9876L17.6052 16.6724C17.825 16.6161 18 16.2204 18 15.7921V4.20604C17.9998 3.77549 17.8248 3.38397 17.6051 3.32685ZM13.921 10.7875C13.4928 10.7875 13.1459 10.4348 13.1459 9.99994C13.1459 9.56474 13.4928 9.21194 13.921 9.21194C14.3488 9.21194 14.696 9.56474 14.696 9.99994C14.696 10.4348 14.3488 10.7875 13.921 10.7875Z" fill="black"/>
</svg>
