<svg width="48" height="48" viewBox="0 0 48 48" fill="none" xmlns="http://www.w3.org/2000/svg">
	<g fill="#c4c4c4">
		<path fill-rule="evenodd" clip-rule="evenodd" d="M24 48C37.2548 48 48 37.2548 48 24C48 10.7452 37.2548 0 24 0C10.7452 0 0 10.7452 0 24C0 37.2548 10.7452 48 24 48ZM20.1247 15.4229C21.937 15.4229 23.4062 13.9851 23.4062 12.2115C23.4062 10.4378 21.937 9 20.1247 9C18.3125 9 16.8433 10.4378 16.8433 12.2115C16.8433 13.9851 18.3125 15.4229 20.1247 15.4229ZM41.0439 16.6967C40.3165 15.8887 39.2718 15.4229 38.1726 15.4229H31.1942C30.6089 15.4229 30.062 15.6477 29.6464 16.0491L23.9531 21.6211V21.6264L19.5778 25.9031V25.9083L18.484 26.9735L16.3893 29.0234C16.1816 29.2269 15.9081 29.3393 15.6181 29.3393H10.8273C9.72817 29.3393 8.68353 29.805 7.95608 30.6131C7.22866 31.4215 6.88951 32.4972 7.03188 33.573C7.27245 35.4303 8.95162 36.8327 10.9422 36.8327H17.8058C18.3911 36.8327 18.938 36.6079 19.3536 36.2065L32.6107 23.2321C32.8184 23.0288 33.0919 22.9163 33.3819 22.9163H38.0578C40.0483 22.9163 41.7276 21.5139 41.9681 19.6567C42.1105 18.5808 41.7713 17.5051 41.0439 16.6967ZM28.2112 31.5595C27.9371 31.5578 27.7007 31.3265 27.699 31.0582L27.6735 30.1575C27.6718 29.8893 27.9052 29.6609 28.1793 29.6626L32.3689 29.6887C32.643 29.6904 32.8794 29.9218 32.8812 30.19L32.9079 34.2903C32.9096 34.5586 32.6762 34.787 32.4021 34.7853L31.5015 34.7797C31.2274 34.778 30.991 34.5466 30.9893 34.2783L30.98 32.8605L26.8949 36.8585C26.7004 37.0489 26.3872 37.0469 26.1901 36.8541L25.5597 36.237C25.3626 36.0442 25.3606 35.7377 25.5552 35.5473L29.6208 31.5683L28.2112 31.5595ZM23.4062 19.7049V20.1117L16.8433 26.5346V19.7049C16.8433 17.9332 18.3144 16.4934 20.1247 16.4934C20.9998 16.4934 21.8202 16.8253 22.4437 17.4301C23.0671 18.0456 23.4062 18.8484 23.4062 19.7049Z" />
	</g>
</svg>
