<svg width="48" height="48" viewBox="0 0 48 48" fill="none" xmlns="http://www.w3.org/2000/svg">
	<g fill="#c4c4c4">
		<path fill-rule="evenodd" clip-rule="evenodd" d="M24 48C37.2548 48 48 37.2548 48 24C48 10.7452 37.2548 0 24 0C10.7452 0 0 10.7452 0 24C0 37.2548 10.7452 48 24 48ZM24.4062 11.2115C24.4062 12.9851 22.937 14.4229 21.1247 14.4229C19.3125 14.4229 17.8433 12.9851 17.8433 11.2115C17.8433 9.43782 19.3125 8 21.1247 8C22.937 8 24.4062 9.43782 24.4062 11.2115ZM38.1726 15.4229C39.2718 15.4229 40.3165 15.8887 41.0439 16.6967C41.7713 17.5051 42.1105 18.5808 41.9681 19.6567C41.7276 21.5139 40.0483 22.9164 38.0578 22.9164H33.3819C33.0919 22.9164 32.8184 23.0288 32.6107 23.2321L19.3536 36.2065C18.938 36.6079 18.3911 36.8327 17.8058 36.8327H10.9422C8.95162 36.8327 7.27245 35.4303 7.03188 33.573C6.88951 32.4972 7.22866 31.4215 7.95608 30.6131C8.68353 29.805 9.72817 29.3393 10.8273 29.3393H15.6181C15.9081 29.3393 16.1816 29.2269 16.3893 29.0234L18.484 26.9735L19.5778 25.9083V25.9031L23.9531 21.6264V21.6211L29.6464 16.0491C30.062 15.6477 30.6089 15.4229 31.1942 15.4229H38.1726ZM24.4062 18.7049V19.1117L17.8433 25.5346V18.7049C17.8433 16.9332 19.3144 15.4934 21.1247 15.4934C21.9998 15.4934 22.8202 15.8253 23.4437 16.4301C24.0671 17.0456 24.4062 17.8484 24.4062 18.7049Z" />
	</g>
</svg>
