<svg width="20" height="20" viewBox="0 0 20 20" fill="none" xmlns="http://www.w3.org/2000/svg">
<path d="M9.43746 4.60573C9.43746 5.49256 8.68191 6.21147 7.74987 6.21147C6.81783 6.21147 6.06227 5.49256 6.06227 4.60573C6.06227 3.71891 6.81783 3 7.74987 3C8.68191 3 9.43746 3.71891 9.43746 4.60573Z" fill="black"/>
<path d="M17.0316 6.21147C17.5969 6.21147 18.1342 6.44433 18.5083 6.84837C18.8824 7.25254 19.0568 7.79041 18.9836 8.32833C18.8599 9.25697 17.9963 9.95817 16.9726 9.95817H14.5678C14.4187 9.95817 14.2781 10.0144 14.1712 10.116L7.35326 16.6033C7.13955 16.804 6.85829 16.9163 6.55725 16.9163H3.02742C2.00369 16.9163 1.14012 16.2151 1.01639 15.2865C0.943177 14.7486 1.11759 14.2107 1.4917 13.8065C1.86581 13.4025 2.40306 13.1696 2.96835 13.1696H5.43219C5.58131 13.1696 5.72194 13.1134 5.8288 13.0117L6.90607 11.9868L7.4686 11.4542V11.4515L9.71873 9.31318V9.31055L12.6467 6.52456C12.8604 6.32385 13.1417 6.21147 13.4427 6.21147H17.0316Z" fill="black"/>
<path d="M11.9086 14.2798C11.7677 14.2789 11.6461 14.1632 11.6452 14.0291L11.6321 13.5788C11.6312 13.4447 11.7513 13.3304 11.8922 13.3313L14.0469 13.3444C14.1878 13.3452 14.3094 13.4609 14.3103 13.595L14.324 15.6451C14.3249 15.7793 14.2049 15.8935 14.0639 15.8926L13.6008 15.8898C13.4598 15.889 13.3382 15.7733 13.3373 15.6392L13.3326 14.9303L11.2317 16.9293C11.1316 17.0244 10.9705 17.0235 10.8692 16.927L10.545 16.6185C10.4436 16.5221 10.4426 16.3688 10.5427 16.2737L12.6336 14.2842L11.9086 14.2798Z" fill="black"/>
<path d="M9.43746 8.55584V8.35244C9.43746 7.92422 9.26305 7.52279 8.94249 7.21505C8.62182 6.91267 8.19992 6.74671 7.74987 6.74671C6.81885 6.74671 6.06227 7.46658 6.06227 8.35244V11.7673L9.43746 8.55584Z" fill="black"/>
</svg>
