<svg width="20" height="20" viewBox="0 0 20 20" fill="none" xmlns="http://www.w3.org/2000/svg">
<path d="M1.49171 7.5954C1.86582 7.15949 2.40306 6.90827 2.96835 6.90827H6.55725C6.85829 6.90827 7.13955 7.02951 7.35326 7.24605L10.2813 10.2517V10.2545L12.5314 12.5615V12.5643L13.0939 13.1389L14.1712 14.2447C14.2781 14.3544 14.4187 14.415 14.5678 14.415H17.0317C17.5969 14.415 18.1342 14.6663 18.5083 15.1022C18.8824 15.5382 19.0568 16.1185 18.9836 16.6988C18.8599 17.7007 17.9963 18.4571 16.9726 18.4571H13.4428C13.1417 18.4571 12.8604 18.3359 12.6467 18.1194L5.8288 11.1207C5.72195 11.011 5.58131 10.9504 5.43219 10.9504H3.02742C2.00372 10.9504 1.14012 10.1939 1.01639 9.19203C0.943179 8.6117 1.11759 8.03143 1.49171 7.5954Z" fill="black"/>
<path d="M4.61354 15.2763C4.61443 15.1316 4.73602 15.0068 4.87698 15.0059L5.60192 15.0011L3.51101 12.8548C3.41096 12.7521 3.412 12.5867 3.51332 12.4827L3.83757 12.1499C3.9389 12.0459 4.09998 12.0448 4.20003 12.1475L6.30094 14.3041L6.30569 13.5393C6.30658 13.3946 6.42817 13.2698 6.56914 13.2688L7.03229 13.2658C7.17325 13.2649 7.29329 13.3881 7.2924 13.5328L7.27867 15.7446C7.27778 15.8893 7.15619 16.0141 7.01522 16.015L4.86057 16.0291C4.7196 16.03 4.59956 15.9068 4.60046 15.7621L4.61354 15.2763Z" fill="black"/>
<path d="M9.15621 7.99386V7.77444C9.15621 7.31245 9.33062 6.87937 9.65118 6.54737C9.97185 6.22114 10.3937 6.04211 10.8438 6.04211C11.7748 6.04211 12.5314 6.81874 12.5314 7.77444V11.4585L9.15621 7.99386Z" fill="black"/>
<path d="M10.8438 5.46466C9.91177 5.46466 9.15621 4.68907 9.15621 3.73233C9.15621 2.77559 9.91177 2 10.8438 2C11.7758 2 12.5314 2.77559 12.5314 3.73233C12.5314 4.68907 11.7758 5.46466 10.8438 5.46466Z" fill="black"/>
</svg>
