<svg width="20" height="20" viewBox="0 0 20 20" fill="none" xmlns="http://www.w3.org/2000/svg">
<path d="M9.93746 4.10573C9.93746 4.99256 9.18191 5.71147 8.24987 5.71147C7.31783 5.71147 6.56227 4.99256 6.56227 4.10573C6.56227 3.21891 7.31783 2.5 8.24987 2.5C9.18191 2.5 9.93746 3.21891 9.93746 4.10573Z" fill="black"/>
<path d="M17.0316 6.21145C17.5969 6.21145 18.1342 6.44432 18.5083 6.84836C18.8824 7.25252 19.0568 7.7904 18.9836 8.32832C18.8599 9.25696 17.9963 9.95816 16.9726 9.95816H14.5678C14.4187 9.95816 14.2781 10.0144 14.1712 10.116L7.35326 16.6032C7.13955 16.804 6.85829 16.9163 6.55725 16.9163H3.02742C2.00369 16.9163 1.14012 16.2151 1.01639 15.2865C0.943177 14.7486 1.11759 14.2107 1.4917 13.8065C1.86581 13.4025 2.40306 13.1696 2.96835 13.1696H5.43219C5.58131 13.1696 5.72194 13.1134 5.8288 13.0117L6.90607 11.9868L7.4686 11.4541V11.4515L9.71873 9.31317V9.31054L12.6467 6.52455C12.8604 6.32383 13.1417 6.21145 13.4427 6.21145H17.0316Z" fill="black"/>
<path d="M9.93746 8.05584V7.85244C9.93746 7.42422 9.76305 7.02279 9.44249 6.71505C9.12182 6.41267 8.69992 6.24671 8.24987 6.24671C7.31885 6.24671 6.56227 6.96658 6.56227 7.85244V11.2673L9.93746 8.05584Z" fill="black"/>
</svg>
