<svg width="48" height="48" viewBox="0 0 48 48" fill="none" xmlns="http://www.w3.org/2000/svg">
	<g fill="#c4c4c4">
		<path fill-rule="evenodd" clip-rule="evenodd" d="M24 48C37.2548 48 48 37.2548 48 24C48 10.7452 37.2548 0 24 0C10.7452 0 0 10.7452 0 24C0 37.2548 10.7452 48 24 48ZM20.8593 10.3684C20.8593 12.2287 22.3284 13.7368 24.1407 13.7368C25.953 13.7368 27.4222 12.2287 27.4222 10.3684C27.4222 8.50809 25.953 7 24.1407 7C22.3284 7 20.8593 8.50809 20.8593 10.3684ZM20.8593 18.6547V18.2281C20.8593 17.3298 21.1984 16.4877 21.8217 15.8421C22.4453 15.2078 23.2656 14.8596 24.1407 14.8596C25.951 14.8596 27.4222 16.3698 27.4222 18.2281V25.3916L20.8593 18.6547ZM8.82735 16.5439C7.72818 16.5439 6.68353 17.0323 5.95609 17.8799C5.22865 18.7278 4.88952 19.8561 5.03188 20.9845C5.27246 22.9326 6.95168 24.4035 8.9422 24.4035H13.6181C13.9081 24.4035 14.1816 24.5214 14.3893 24.7347L27.6464 38.3432C28.062 38.7643 28.6089 39 29.1942 39H36.0578C38.0484 39 39.7275 37.5291 39.9681 35.581C40.1105 34.4526 39.7713 33.3243 39.0439 32.4764C38.3165 31.6288 37.2718 31.1404 36.1727 31.1404H31.3819C31.0919 31.1404 30.8184 31.0225 30.6107 30.8091L28.516 28.659L27.4222 27.5417V27.5362L23.0469 23.0505V23.045L17.3536 17.2006C16.938 16.7796 16.3911 16.5439 15.8058 16.5439H8.82735ZM12.5386 32.2892C12.2645 32.2909 12.0281 32.5336 12.0263 32.815L12.0009 33.7597C11.9991 34.041 12.2326 34.2806 12.5067 34.2789L16.6963 34.2514C16.9704 34.2497 17.2068 34.007 17.2085 33.7256L17.2352 29.4249C17.237 29.1436 17.0035 28.904 16.7295 28.9058L15.8289 28.9116C15.5548 28.9134 15.3184 29.1561 15.3166 29.4375L15.3074 30.9246L11.2223 26.7312C11.0277 26.5315 10.7145 26.5336 10.5175 26.7359L9.88702 27.383C9.68999 27.5853 9.68799 27.9068 9.88251 28.1065L13.9482 32.2799L12.5386 32.2892Z" />
	</g>
</svg>
