<svg id="Fire hose" xmlns="http://www.w3.org/2000/svg" width="48" height="48" viewBox="0 0 64 64">
	<g fill="#c4c4c4">
		<path d="M62.99932,31.99999C62.99932,49.67309,48.672419999999995,63.99999,30.999319999999997,63.99999C13.326219999999996,63.99999,-1.0006800000000027,49.673089999999995,-1.0006800000000027,31.999989999999997C-1.0006800000000027,14.326889999999995,13.326219999999998,-0.000010000000003174137,30.999319999999997,-0.000010000000003174137C48.67242,-0.000010000000003174137,62.99932,14.326889999999997,62.99932,31.999989999999997ZM20.87598,37.99966L11.071349999999999,37.99966L11.000379999999998,41.11423C11.000379999999998,41.15301,11.032209999999997,41.18471,11.071349999999999,41.18471L20.87598,41.18471C20.915119999999998,41.18471,20.946949999999998,41.15301,20.946949999999998,41.11423L20.946949999999998,38.07027C20.946949999999998,38.03149,20.915119999999998,37.99967,20.87598,37.99967ZM45.54277,38.09365L45.54277,26.758079999999996L45.53631,26.772349999999996C45.484,26.888189999999994,45.43095,27.003059999999994,45.37657,27.117559999999997L45.34913,27.175849999999997C45.29511,27.288639999999997,45.24073,27.400579999999998,45.185,27.511909999999997L45.1839,27.514229999999998L45.183530000000005,27.51484C45.174510000000005,27.53301,45.16536000000001,27.55118,45.156220000000005,27.56898C45.099270000000004,27.68263,45.040870000000005,27.7953,44.98209000000001,27.90724C44.97514,27.92029,44.96819000000001,27.93333,44.961240000000004,27.945890000000002C44.89905,28.063070000000003,44.835890000000006,28.179650000000002,44.7715,28.295L44.771010000000004,28.29634L44.769670000000005,28.29853C44.705290000000005,28.414369999999998,44.63956,28.52875,44.57249,28.64325L44.56054,28.664219999999997L44.548590000000004,28.685069999999996C44.484570000000005,28.793839999999996,44.41933,28.902239999999995,44.353120000000004,29.009789999999995L44.320930000000004,29.062959999999997C44.2552,29.169529999999998,44.188140000000004,29.27538,44.12022,29.380729999999996L44.10437,29.405239999999996L44.08852,29.429869999999994C44.01877,29.537419999999994,43.94829,29.643989999999995,43.876470000000005,29.750199999999992L43.86647000000001,29.765079999999994L43.85647000000001,29.779829999999993C43.78245000000001,29.888599999999993,43.70758000000001,29.996999999999993,43.63100000000001,30.105039999999992L43.62442000000001,30.11454999999999C43.54833000000001,30.22160999999999,43.470780000000005,30.327819999999992,43.392860000000006,30.43365999999999L43.38396000000001,30.44572999999999C43.37689000000001,30.45535999999999,43.36982000000001,30.46499999999999,43.36238000000001,30.47450999999999C43.28714000000001,30.57595999999999,43.21093000000001,30.67655999999999,43.13338000000001,30.776189999999993L43.13314000000001,30.776679999999992C43.12058000000001,30.79301999999999,43.10814000000001,30.809479999999994,43.09510000000001,30.825819999999993C43.01803000000001,30.924709999999994,42.93975000000001,31.023479999999992,42.86098000000001,31.121029999999994L42.82440000000001,31.165419999999994C42.74294000000001,31.265529999999995,42.66027000000001,31.365159999999992,42.57674000000001,31.464049999999993L42.55711000000001,31.487099999999995C42.472240000000006,31.586719999999996,42.38652000000001,31.685619999999993,42.29982000000001,31.783899999999996L42.28421000000001,31.801829999999995C42.19751000000001,31.899259999999995,42.10959000000001,31.995959999999997,42.02131000000001,32.092169999999996C42.008630000000004,32.106069999999995,41.99607000000001,32.119609999999994,41.98339000000001,32.133019999999995C41.897670000000005,32.22617999999999,41.81060000000001,32.318,41.722680000000004,32.409459999999996L41.70049,32.43299L41.70049,38.09363999999999ZM40.50857,10.41828C37.65932,7.569469999999999,33.87147,6.00041,29.842309999999998,6.00041C25.81317,6.00041,22.02545,7.569469999999999,19.17664,10.41828C16.32724,13.26709,14.75818,17.05538,14.75818,21.08395C14.75818,25.11309,16.32724,28.901400000000002,19.17664,31.750210000000003C22.02545,34.59902,25.81316,36.16808,29.842309999999998,36.16808C33.871449999999996,36.16808,37.659319999999994,34.59902,40.50857,31.750210000000003C43.35738,28.901400000000002,44.92644,25.113110000000002,44.92644,21.08395C44.92644,17.05538,43.35738,13.267090000000001,40.50857,10.418280000000001ZM48.52418,39.83433L38.71919,39.83433C38.67993,39.83433,38.64859,39.86603,38.64859,39.905300000000004L38.64859,42.06264C38.64859,42.101780000000005,38.67993,42.13349,38.71919,42.13349L48.52418,42.13349C48.562960000000004,42.13349,48.594660000000005,42.10179,48.594660000000005,42.06264L48.594660000000005,39.905300000000004C48.594660000000005,39.866040000000005,48.562960000000004,39.83433,48.52418,39.83433ZM45.11794,55.26388L46.65023,43.87478L40.59303,43.87478L42.12532,55.26388ZM18.31632,37L18.31632,31.94784L18.294130000000003,31.92684C18.206210000000002,31.845219999999998,18.11915,31.76327,18.033420000000003,31.68012C18.020740000000004,31.668149999999997,18.008180000000003,31.65607,17.995500000000003,31.643659999999997C17.907220000000002,31.557789999999997,17.819300000000002,31.471489999999996,17.732600000000005,31.384529999999998L17.716990000000006,31.36853C17.630290000000006,31.28081,17.544570000000007,31.19255,17.459700000000005,31.10363L17.440070000000006,31.08306C17.356540000000006,30.994799999999998,17.273870000000006,30.90588,17.192410000000006,30.81653L17.155830000000005,30.77692C17.077060000000007,30.68986,16.998770000000004,30.6017,16.921710000000004,30.51344C16.908660000000005,30.49886,16.896220000000003,30.48416,16.883670000000006,30.46958L16.883430000000004,30.46914C16.805880000000005,30.380219999999998,16.729660000000003,30.29044,16.654430000000005,30.19989C16.646990000000006,30.1914,16.639920000000004,30.1828,16.632850000000005,30.17421L16.623950000000004,30.163439999999998C16.546030000000005,30.068969999999997,16.468480000000003,29.974179999999997,16.392390000000006,29.878629999999998L16.385810000000006,29.87014C16.309230000000007,29.77372,16.234360000000006,29.676959999999998,16.160340000000005,29.57989L16.150340000000003,29.56672L16.140340000000002,29.55344C16.068520000000003,29.45865,15.998040000000001,29.363529999999997,15.928290000000002,29.267539999999997L15.912440000000002,29.245559999999998L15.896590000000002,29.223679999999998C15.82867,29.129649999999998,15.761600000000001,29.035179999999997,15.69588,28.94007L15.66369,28.892619999999997C15.597480000000001,28.796629999999997,15.532240000000002,28.699879999999997,15.46822,28.6028L15.45627,28.58419L15.44432,28.56547C15.37725,28.46328,15.31153,28.36119,15.24714,28.2578L15.2458,28.25584L15.24531,28.25464C15.18093,28.15169,15.11776,28.047639999999998,15.05557,27.94306C15.04862,27.93185,15.04167,27.92021,15.03472,27.908559999999998C14.97595,27.808649999999997,14.91754,27.70809,14.86059,27.606659999999998C14.85144,27.59077,14.8423,27.57455,14.83328,27.558339999999998L14.83291,27.557799999999997L14.83181,27.555729999999997C14.77608,27.456369999999996,14.7217,27.35646,14.66768,27.255789999999998L14.64024,27.20377C14.58586,27.10158,14.53281,26.99906,14.480500000000001,26.89567L14.47404,26.882939999999998L14.47404,36.99999Z" />
		<path d="M37.25586,28.49748C35.275729999999996,30.47761,32.64326,31.56832,29.842319999999997,31.56832C27.04197,31.56832,24.40891,30.47761,22.428779999999996,28.49748C20.448499999999996,26.51678,19.357939999999996,23.8843,19.357939999999996,21.08336C19.357939999999996,18.283009999999997,20.448499999999996,15.649949999999999,22.428779999999996,13.669819999999998C24.408909999999995,11.689689999999999,27.041959999999996,10.598979999999997,29.842319999999997,10.598979999999997C32.643249999999995,10.598979999999997,35.275729999999996,11.689689999999997,37.25586,13.669819999999998C39.23656,15.649949999999997,40.32728,18.282999999999998,40.32728,21.08336C40.32728,23.88429,39.23657,26.51677,37.25586,28.49748ZM23.90183,15.14356C22.31568,16.72971,21.44175,18.8396,21.44175,21.08292C21.44175,23.32682,22.31569,25.436130000000002,23.90183,27.02286C25.48856,28.60959,27.59802,29.483530000000002,29.84177,29.483530000000002C32.08567,29.483530000000002,34.19498,28.60959,35.781710000000004,27.02286C37.36844000000001,25.436130000000002,38.242380000000004,23.32682,38.242380000000004,21.08292C38.242380000000004,18.83961,37.36844000000001,16.72971,35.781710000000004,15.14356C34.19498,13.556830000000001,32.08567000000001,12.68289,29.841770000000004,12.68289C27.598020000000005,12.68289,25.488560000000003,13.55683,23.901830000000004,15.14356Z" />
		<path d="M27.15471,23.7716C26.426160000000003,23.0432,26.04108,22.114069999999998,26.04108,21.0838C26.04108,20.05411,26.42615,19.12455,27.15471,18.39658C27.88267,17.66803,28.812240000000003,17.28353,29.84193,17.28353C30.872200000000003,17.28353,31.80133,17.668029999999998,32.52973,18.39658C33.257690000000004,19.12498,33.64278,20.05411,33.64278,21.0838C33.64278,22.11407,33.25771,23.0432,32.52973,23.7716C31.80133,24.500149999999998,30.8722,24.88465,29.84193,24.88465C28.812240000000003,24.88465,27.88268,24.50015,27.15471,23.7716ZM30.99253,19.96255C30.65898,19.62914,30.25098,19.46026,29.77891,19.46026C29.30727,19.46026,28.89884,19.629150000000003,28.56529,19.96255C28.231740000000002,20.29669,28.06241,20.70468,28.06241,21.17617C28.06241,21.64839,28.23173,22.05639,28.56529,22.39038C28.89884,22.72393,29.307280000000002,22.89267,29.77891,22.89267C30.25098,22.89267,30.65898,22.72393,30.99253,22.39038C31.326079999999997,22.05639,31.49541,21.64839,31.49541,21.17617C31.49541,20.70468,31.32609,20.29668,30.99253,19.96255Z" />
	</g>
</svg>
