<svg width="48" height="48" viewBox="0 0 48 48" fill="none" xmlns="http://www.w3.org/2000/svg">
	<g fill="#c4c4c4">
		<path fill-rule="evenodd" clip-rule="evenodd" d="M24 48C37.2548 48 48 37.2548 48 24C48 10.7452 37.2548 0 24 0C10.7452 0 0 10.7452 0 24C0 37.2548 10.7452 48 24 48ZM29.5294 7.00001H30.549C30.6322 7.00343 30.7136 7.02768 30.7871 7.07093C30.8605 7.11418 30.9242 7.17531 30.9733 7.24971C31.0223 7.32412 31.0555 7.40988 31.0704 7.50053C31.0852 7.59118 31.0812 7.68437 31.0588 7.77309L30.2816 12.1917C30.2496 12.3158 30.1831 12.4257 30.0917 12.5057C30.0002 12.5857 29.8882 12.6318 29.7718 12.6375H28.7522C28.6692 12.635 28.5879 12.6115 28.5143 12.5689C28.4408 12.5263 28.377 12.4656 28.3279 12.3916C28.2787 12.3176 28.2455 12.2322 28.2306 12.1418C28.2158 12.0514 28.2198 11.9585 28.2423 11.8701L28.9992 7.46837C29.0285 7.33646 29.0963 7.21897 29.1923 7.13425C29.2882 7.04952 29.4067 7.00232 29.5294 7.00001ZM33.7329 37H29.955C29.9913 36.6119 30 36.2037 30 35.7905V26.7727C30 23.8897 25.4242 22.4332 23.0105 22.0581L22.7518 18.4723C22.7419 18.3332 22.7582 18.1933 22.7996 18.0615C22.841 17.9296 22.9067 17.8088 22.9924 17.7064C23.0782 17.6041 23.1821 17.5225 23.2978 17.4669C23.4134 17.4113 23.5382 17.3828 23.6643 17.3832H35.0024C35.1284 17.3837 35.2531 17.4127 35.3686 17.4686C35.4841 17.5244 35.5881 17.6059 35.6741 17.708C35.7601 17.81 35.8263 17.9305 35.8686 18.0619C35.9109 18.1934 35.9284 18.3331 35.92 18.4723L34.6455 36.0633C34.6276 36.3178 34.5237 36.5555 34.3546 36.729C34.1855 36.9026 33.9636 36.9994 33.7329 37ZM37.7895 15.8692C37.9243 15.72 38 15.5176 38 15.3066V14.7085C37.9987 14.4984 37.9223 14.2975 37.7877 14.1495C37.653 14.0015 37.4709 13.9185 37.2812 13.9185H21.3855C21.1957 13.9185 21.0136 14.0015 20.879 14.1495C20.7443 14.2975 20.668 14.4984 20.6667 14.7085V15.3066C20.6667 15.5176 20.7424 15.72 20.8772 15.8692C21.012 16.0184 21.1948 16.1023 21.3855 16.1023H37.2812C37.4718 16.1023 37.6547 16.0184 37.7895 15.8692ZM27.7848 27.247C27.7848 25.5933 25.126 23.6959 18.9279 23.6959C12.7297 23.6959 10 25.5933 10 27.247V27.6941C10 28.0521 10.2862 28.3423 10.6392 28.3423H27.1456C27.4986 28.3423 27.7848 28.0521 27.7848 27.6941V27.247ZM10.6392 33.7258H27.1456C27.4986 33.7258 27.7848 34.016 27.7848 34.3739V34.8211C27.7848 36.4748 26.6623 36.9801 23.5659 36.9801H14.2189C11.4383 36.9801 10 36.4748 10 34.8211V34.3739C10 34.016 10.2862 33.7258 10.6392 33.7258ZM11.8554 29.2379H11.7705C10.7927 29.2379 10 30.0416 10 31.0331C10 32.0245 10.7927 32.8283 11.7705 32.8283H26.0144C26.9922 32.8283 27.7848 32.0245 27.7848 31.0331C27.7848 30.0416 26.9922 29.2379 26.0144 29.2379L25.7804 29.2392C24.4904 29.2392 23.2221 29.5921 22.113 30.2602L19.7476 31.684C19.4935 31.8369 19.2082 31.9135 18.9226 31.9135C18.6412 31.9135 18.3597 31.839 18.1081 31.6903L15.6441 30.2324C14.5463 29.5826 13.2943 29.2392 12.0233 29.2392L11.8554 29.2379Z" />
	</g>
</svg>
