<svg width="20" height="20" viewBox="0 0 20 20" fill="none" xmlns="http://www.w3.org/2000/svg">
<path d="M13.7423 1.5H13.1597C13.0895 1.50131 13.0218 1.52806 12.967 1.57607C12.9122 1.62408 12.8734 1.69066 12.8567 1.76541L12.4242 4.2597C12.4113 4.3098 12.409 4.36247 12.4175 4.41368C12.426 4.4649 12.445 4.51332 12.4731 4.55526C12.5012 4.59719 12.5376 4.63154 12.5796 4.65569C12.6216 4.67983 12.6681 4.69314 12.7155 4.69459H13.2981C13.3647 4.69135 13.4287 4.66522 13.4809 4.61988C13.5332 4.57454 13.5712 4.5123 13.5895 4.44197L14.0336 1.93808C14.0464 1.8878 14.0487 1.835 14.0402 1.78363C14.0317 1.73226 14.0128 1.68367 13.9847 1.6415C13.9567 1.59934 13.9203 1.5647 13.8783 1.54019C13.8363 1.51568 13.7898 1.50194 13.7423 1.5Z" fill="black"/>
<path d="M13.4029 18.5H15.5617C15.6935 18.4996 15.8203 18.4448 15.9169 18.3465C16.0135 18.2481 16.0729 18.1134 16.0831 17.9692L16.8114 8.00097C16.8162 7.92207 16.8062 7.84293 16.782 7.76843C16.7579 7.69394 16.72 7.62567 16.6709 7.56784C16.6218 7.51001 16.5624 7.46385 16.4963 7.4322C16.4303 7.40055 16.3591 7.38408 16.2871 7.38382H9.80817C9.73612 7.38358 9.66481 7.39973 9.59873 7.43125C9.53265 7.46277 9.47324 7.50899 9.42424 7.56697C9.37525 7.62496 9.33773 7.69346 9.31406 7.76816C9.29039 7.84285 9.28108 7.92213 9.28672 8.00097L9.43458 10.0329C10.8138 10.2455 13.4286 11.0708 13.4286 12.7045V17.8146C13.4286 18.0488 13.4236 18.2801 13.4029 18.5Z" fill="black"/>
<path d="M17.8797 6.52589C17.9567 6.44134 18 6.32666 18 6.20708V5.86813C17.9992 5.74911 17.9556 5.63524 17.8787 5.55138C17.8017 5.46752 17.6977 5.42045 17.5892 5.42046H8.50599C8.39755 5.42045 8.29351 5.46752 8.21656 5.55138C8.13961 5.63524 8.096 5.74911 8.09523 5.86813V6.20708C8.09523 6.32666 8.13851 6.44134 8.21554 6.52589C8.29257 6.61045 8.39705 6.65795 8.50599 6.65795H17.5892C17.6982 6.65795 17.8027 6.61045 17.8797 6.52589Z" fill="black"/>
<path d="M7.10164 10.961C10.6434 10.961 12.1628 12.0362 12.1628 12.9733V13.2267C12.1628 13.4295 11.9992 13.5939 11.7975 13.5939H2.36527C2.16355 13.5939 2 13.4295 2 13.2267V12.9733C2 12.0362 3.55983 10.961 7.10164 10.961Z" fill="black"/>
<path d="M2.36527 16.6446H11.7975C11.9992 16.6446 12.1628 16.8091 12.1628 17.0119V17.2653C12.1628 18.2024 11.5213 18.4887 9.75196 18.4887H4.41079C2.82187 18.4887 2 18.2024 2 17.2653V17.0119C2 16.8091 2.16355 16.6446 2.36527 16.6446Z" fill="black"/>
<path d="M3.01172 14.1015H3.06024L3.15615 14.1022C3.88246 14.1022 4.59788 14.2968 5.22519 14.665L6.63322 15.4912C6.77695 15.5755 6.93785 15.6176 7.09865 15.6176C7.26184 15.6176 7.42486 15.5742 7.57004 15.4876L8.92169 14.6808C9.55551 14.3022 10.2802 14.1022 11.0174 14.1022L11.1511 14.1015C11.7098 14.1015 12.1628 14.5569 12.1628 15.1187C12.1628 15.6806 11.7098 16.136 11.1511 16.136H3.01172C2.45295 16.136 2 15.6806 2 15.1187C2 14.5569 2.45295 14.1015 3.01172 14.1015Z" fill="black"/>
</svg>
