<svg id="Hotel" xmlns="http://www.w3.org/2000/svg" x="0px" y="0px" width="48" height="48" viewBox="0 0 283.465 283.465">
	<g fill="#CACACA">
		<path style="fill-rule:evenodd;clip-rule:evenodd" d="M141.732,0C63.456,0,0,63.456,0,141.732
	s63.454,141.732,141.732,141.732c78.276,0,141.732-63.456,141.732-141.732S220.007,0,141.732,0z M164.581,105.539
	c25.703,0,29.439,0.441,32.734,4.173c2.855,3.075,3.516,7.25,3.075,16.917l-0.658,12.742h-35.151H129.65l-0.658-12.742
	C127.89,106.637,129.65,105.539,164.581,105.539z M94.279,108.615c8.13-7.031,15.598-6.591,23.506,1.098
	c8.348,8.13,8.567,17.136,0.658,25.045c-11.644,11.425-30.097,3.516-30.097-12.742C88.348,115.864,89.884,112.568,94.279,108.615z
	 M224.994,201.763h-9.886h-9.886v-10.984v-10.984h-63.489H78.242v10.984v10.984h-9.886H58.47v-57.561
	c0-41.742,0.658-58.219,2.637-59.975c3.516-3.516,9.447-3.295,12.523,0.22c2.197,2.417,4.394,28.998,4.614,53.384v7.031h63.489
	h63.49v-19.551c0-14.72,0.878-20.431,3.516-22.848c4.394-4.394,8.348-4.394,12.742,0c2.855,2.855,3.516,10.764,3.516,51.408v47.892
	H224.994z" />
	</g>
</svg>
