<svg width="20" height="20" viewBox="0 0 20 20" fill="none" xmlns="http://www.w3.org/2000/svg">
<path d="M13.5062 1.46623C13.1786 1.16091 12.747 1 12.2573 1C11.675 1 11.1487 1.21605 10.7355 1.62451C10.3327 2.02323 10.1286 2.50971 10.1286 3.07046C10.1286 3.53444 10.2969 3.94028 10.6154 4.24447C10.9429 4.55804 11.3721 4.72382 11.8569 4.72382C12.2515 4.72382 12.8346 4.61055 13.3745 4.07043C13.7893 3.65484 14 3.16498 14 2.61473C13.9996 2.16501 13.8292 1.76855 13.5062 1.46623Z" fill="black"/>
<path d="M12.0816 14.9527C11.9413 14.8331 11.7589 14.7734 11.5768 14.7734C11.3989 14.7734 11.2209 14.8306 11.0818 14.9444C10.4629 15.4521 10.0326 15.7733 9.73681 15.9768C9.87753 15.3132 11.1313 13.101 12.0166 10.5051C12.9685 7.72603 12.9685 7.43153 12.9685 7.27339C12.9685 6.88393 12.7942 6.55302 12.4649 6.31563C12.172 6.10466 11.783 5.99757 11.3084 5.99757C10.6269 5.99757 9.85828 6.21283 8.95873 6.65547C8.10253 7.07741 7.19603 7.75316 6.18766 8.72198C6.05226 8.85228 5.98517 9.02612 6.00276 9.2014C6.02035 9.37667 6.12098 9.53767 6.28052 9.64511L6.90599 10.0671C7.0369 10.1556 7.19316 10.1988 7.3482 10.1988C7.53147 10.1988 7.71391 10.1381 7.85382 10.0189C8.3443 9.60049 8.67892 9.32812 8.90636 9.15106C7.56379 12.9882 6.0212 16.2749 6.0212 17.339C6.0212 17.8252 6.18483 18.225 6.50636 18.5263C6.8373 18.8362 7.29301 19 7.82398 19C8.33492 19 8.93135 18.8269 9.64682 18.4703C10.2989 18.1458 11.2733 17.4472 12.6265 16.3352C12.7697 16.2174 12.8519 16.0532 12.854 15.8815C12.8556 15.7098 12.777 15.5445 12.6359 15.4242L12.0816 14.9527Z" fill="black"/>
</svg>
