<svg width="48" height="48" viewBox="0 0 48 48" fill="none" xmlns="http://www.w3.org/2000/svg">
	<g fill="#c4c4c4">
		<path fill-rule="evenodd" clip-rule="evenodd" d="M24 48C37.2548 48 48 37.2548 48 24C48 10.7452 37.2548 0 24 0C10.7452 0 0 10.7452 0 24C0 37.2548 10.7452 48 24 48ZM28.1681 9C28.9638 9 29.6653 9.25924 30.1976 9.75115C30.7225 10.2382 30.9993 10.877 31 11.6015C31 12.488 30.6576 13.2772 29.9836 13.9468C29.1063 14.817 28.1587 14.9995 27.5174 14.9995C26.7297 14.9995 26.0323 14.7324 25.5 14.2272C24.9824 13.7371 24.7089 13.0833 24.7089 12.3357C24.7089 11.4323 25.0406 10.6485 25.6952 10.0062C26.3666 9.34808 27.2219 9 28.1681 9ZM27.0623 31.1906C27.3582 31.1906 27.6546 31.2866 27.8826 31.4793L28.7834 32.239C29.0127 32.4328 29.1403 32.6991 29.1377 32.9757C29.1343 33.2524 29.0007 33.5169 28.7681 33.7067C26.5691 35.4982 24.9857 36.6237 23.9261 37.1465C22.7634 37.7211 21.7942 38 20.964 38C20.1011 38 19.3606 37.736 18.8228 37.2368C18.3003 36.7514 18.0344 36.1073 18.0344 35.324C18.0344 34.2637 18.9932 31.8339 20.2408 28.6719L20.2408 28.6718C21.0106 26.7209 21.8904 24.4911 22.7228 22.1323C22.3532 22.4175 21.8095 22.8563 21.0125 23.5304C20.7851 23.7225 20.4886 23.8203 20.1908 23.8203C19.9389 23.8203 19.685 23.7507 19.4722 23.608L18.4558 22.9282C18.1966 22.7551 18.0331 22.4957 18.0045 22.2134C17.9759 21.931 18.0849 21.6509 18.305 21.441C19.9435 19.8801 21.4166 18.7914 22.8079 18.1116C24.2697 17.3984 25.5188 17.0516 26.6262 17.0516C27.3973 17.0516 28.0295 17.2242 28.5055 17.5641C29.0406 17.9465 29.3238 18.4797 29.3238 19.1071C29.3238 19.3619 29.3238 19.8364 27.7769 24.3137C26.9431 26.7379 25.9081 28.9544 25.1407 30.5977C24.5842 31.7895 24.1684 32.6799 24.0723 33.1293C24.5529 32.8015 25.2522 32.2839 26.258 31.466C26.484 31.2826 26.7732 31.1906 27.0623 31.1906Z" />
	</g>
</svg>
