<svg width="48" height="48" viewBox="0 0 48 48" fill="none" xmlns="http://www.w3.org/2000/svg">
<g clip-path="url(#clip0_5884_3381)">
<path fill-rule="evenodd" clip-rule="evenodd" d="M24 48C37.2548 48 48 37.2548 48 24C48 10.7452 37.2548 0 24 0C10.7452 0 0 10.7452 0 24C0 37.2548 10.7452 48 24 48ZM15.5 25.5C14.1893 23.488 13.0909 21.3333 12.6338 20.3578C12.6196 20.3039 12.6053 20.2513 12.591 20.1986C12.5732 20.1329 12.5554 20.067 12.5375 19.9984C11.1741 14.7271 16.1305 12 24.1671 12C32.2037 12 37.0393 14.6718 35.7967 19.9984C35.7859 20.044 35.7751 20.0879 35.7643 20.1317C35.76 20.149 35.7557 20.1664 35.7514 20.1838C35.7464 20.2044 35.7414 20.2251 35.7364 20.2462C35.2973 20.8232 34.8172 21.6468 34.2485 22.6222L34.2485 22.6223L34.2485 22.6223C33.7458 23.4846 33.1739 24.4656 32.5 25.5C32.415 25.6307 32.2999 25.8429 32.1913 26.0431L32.1913 26.0432L32.1911 26.0435C32.1214 26.1719 32.0545 26.2952 32 26.3889H16C15.946 26.2961 15.8798 26.174 15.8109 26.0467L15.8108 26.0467C15.7019 25.8456 15.5859 25.6316 15.5 25.5ZM32.9977 26.7323C34.9503 23.7356 37.4103 21.7492 38.4926 22.815C39.5746 23.8808 38.8693 27.1743 36.9163 30.1716C35.8867 31.7516 34.718 32.9256 33.6827 33.5339C33.5473 34.9484 33.0494 36 32.454 36C31.9264 36 31.4747 35.1747 31.2844 34.0025H16.9895C16.7995 35.1747 16.3475 36 15.8198 36C15.2468 36 14.7631 35.0261 14.6071 33.6914C13.5048 33.1478 12.2108 31.9013 11.0835 30.1713C9.13085 27.1743 8.42518 23.8808 9.50751 22.815C10.5898 21.7495 13.0502 23.7356 15.0028 26.7323C15.2111 27.0519 15.4018 27.3751 15.5811 27.6982C15.5923 27.6974 15.6034 27.6962 15.6145 27.695L15.6147 27.695C15.6357 27.6928 15.6569 27.6906 15.6785 27.6906H32.4237C32.6017 27.3699 32.791 27.0492 32.9977 26.7323Z" fill="black"/>
</g>
<defs>
<clipPath id="clip0_5884_3381">
<rect width="48" height="48" fill="white"/>
</clipPath>
</defs>
</svg>
