<svg width="20" height="20" viewBox="0 0 20 20" fill="none" xmlns="http://www.w3.org/2000/svg">
<path fill-rule="evenodd" clip-rule="evenodd" d="M3.93803 7.87538C4.18182 8.44444 4.76765 9.70131 5.46667 10.875C5.54151 11.0004 5.65902 11.2538 5.73333 11.3935H14.2667C14.3412 11.2536 14.4588 11.0002 14.5333 10.875C15.2994 9.58902 15.8182 8.44444 16.2594 7.81026C16.2701 7.76128 16.2809 7.71531 16.2916 7.66572C16.9543 4.55853 14.3753 3 10.0891 3C5.80292 3 3.15954 4.59079 3.88665 7.66572C3.90389 7.73789 3.92096 7.80482 3.93803 7.87538Z" fill="black"/>
<path fill-rule="evenodd" clip-rule="evenodd" d="M17.7294 9.30874C17.1522 8.68702 15.8402 9.84579 14.7988 11.5938C14.6885 11.7787 14.5876 11.9658 14.4926 12.1528H5.56185C5.54425 12.1528 5.52718 12.1559 5.50994 12.1573C5.4143 11.9688 5.31261 11.7803 5.2015 11.5938C4.16008 9.84579 2.84791 8.68722 2.27067 9.30874C1.69343 9.93046 2.06978 11.8517 3.1112 13.5999C3.71244 14.6091 4.40257 15.3362 4.99048 15.6533C5.07368 16.4319 5.33163 17 5.63723 17C5.91865 17 6.15971 16.5186 6.26105 15.8348H13.885C13.9865 16.5186 14.2274 17 14.5088 17C14.8263 17 15.0919 16.3865 15.1641 15.5614C15.7163 15.2066 16.3396 14.5218 16.8887 13.6001C17.9303 11.8517 18.3065 9.93046 17.7294 9.30874Z" fill="black"/>
</svg>
