<svg width="20" height="20" viewBox="0 0 20 20" fill="none" xmlns="http://www.w3.org/2000/svg">
<path d="M10.0229 4.97091C11.1716 4.97091 12.1029 4.08199 12.1029 2.98545C12.1029 1.88892 11.1716 1 10.0229 1C8.87411 1 7.94286 1.88892 7.94286 2.98545C7.94286 4.08199 8.87411 4.97091 10.0229 4.97091Z" fill="black"/>
<path d="M6.70857 11.8436C7.09714 11.8436 7.41714 11.5382 7.41714 11.1673V7.76364C7.41714 7.39273 7.64571 7.08728 7.96571 6.93455V18.1055C7.96571 18.5855 8.37714 18.9782 8.88 18.9782C9.38286 18.9782 9.79429 18.5855 9.79429 18.1055V13.0436H10.2743V18.1273C10.2743 18.6073 10.6857 19 11.1886 19C11.6914 19 12.1029 18.6073 12.1029 18.1273V7.00001C12.4 7.15274 12.5829 7.45819 12.5829 7.78546V11.1891C12.5829 11.56 12.9029 11.8655 13.2914 11.8655C13.68 11.8655 14 11.56 14 11.1891V8.00364C14 6.49819 12.72 5.27637 11.1429 5.27637H8.88C7.28 5.27637 6 6.49819 6 8.00364V11.1673C6 11.56 6.32 11.8436 6.70857 11.8436Z" fill="black"/>
</svg>
