<svg width="48" height="48" viewBox="0 0 48 48" fill="none" xmlns="http://www.w3.org/2000/svg">
	<g fill="#c4c4c4">
		<path fill-rule="evenodd" clip-rule="evenodd" d="M24 48C37.2548 48 48 37.2548 48 24C48 10.7452 37.2548 0 24 0C10.7452 0 0 10.7452 0 24C0 37.2548 10.7452 48 24 48ZM27.68 11.14C27.68 13.1503 26.0503 14.78 24.04 14.78C22.0297 14.78 20.4 13.1503 20.4 11.14C20.4 9.12968 22.0297 7.5 24.04 7.5C26.0503 7.5 27.68 9.12968 27.68 11.14ZM19.48 26.14C19.48 26.82 18.92 27.38 18.24 27.38C17.56 27.38 17 26.86 17 26.14V20.34C17 17.58 19.24 15.34 22.04 15.34H26C28.76 15.34 31 17.58 31 20.34V26.18C31 26.86 30.44 27.42 29.76 27.42C29.08 27.42 28.52 26.86 28.52 26.18V19.94C28.52 19.34 28.2 18.78 27.68 18.5V38.9C27.68 39.78 26.96 40.5 26.08 40.5C25.2 40.5 24.48 39.78 24.48 38.9V29.58H23.64V38.86C23.64 39.74 22.92 40.46 22.04 40.46C21.16 40.46 20.44 39.74 20.44 38.86V18.38C19.88 18.66 19.48 19.22 19.48 19.9V26.14Z" />
	</g>
</svg>
