<svg width="64" height="64" viewBox="0 0 64 64" fill="none" xmlns="http://www.w3.org/2000/svg">
	<g fill="#c4c4c4">
		<path fill-rule="evenodd" clip-rule="evenodd" d="M64 32C64 49.6731 49.6731 64 32 64C14.3269 64 0 49.6731 0 32C0 14.3269 14.3269 0 32 0C49.6731 0 64 14.3269 64 32ZM9.25216 19.6235H9.25213L9.25205 19.6235L9.25185 19.6235L9.25146 19.6235C8.94958 19.6105 8.68381 19.5991 8.46381 19.5879C8.264 19.5958 8.0641 19.6037 7.8722 19.8114C7.68031 20.0192 7.49633 20.4269 7.50424 20.6267L8.21665 38.6126C8.2404 39.2121 8.65595 39.596 9.25548 39.5723L15.2508 39.3348C15.6505 39.319 16.0422 39.1033 16.2263 38.6957C16.2196 38.526 16.4691 37.545 16.8349 36.1072C17.7619 32.4637 19.435 25.8873 19.5741 22.1502L19.5741 22.15C19.5661 21.95 19.5501 21.5506 19.1426 21.3666C17.6464 19.9844 11.978 19.7407 9.25216 19.6235ZM36.763 24.0569L36.7631 24.057C37.9834 24.4871 39.3028 24.9522 40.7159 25.3159C41.7864 27.0749 44.4536 33.7746 46.0108 37.7161L45.811 37.724C44.3408 35.9808 41.448 33.6935 38.5631 31.6061C37.7768 30.9609 36.9918 30.3514 36.269 29.7902L36.269 29.7902C35.2805 29.0227 34.4084 28.3455 33.8083 27.7911C33.7084 27.7951 33.5565 27.7511 33.4047 27.7071C33.2528 27.663 33.1009 27.619 33.001 27.623L32.6013 27.6388C32.0105 27.8621 31.6191 28.0775 31.2278 28.2928L31.2278 28.2929L31.2262 28.2938C31.0406 28.3639 30.8943 28.4325 30.7624 28.4944C30.474 28.6296 30.2546 28.7326 29.8432 28.7489C29.4435 28.7647 29.2516 28.9725 29.0597 29.1803C27.7479 31.434 26.3411 31.2896 25.326 30.9294C24.9184 30.7454 24.9184 30.7454 24.9104 30.5455C24.679 29.7541 25.5991 27.716 26.9425 26.2618C30.0133 22.9377 31.5804 22.0749 35.2409 23.5312C35.7296 23.6927 36.237 23.8715 36.7629 24.0569L36.763 24.0569ZM54.5069 19.7658C47.789 20.0318 43.6539 21.6827 42.5123 22.1385C42.3294 22.2115 42.2234 22.2538 42.1958 22.2549L41.62 22.8782C41.6279 23.078 41.6437 23.4777 41.8515 23.6696C43.1297 25.6205 47.5619 36.4537 48.2723 39.2277C48.4879 39.6195 48.9035 40.0033 49.3032 39.9874L55.2985 39.75C55.898 39.7262 56.2819 39.3107 56.2582 38.7111L55.5458 20.7252C55.522 20.1259 55.1065 19.742 54.5069 19.7658ZM37.827 33.8556C40.699 35.9632 43.6949 38.1618 44.4912 39.7778C44.9225 40.5614 44.5466 41.1767 44.3547 41.3845L44.3545 41.3846C43.9628 41.6002 43.5711 41.8158 43.1635 41.6318L37.1385 36.0659C36.723 35.682 36.1235 35.7059 35.7396 36.1213C35.3557 36.5368 35.3795 37.1363 35.795 37.5202L41.6123 42.8942C41.484 43.1784 41.2547 43.3693 41.0625 43.5293C40.9791 43.5987 40.9027 43.6623 40.8446 43.7252C40.253 43.9488 39.4535 43.9805 39.2458 43.7886L34.0519 38.9904C33.6364 38.6065 33.0369 38.6303 32.653 39.0458C32.2691 39.4613 32.2928 40.0608 32.7084 40.4447L37.4869 44.859C37.3107 45.4665 37.1267 45.8741 36.5351 46.0977C36.4352 46.1016 36.3357 46.1181 36.2363 46.1346C35.938 46.1839 35.6398 46.2333 35.3282 45.9454L31.1729 42.1068C30.7575 41.7229 30.158 41.7467 29.7741 42.1622C29.3902 42.5776 29.4139 43.1772 29.8295 43.5611L33.1537 46.632L32.5542 46.6557C31.9546 46.6795 30.7397 46.3273 30.1244 45.9514C30.0208 45.8799 29.8586 45.7696 29.6464 45.6252C28.1724 44.6222 24.2843 41.9766 20.8544 39.313C20.4502 39.0661 19.9495 38.5638 19.4179 38.0307C19.1402 37.7522 18.8541 37.4652 18.569 37.2018C19.4573 34.3644 20.6505 29.1131 21.2915 25.0845L25.2884 24.9262C23.9449 26.3805 22.2571 29.2496 22.736 31.2321C22.9674 32.0236 23.5986 32.7993 24.6058 32.9595C26.8357 33.6718 28.8025 32.7933 30.322 30.7315C30.9072 30.7084 31.1668 30.5908 31.496 30.4418C31.6165 30.3872 31.7464 30.3284 31.905 30.2685C31.9005 30.1562 32.0247 30.102 32.1683 30.0393C32.2805 29.9903 32.4045 29.9361 32.4887 29.845C32.9497 30.1993 33.4673 30.5791 34.0207 30.9852C34.954 31.67 35.9893 32.4297 37.0277 33.2682C37.2918 33.4628 37.5589 33.6588 37.827 33.8556Z" />
	</g>
</svg>
