<svg id="Parking" xmlns="http://www.w3.org/2000/svg" x="0" y="0" width="48" height="48" viewBox="0 0 283.465 283.465">
	<g fill="#CACACA">
		<path d="M119.379,83.743v67.262h33.692c18.628,0,33.733-15.064,33.733-33.611
		c0-18.587-15.105-33.611-33.733-33.611h-33.692V83.743z" />
		<path d="M141.732,0C63.456,0,0,63.456,0,141.732s63.456,141.732,141.732,141.732
		s141.732-63.456,141.732-141.732S220.009,0,141.732,0z M220.494,117.354c0,37.134-30.169,67.262-67.423,67.262h-33.692v33.611
		c0,9.273-7.533,16.805-16.845,16.805s-16.847-7.533-16.847-16.806V66.937c0-9.273,7.533-16.805,16.845-16.805h50.537
		C190.326,50.133,220.494,80.22,220.494,117.354z" />
	</g>
</svg>
