<svg xmlns="http://www.w3.org/2000/svg" version="1.1" viewBox="0 0 105.37869341899977 75.83326536100003" x="0" y="0" width="48" height="48">
	<g>
		<path d="M29.417003932,4.121208046L47.411499165,4.121208046L48.172540151,12.213390571C48.249456748,13.030961807,47.810756382,13.807612623,47.043757067,14.100949481C45.352970704,14.747551173,42.149310702,15.75756163,38.633897187,15.75756163C35.076135218,15.75756163,31.83766085,14.723077706,30.163616898,14.077756315C29.428329678,13.794317177,28.991697492,13.062329201,29.029121704,12.275238994L29.417003932,4.121208046Z" fill="#B3B3B3" />
		<path d="M28.068156659,3.242650122C28.068156659,2.348004713,28.709489416,1.583181914,29.586594686,1.406899118C32.92325837,0.736301617,35.663104395,0,38.40905648,0C41.155008562,0,43.894854592,0.736301617,47.231518267,1.406899118C48.108623544,1.583181914,48.749956302,2.348004713,48.749956302,3.242650122C48.749956302,4.263410197,47.923570676,5.090923468,46.902825377,5.090923468C44.728084907,5.090923468,41.075137417,5.090923468,38.40905648,5.090923468C35.742975536,5.090923468,32.090028046,5.090923468,29.915287576,5.090923468C28.894542278,5.090923468,28.068156659,4.263415117,28.068156659,3.242650122Z" fill="#CECECE" />
		<path d="M4.121163727,46.908685227L4.121163727,28.914189995L12.213341323,28.153149009C13.030961797,28.076232409,13.807563383,28.514932775,14.100900243,29.281932089C14.747501928,30.972718448,15.757512383,34.176378453,15.757512383,37.691791973C15.757512383,41.249553933,14.723028467,44.488028307,14.077707072,46.162072259C13.794267933,46.897359478,13.062279958,47.333991668,12.275189754,47.296567455L4.121163727,46.908685227Z" fill="#B3B3B3" />
		<path d="M3.242650118,48.257532508C2.348004702,48.257532508,1.583181909,47.616199748,1.406899114,46.739094472C0.736301612,43.402430798,0,40.66258477,0,37.91663268C0,35.170680597,0.736301612,32.430834571,1.406899114,29.094170895C1.583181909,28.217065625,2.348004702,27.57573286,3.242650118,27.57573286C4.263410195,27.57573286,5.090923459,28.402118483,5.090923459,29.422863775C5.090923459,31.597604257,5.090923459,35.250551736,5.090923459,37.91663268C5.090923459,40.582713626,5.090923459,44.235661105,5.090923459,46.410401582C5.090923459,47.431146881,4.263415111,48.257532508,3.242650118,48.257532508Z" fill="#CECECE" />
		<path d="M101.257598629,28.924580134L101.257598629,46.919075375L93.165105881,47.680116351C92.347682375,47.75703295,91.571130039,47.318332586,91.27764546,46.55133328C90.631093002,44.860546913,89.621131783,41.656886907,89.621131783,38.141473396C89.621131783,34.583711426,90.655714193,31.345237061,91.300789374,29.671193101C91.584425482,28.935905874,92.316167247,28.499273701,93.103552909,28.536697909L101.257598629,28.924580134Z" fill="#B3B3B3" />
		<path d="M102.136082693,27.57573286C103.030816737,27.57573286,103.795550901,28.217065625,103.971838618,29.094170895C104.642519842,32.430834571,105.378693419,35.170680597,105.378693419,37.91663268C105.378693419,40.66258477,104.642519842,43.402430798,103.971838618,46.739094472C103.795550901,47.616199748,103.030816737,48.257532508,102.136082693,48.257532508C101.115288149,48.257532508,100.288016168,47.431146881,100.288016168,46.410401582C100.288016168,44.235661105,100.288016168,40.582713626,100.288016168,37.91663268C100.288016168,35.250551736,100.288016168,31.597604257,100.288016168,29.422863775C100.288016168,28.402118483,101.115288149,27.57573286,102.136082693,27.57573286Z" fill="#CECECE" />
		<path d="M57.977485911,4.121208046L75.972128871,4.121208046L76.732923642,12.213390571C76.810234179,13.030961807,76.371484568,13.807612623,75.604288289,14.100949481C73.913797386,14.747551173,70.710088135,15.75756163,67.194674617,15.75756163C63.636912656,15.75756163,60.398241316,14.723077706,58.724000393,14.077756315C57.988811653,13.794317177,57.552031745,13.062329201,57.589948379,12.275238994L57.977485911,4.121208046Z" fill="#B3B3B3" />
		<path d="M56.628737119,3.242650122C56.628737119,2.348004713,57.269872906,1.583181914,58.147372115,1.406899118C61.484035792,0.736301617,64.223881823,0,66.969636935,0C69.715392052,0,72.455238077,0.736301617,75.791901757,1.406899118C76.669400973,1.583181914,77.310536758,2.348004713,77.310536758,3.242650122C77.310536758,4.263410197,76.484249622,5.090923468,75.463455081,5.090923468C73.288419157,5.090923468,69.635619394,5.090923468,66.969636935,5.090923468C64.303654481,5.090923468,60.650854724,5.090923468,58.475818789,5.090923468C57.455024256,5.090923468,56.628737119,4.263415117,56.628737119,3.242650122Z" fill="#CECECE" />
		<path d="M47.401109021,71.712170574L29.406613795,71.712170574L28.645572802,63.619677821C28.568656204,62.802254317,29.00735657,62.02570198,29.774355884,61.732217392C31.46514225,61.085664944,34.668802253,60.075703724,38.18421577,60.075703724C41.741977732,60.075703724,44.980452106,61.11028614,46.654496056,61.755361311C47.389783282,62.038997424,47.826415461,62.770739193,47.788991249,63.558124849L47.401109021,71.712170574Z" fill="#B3B3B3" />
		<path d="M48.749956302,72.590654632C48.749956302,73.485388675,48.108623544,74.250122839,47.231518267,74.426410565C43.894854592,75.09709178,41.155008562,75.833265361,38.40905648,75.833265361C35.663104395,75.833265361,32.92325837,75.09709178,29.586594686,74.426410565C28.709489416,74.250122839,28.068156659,73.485388675,28.068156659,72.590654632C28.068156659,71.56986009,28.894542278,70.742588108,29.915287576,70.742588108C32.090028046,70.742588108,35.742975536,70.742588108,38.40905648,70.742588108C41.075137417,70.742588108,44.728084907,70.742588108,46.902825377,70.742588108C47.923570676,70.742588108,48.749956302,71.56986009,48.749956302,72.590654632Z" fill="#CECECE" />
		<path d="M75.961787972,71.712170574L57.967145007,71.712170574L57.206350233,63.619677821C57.129039698,62.802254317,57.567789307,62.02570198,58.334985589,61.732217392C60.025476493,61.085664944,63.229185743,60.075703724,66.744599263,60.075703724C70.302361221,60.075703724,73.541032556,61.11028614,75.215273484,61.755361311C75.950462222,62.038997424,76.387242135,62.770739193,76.349325501,63.558124849L75.961787972,71.712170574Z" fill="#B3B3B3" />
		<path d="M77.310536758,72.590654632C77.310536758,73.485388675,76.669400973,74.250122839,75.791901757,74.426410565C72.455238077,75.09709178,69.715392052,75.833265361,66.969636935,75.833265361C64.223881823,75.833265361,61.484035792,75.09709178,58.147372115,74.426410565C57.269872906,74.250122839,56.628737119,73.485388675,56.628737119,72.590654632C56.628737119,71.56986009,57.455024256,70.742588108,58.475818789,70.742588108C60.650854724,70.742588108,64.303654481,70.742588108,66.969636935,70.742588108C69.635619394,70.742588108,73.288419157,70.742588108,75.463455081,70.742588108C76.484249622,70.742588108,77.310536758,71.56986009,77.310536758,72.590654632Z" fill="#CECECE" />
		<path fill="#B3B3B3" d="M18.219680633,18.219680639L87.159012781,18.219680639L87.159012781,57.613584724L18.219680633,57.613584724Z" />
	</g>
</svg>
