<svg xmlns="http://www.w3.org/2000/svg" version="1.1" viewBox="0 0 65.98478934400009 29.54542805699998" x="0" y="0" width="48" height="48">
	<g>
		<path d="M47.765108704,1e-9L47.765108704,29.545428056L18.21968064,29.545428057L18.219680641,0Z" fill="rgb(179, 179, 179)" />
		<path d="M61.863596061,5.780661484L61.863596062,23.775156715L53.771398772,24.536197703C52.953827536,24.6131143,52.177176719,24.174413931,51.883839863,23.407414618C51.23723817,21.716628262,50.227227713,18.512968253,50.227227713,14.997554728C50.227227714,11.439792773,51.261760872,8.201318403,51.90708227,6.527274445C52.190472166,5.791987234,52.922460141,5.355355046,53.709599589,5.392779247L61.863596061,5.780661484Z" fill="rgb(179, 179, 179)" />
		<path d="M62.742139222,4.431814201C63.63678463,4.431814202,64.40160743,5.073146964,64.577890226,5.950252239C65.248487726,9.286915913,65.984789343,12.026761942,65.984789343,14.772714032C65.984789344,17.518666112,65.248487725,20.258512136,64.577890224,23.595175822C64.401607429,24.472281087,63.636784631,25.113613848,62.742139221,25.113613847C61.721379147,25.11361385,60.893865874,24.287228226,60.893865876,23.266482934C60.893865873,21.091742454,60.893865874,17.438794973,60.893865876,14.772714031C60.893865876,12.106633084,60.893865875,8.453685603,60.893865875,6.278945126C60.893865874,5.258199829,61.721374227,4.431814202,62.742139222,4.431814201Z" fill="rgb(206, 206, 206)" />
		<path d="M4.121094794,23.764766575L4.121094794,5.77027134L12.213587542,5.009230352C13.031011053,4.932313759,13.807563386,5.371014125,14.101047969,6.138013434C14.74760042,7.8287998,15.757561639,11.032459803,15.75756164,14.547873321C15.75756164,18.105635289,14.722979227,21.34410965,14.077904047,23.018153609C13.794267939,23.753440829,13.062526174,24.190073007,12.27514051,24.152648804L4.121094794,23.764766575Z" fill="rgb(179, 179, 179)" />
		<path d="M3.242610736,25.113613849C2.347876682,25.113613848,1.58314252,24.472281089,1.406854803,23.595175821C0.736173579,20.258512136,1e-9,17.518666114,1e-9,14.772714031C0,12.026761942,0.73617358,9.286915913,1.4068548,5.950252238C1.583142522,5.073146965,2.347876682,4.431814202,3.242610736,4.431814203C4.263405267,4.431814202,5.090677253,5.258199829,5.090677253,6.278945125C5.090677252,8.453685601,5.090677254,12.106633082,5.090677254,14.772714031C5.090677252,17.438794973,5.090677253,21.091742454,5.090677253,23.266482934C5.090677253,24.287228226,4.263405267,25.113613848,3.242610736,25.113613849Z" fill="rgb(206, 206, 206)" />
	</g>
</svg>
