<svg xmlns="http://www.w3.org/2000/svg" version="1.1" viewBox="0 0 54.1666181100004 67.4620607459999" x="0" y="0" width="48" height="48">
	<g>
		<path d="M4.795823724,4.121208046L22.790309113,4.121208046L23.551350093,12.213390571C23.628266693,13.030961807,23.189566331,13.807612623,22.422567021,14.100949481C20.731780657,14.747551173,17.528120647,15.75756163,14.012707135,15.75756163C10.454945168,15.75756163,7.216470798,14.723077706,5.542426845,14.077756315C4.807164243,13.794317177,4.370492667,13.062329201,4.407936572,12.275238994L4.795823724,4.121208046Z" fill="#B3B3B3" />
		<path d="M3.446966606,3.242650122C3.446966606,2.348004713,4.088279661,1.583181914,4.96540463,1.406899118C8.302068311,0.736301617,11.04191434,0,13.787866422,0C16.533818507,0,19.273664532,0.736301617,22.610328213,1.406899118C23.48743349,1.583181914,24.128766239,2.348004713,24.128766239,3.242650122C24.128766239,4.263410197,23.302380623,5.090923468,22.281635331,5.090923468C20.106894852,5.090923468,16.453947364,5.090923468,13.787866422,5.090923468C11.121785482,5.090923468,7.468837994,5.090923468,5.294097518,5.090923468C4.273342374,5.090923468,3.446966606,4.263415117,3.446966606,3.242650122Z" fill="#CECECE" />
		<path d="M31.386699133,4.121208046L49.381243613,4.121208046L50.142038382,12.213390571C50.219348923,13.030961807,49.780599313,13.807612623,49.013452277,14.100949481C47.32266591,14.747551173,44.119005902,15.75756163,40.603592387,15.75756163C37.045830426,15.75756163,33.80735605,14.723077706,32.133312102,14.077756315C31.398024883,13.794317177,30.9613927,13.062329201,30.998816904,12.275238994L31.386699133,4.121208046Z" fill="#B3B3B3" />
		<path d="M30.037851859,3.242650122C30.037851859,2.348004713,30.679184613,1.583181914,31.556289889,1.406899118C34.892953567,0.736301617,37.632799597,0,40.378751682,0C43.124703766,0,45.864549793,0.736301617,49.20121347,1.406899118C50.078515713,1.583181914,50.719651504,2.348004713,50.719651504,3.242650122C50.719651504,4.263410197,49.893364361,5.090923468,48.872520584,5.090923468C46.697780109,5.090923468,43.044832629,5.090923468,40.378751682,5.090923468C37.712670735,5.090923468,34.059723257,5.090923468,31.884982777,5.090923468C30.864237482,5.090923468,30.037851859,4.263415117,30.037851859,3.242650122Z" fill="#CECECE" />
		<path d="M22.779918971,63.340965954L4.785399118,63.340965954L4.024363053,55.248473203C3.947471076,54.431049696,4.386171441,53.654497366,5.153165825,53.361012779C6.843952189,52.714460323,10.047612197,51.704499113,13.563025712,51.704499113C17.120787674,51.704499113,20.35926205,52.739081513,22.033306001,53.384156691C22.768593224,53.667792803,23.205225408,54.39953457,23.167801194,55.186920233L22.779918971,63.340965954Z" fill="#B3B3B3" />
		<path d="M24.128766239,64.219450015C24.128766239,65.114184062,23.48743349,65.878918224,22.610328213,66.055205949C19.273664532,66.725887164,16.533818507,67.462060746,13.787866422,67.462060746C11.04191434,67.462060746,8.302068311,66.725887164,4.96540463,66.055205949C4.088279661,65.878918224,3.446966606,65.114184062,3.446966606,64.219450015C3.446966606,63.198655475,4.273342374,62.37138349,5.294097518,62.37138349C7.468837994,62.37138349,11.121785482,62.37138349,13.787866422,62.37138349C16.453947364,62.37138349,20.106894852,62.37138349,22.281635331,62.37138349C23.302380623,62.37138349,24.128766239,63.198655475,24.128766239,64.219450015Z" fill="#CECECE" />
		<path d="M49.370902708,63.340965954L31.376308991,63.340965954L30.615268009,55.248473203C30.538351412,54.431049696,30.977051779,53.654497366,31.744051084,53.361012779C33.434837453,52.714460323,36.638497459,51.704499113,40.153910975,51.704499113C43.711672937,51.704499113,46.950147307,52.739081513,48.624191267,53.384156691C49.35957696,53.667792803,49.796356879,54.39953457,49.758440243,55.186920233L49.370902708,63.340965954Z" fill="#B3B3B3" />
		<path d="M50.719651504,64.219450015C50.719651504,65.114184062,50.078515713,65.878918224,49.20121347,66.055205949C45.864549793,66.725887164,43.124703766,67.462060746,40.378751682,67.462060746C37.632799597,67.462060746,34.892953567,66.725887164,31.556289889,66.055205949C30.679184613,65.878918224,30.037851859,65.114184062,30.037851859,64.219450015C30.037851859,63.198655475,30.864237482,62.37138349,31.884982777,62.37138349C34.059723257,62.37138349,37.712670735,62.37138349,40.378751682,62.37138349C43.044832629,62.37138349,46.697780109,62.37138349,48.872520584,62.37138349C49.893364361,62.37138349,50.719651504,63.198655475,50.719651504,64.219450015Z" fill="#CECECE" />
		<path ="10" fill="#B3B3B3" d="M0,18.219680639L54.16661811,18.219680639L54.16661811,49.172012746L0,49.172012746Z" />
	</g>
</svg>
