<svg width="20" height="20" viewBox="0 0 20 20" fill="none" xmlns="http://www.w3.org/2000/svg">
<path d="M6.04514 6.80268C7.1154 6.80268 7.98301 5.95142 7.98301 4.90134C7.98301 3.85126 7.1154 3 6.04514 3C4.97489 3 4.10727 3.85126 4.10727 4.90134C4.10727 5.95142 4.97489 6.80268 6.04514 6.80268Z" fill="black"/>
<path d="M13.4127 6.80268C14.4829 6.80268 15.3506 5.95142 15.3506 4.90134C15.3506 3.85126 14.4829 3 13.4127 3C12.3424 3 11.4748 3.85126 11.4748 4.90134C11.4748 5.95142 12.3424 6.80268 13.4127 6.80268Z" fill="black"/>
<path d="M17.643 10.444H17.7455C17.9548 10.444 18.1401 10.5439 18.2603 10.6966C18.7066 10.9938 19 11.4965 19 12.0667V15.8H17.8072V12.0667C17.8072 11.8016 17.5888 11.5867 17.3193 11.5867H8.54974V12.3094C8.54974 12.7579 8.16583 13.1345 7.70878 13.1345H7.30658V18.0673C7.30658 18.5874 6.86782 19 6.35593 19H5.73435C5.20418 19 4.7837 18.5695 4.7837 18.0673V13.1166H4.3815C3.92445 13.1166 3.54054 12.7399 3.54054 12.2915V11.5867H2.68072C2.41123 11.5867 2.19277 11.8016 2.19277 12.0667V15.8H1V12.0667C1 11.1536 1.75249 10.4133 2.68072 10.4133H3.54054V9.24217C3.54054 8.20182 4.39978 7.34083 5.4784 7.34083H6.59359C7.65394 7.34083 8.53146 8.18388 8.53146 9.24217V10.4133H10.9264V9.24217C10.9264 8.20182 11.8039 7.34083 12.8642 7.34083H13.9794C15.0398 7.34083 15.9173 8.18388 15.9173 9.24217V10.4133H17.3193C17.43 10.4133 17.5382 10.4239 17.643 10.444Z" fill="black"/>
</svg>
