<svg width="48" height="48" viewBox="0 0 48 48" fill="none" xmlns="http://www.w3.org/2000/svg">
	<g fill="#c4c4c4">
		<path fill-rule="evenodd" clip-rule="evenodd" d="M24 48C37.2548 48 48 37.2548 48 24C48 10.7452 37.2548 0 24 0C10.7452 0 0 10.7452 0 24C0 37.2548 10.7452 48 24 48ZM17.2055 17.13C19.1795 17.13 20.7798 15.5339 20.7798 13.565C20.7798 11.5961 19.1795 10 17.2055 10C15.2315 10 13.6312 11.5961 13.6312 13.565C13.6312 15.5339 15.2315 17.13 17.2055 17.13ZM30.7945 17.13C32.7685 17.13 34.3688 15.5339 34.3688 13.565C34.3688 11.5961 32.7685 10 30.7945 10C28.8205 10 27.2202 11.5961 27.2202 13.565C27.2202 15.5339 28.8205 17.13 30.7945 17.13ZM38.7861 23.9574H38.597C38.4038 23.9197 38.2042 23.9 38 23.9H35.4141V21.7041C35.4141 19.7198 33.7956 18.1391 31.8398 18.1391H29.7829C27.8272 18.1391 26.2086 19.7534 26.2086 21.7041V23.9H21.7914V21.7041C21.7914 19.7198 20.1728 18.1391 18.2171 18.1391H16.1602C14.1707 18.1391 12.5859 19.7534 12.5859 21.7041V23.9H11C9.28792 23.9 7.9 25.2879 7.9 27V34H10.1V27C10.1 26.5029 10.5029 26.1 11 26.1H12.5859V27.4216C12.5859 28.2624 13.294 28.9686 14.137 28.9686H14.8788V38.2511C14.8788 39.1928 15.6544 40 16.6322 40H17.7787C18.7229 40 19.5321 39.2265 19.5321 38.2511V29.0023H20.274C21.117 29.0023 21.8251 28.296 21.8251 27.4552V26.1H38C38.4971 26.1 38.9 26.5029 38.9 27V34H41.1V27C41.1 25.931 40.5589 24.9884 39.7357 24.4311C39.5139 24.1447 39.1721 23.9574 38.7861 23.9574Z" />
	</g>
</svg>
