<svg width="20" height="20" viewBox="0 0 20 20" fill="none" xmlns="http://www.w3.org/2000/svg">
<path d="M12.0322 1.06682C12.0322 1.06682 12.0933 1.06682 12.2358 1.06682C12.8669 1.08909 14.3123 2.448 15.493 11.9381C15.5541 12.4059 15.208 12.8292 14.7601 12.8292H13.9865C13.6812 12.8292 13.4573 13.1188 13.498 13.453L13.9662 17.5965C14.0476 18.2648 13.5794 18.8663 12.9687 18.8663C12.3987 18.8663 11.9508 18.3762 11.9508 17.4629V1.15592C11.9712 1.08909 11.9915 1.06682 12.0322 1.06682Z" fill="black"/>
<path d="M9.20256 1.02228C8.93791 1.06683 8.7547 1.35644 8.7547 1.64604V5.85644C8.7547 6.07921 8.65291 6.30198 8.44933 6.41337C8.10326 6.56931 7.73683 6.30198 7.73683 5.90099V1.64604C7.73683 1.33416 7.53325 1.04455 7.22789 1C7.20753 1 7.18718 1 7.16682 1C7.14646 1 7.1261 1 7.10575 1C6.82074 1.02228 6.59681 1.31188 6.59681 1.64604V5.90099C6.59681 6.30198 6.21002 6.56931 5.8843 6.41337C5.70109 6.32426 5.57894 6.10149 5.57894 5.85644V1.64604C5.57894 1.35644 5.39573 1.06683 5.13108 1.02228C4.785 0.955446 4.5 1.24505 4.5 1.60149V5.72277C4.5 7.08168 4.785 8.26238 5.66037 8.57426L6.02681 8.70792C6.18966 8.77475 6.31181 8.90842 6.35252 9.08663V9.59901L5.96573 15.6139L5.84359 17.396C5.78252 18.2649 6.41359 19 7.18718 19C7.98111 19 8.59184 18.2649 8.53076 17.396L8.00147 9.59901V9.08663C8.04219 8.90842 8.16433 8.77475 8.32719 8.70792L8.69362 8.57426C9.56899 8.26238 9.854 7.01485 9.854 5.72277V1.60149C9.854 1.24505 9.54863 0.955446 9.20256 1.02228Z" fill="black"/>
</svg>
