<svg width="48" height="48" viewBox="0 0 48 48" fill="none" xmlns="http://www.w3.org/2000/svg">
<g clip-path="url(#clip0_2735_110)">
<path d="M24 0C37.2548 0 48 10.7452 48 24C48 37.2548 37.2548 48 24 48C10.7452 48 0 37.2548 0 24C0 10.7452 10.7452 0 24 0ZM18.9746 8C18.4305 8.0396 18.003 8.55441 18.0029 9.14844V16.7129C18.0029 17.4258 17.2644 17.9012 16.6426 17.624C16.2929 17.4656 16.0596 17.0694 16.0596 16.6338V9.14844C16.0595 8.63373 15.7101 8.11943 15.2051 8.04004C14.5444 7.92123 14 8.43567 14 9.06934V16.3965C14.0001 18.812 14.544 20.9113 16.2148 21.4658L16.915 21.7031C17.2258 21.822 17.4594 22.0593 17.5371 22.376V23.2871L16.7979 33.9805L16.5654 37.1484C16.4488 38.6929 17.6531 39.9999 19.1299 40C20.6456 40 21.8119 38.693 21.6953 37.1484L20.6846 23.2871V22.376C20.7624 22.0593 20.9958 21.8219 21.3066 21.7031L22.0059 21.4658C23.6769 20.9114 24.2216 18.6934 24.2217 16.3965V9.06934C24.2217 8.43567 23.6382 7.92123 22.9775 8.04004C22.4724 8.11931 22.1231 8.63366 22.123 9.14844V16.6338C22.123 17.0297 21.9285 17.426 21.54 17.624C20.8794 17.9012 20.1797 17.4258 20.1797 16.7129V9.14844C20.1797 8.59408 19.7908 8.0793 19.208 8H18.9746ZM33.4561 8.11914C32.2513 8.15874 29.4914 10.5742 27.2373 27.4453C27.1207 28.277 27.7817 29.0293 28.6367 29.0293H30.1133C30.6962 29.0293 31.1236 29.5446 31.0459 30.1387L30.1523 37.5049C29.9969 38.6929 30.8908 39.7626 32.0566 39.7627C33.1448 39.7627 33.9999 38.8912 34 37.2676V8.27734C33.9612 8.15863 33.9223 8.1192 33.8447 8.11914H33.4561Z" fill="#C4C4C4"/>
</g>
<defs>
<clipPath id="clip0_2735_110">
<rect width="48" height="48" fill="white"/>
</clipPath>
</defs>
</svg>
