<svg width="48" height="48" viewBox="0 0 48 48" fill="none" xmlns="http://www.w3.org/2000/svg">
<g clip-path="url(#clip0_5884_3353)">
<path fill-rule="evenodd" clip-rule="evenodd" d="M24 48C37.2548 48 48 37.2548 48 24C48 10.7452 37.2548 0 24 0C10.7452 0 0 10.7452 0 24C0 37.2548 10.7452 48 24 48ZM22.1226 9.14851C22.1226 8.63366 22.4724 8.11881 22.9776 8.0396C23.6383 7.92079 24.2213 8.43564 24.2213 9.06931V16.396C24.2213 18.6931 23.6772 20.9109 22.006 21.4653L21.3065 21.703C20.9955 21.8218 20.7624 22.0594 20.6846 22.3762V23.2871L21.6951 37.1485C21.8117 38.6931 20.6458 40 19.1301 40C17.6532 40 16.4484 38.6931 16.565 37.1485L16.7982 33.9802L17.5366 23.2871V22.3762C17.4589 22.0594 17.2257 21.8218 16.9148 21.703L16.2153 21.4653C14.5441 20.9109 14 18.8119 14 16.396V9.06931C14 8.43564 14.5441 7.92079 15.2048 8.0396C15.71 8.11881 16.0598 8.63366 16.0598 9.14851V16.6337C16.0598 17.0693 16.293 17.4653 16.6428 17.6238C17.2646 17.901 18.003 17.4257 18.003 16.7129V9.14851C18.003 8.55446 18.4305 8.0396 18.9746 8H19.0912H19.2078C19.7908 8.07921 20.1794 8.59406 20.1794 9.14851V16.7129C20.1794 17.4257 20.8789 17.901 21.5396 17.6238C21.9283 17.4257 22.1226 17.0297 22.1226 16.6337V9.14851ZM28.7684 8.11878H28.3797C28.302 8.11878 28.2631 8.15839 28.2243 8.2772V37.2673C28.2243 38.8911 29.0793 39.7624 30.1675 39.7624C31.3334 39.7624 32.2273 38.693 32.0718 37.5049L31.1779 30.1386C31.1002 29.5445 31.5277 29.0297 32.1107 29.0297H33.5875C34.4425 29.0297 35.1032 28.2772 34.9866 27.4455C32.7325 10.5742 29.9732 8.15839 28.7684 8.11878Z" fill="black"/>
</g>
<defs>
<clipPath id="clip0_5884_3353">
<rect width="48" height="48" fill="white"/>
</clipPath>
</defs>
</svg>
