<svg xmlns="http://www.w3.org/2000/svg" version="1.1" viewBox="0 0 75.83326503699982 75.83326536100003" x="0" y="0" width="48" height="48">
	<g>
		<path fill="#B3B3B3" d="M18.219680306,37.916632685C18.219680306,48.794958915,27.038306119,57.613584725,37.916632355,57.613584725C48.794958585,57.613584725,57.613584397,48.794958915,57.613584397,37.916632685C57.613584397,27.038306452,48.794958585,18.21968064,37.916632355,18.21968064C27.038306119,18.21968064,18.219680306,27.038306452,18.219680306,37.916632685" />
		<path d="M28.924579807,4.121222824L46.919075038,4.121222824L47.680116028,12.213390565C47.75703263,13.03101105,47.318332261,13.807661864,46.551332946,14.100949483C44.860546581,14.747551184,41.65688658,15.757561638,38.141473058,15.757561638C34.583711096,15.757561638,31.345236726,14.723077723,29.671192775,14.077756326C28.935905555,13.794317189,28.499273371,13.062329203,28.536697583,12.275239001L28.924579807,4.121222824Z" fill="#B3B3B3" />
		<path d="M27.575732527,3.242650123C27.575732527,2.34800472,28.217065287,1.583181916,29.094170563,1.406899119C32.430834233,0.736301612,35.17068027,0,37.916632355,0C40.662584434,0,43.402430465,0.736301612,46.739094142,1.406899119C47.616199416,1.583181916,48.257532173,2.34800472,48.257532173,3.242650123C48.257532173,4.263410197,47.431146553,5.090923471,46.410401258,5.090923471C44.235660779,5.090923471,40.582713295,5.090923471,37.916632355,5.090923471C35.250551414,5.090923471,31.597603922,5.090923471,29.422863456,5.090923471C28.402118156,5.090923471,27.575732527,4.263415117,27.575732527,3.242650123Z" fill="#CECECE" />
		<path d="M46.908684907,71.712170574L28.914189665,71.712170574L28.153148681,63.619677828C28.076232082,62.802254319,28.514932451,62.025701981,29.281931759,61.732217398C30.972718127,61.085664948,34.176378134,60.075703733,37.691791647,60.075703733C41.249553612,60.075703733,44.488027978,61.110286138,46.16207193,61.755361313C46.897359159,62.038997427,47.333991335,62.770739193,47.296567129,63.558124857L46.908684907,71.712170574Z" fill="#B3B3B3" />
		<path d="M48.257532173,72.590654635C48.257532173,73.485388682,47.616199416,74.250122855,46.739094142,74.426410563C43.402430465,75.097091786,40.662584434,75.833265361,37.916632355,75.833265361C35.17068027,75.833265361,32.430834233,75.097091786,29.094170563,74.426410563C28.217065287,74.250122855,27.575732527,73.485388682,27.575732527,72.590654635C27.575732527,71.569860094,28.402118156,70.742588113,29.422863456,70.742588113C31.597603922,70.742588113,35.250551414,70.742588113,37.916632355,70.742588113C40.582713295,70.742588113,44.235660779,70.742588113,46.410401258,70.742588113C47.431146553,70.742588113,48.257532173,71.569860094,48.257532173,72.590654635Z" fill="#CECECE" />
		<path d="M71.712170247,28.924580134L71.712170247,46.919075372L63.619677498,47.68011636C62.802253989,47.75703296,62.025701653,47.318332589,61.732217068,46.551333278C61.085664617,44.860546917,60.0757034,41.656886903,60.0757034,38.141473391C60.0757034,34.583711429,61.110285805,31.345237057,61.755360988,29.671193105C62.038997096,28.935905889,62.770738862,28.499273698,63.55812453,28.536697908L71.712170247,28.924580134Z" fill="#B3B3B3" />
		<path d="M72.590654303,27.575732859C73.48538835,27.575732859,74.250122519,28.217065619,74.426410235,29.094170893C75.097091453,32.430834568,75.833265037,35.170680598,75.833265037,37.916632685C75.833265037,40.662584769,75.097091453,43.402430793,74.426410235,46.739094476C74.250122519,47.616199747,73.48538835,48.257532502,72.590654303,48.257532502C71.569859765,48.257532502,70.742587782,47.431146878,70.742587782,46.410401587C70.742587782,44.235661111,70.742587782,40.582713626,70.742587782,37.916632685C70.742587782,35.25055174,70.742587782,31.597604259,70.742587782,29.422863782C70.742587782,28.402118482,71.569859765,27.575732859,72.590654303,27.575732859Z" fill="#CECECE" />
		<path d="M4.121163402,46.908685233L4.121163402,28.914189995L12.213341,28.153149015C13.030961478,28.076232411,13.807563052,28.514932775,14.100899915,29.281932092C14.747501608,30.972718457,15.757512064,34.176378462,15.757512064,37.691791974C15.757512064,41.249553943,14.72302814,44.488028311,14.077706754,46.162072261C13.794267606,46.897359481,13.062279633,47.333991661,12.275189426,47.296567459L4.121163402,46.908685233Z" fill="#B3B3B3" />
		<path d="M3.242649798,48.257532502C2.348004383,48.257532502,1.583181589,47.616199747,1.406898789,46.739094476C0.736301282,43.402430793,0,40.662584769,1.23e-7,37.916632685C2.46e-7,35.170680598,0.736301282,32.430834568,1.406903712,29.094170893C1.583181589,28.217065619,2.348004383,27.575732859,3.242649798,27.575732859C4.263414787,27.575732859,5.090923143,28.402118482,5.090923143,29.422863782C5.090923143,31.597604259,5.090923143,35.25055174,5.090923143,37.916632685C5.090923143,40.582713626,5.090923143,44.235661111,5.090923143,46.410401587C5.090923143,47.431146878,4.263414787,48.257532502,3.242649798,48.257532502Z" fill="#CECECE" />
	</g>
</svg>
