<svg xmlns="http://www.w3.org/2000/svg" version="1.1" viewBox="0 0 65.98478933800016 29.54542806099994" x="0" y="0" width="48" height="48">
	<g>
		<path d="M32.992394666,1e-9C24.833649989,1e-9,18.219680637,6.613969362,18.219680636,14.772714035C18.219680637,22.931458708,24.833649989,29.545428061,32.992394667,29.545428061C41.151139341,29.54542806,47.7651087,22.931458708,47.765108702,14.772714035C47.7651087,6.613969361,41.151139343,0,32.992394666,1e-9" fill="rgb(179, 179, 179)" />
		<path d="M61.863566515,5.780661485L61.863566515,23.775156723L53.771398771,24.536197702C52.953778291,24.613114302,52.177127475,24.174413938,51.883839852,23.407414625C51.237238163,21.716628263,50.227227704,18.512968253,50.227227705,14.997554744C50.227227704,11.439792778,51.261711626,8.201318408,51.907033016,6.527274458C52.190472153,5.791987228,52.922460138,5.35535505,53.70955034,5.392779257L61.863566515,5.780661485Z" fill="rgb(179, 179, 179)" />
		<path d="M62.742139213,4.431814213C63.636784626,4.431814213,64.401607424,5.073146966,64.577890221,5.95025224C65.248487724,9.286915922,65.984789337,12.026761946,65.984789338,14.772714036C65.984789338,17.518666114,65.248487725,20.258512146,64.57789022,23.595175826C64.401607424,24.472281098,63.636784625,25.113613856,62.742139213,25.113613856C61.721379144,25.113613856,60.893865867,24.287228228,60.893865866,23.266482933C60.893865867,21.09174246,60.893865868,17.438794975,60.893865868,14.772714035C60.893865868,12.106633089,60.893865868,8.453685601,60.893865868,6.278945131C60.893865867,5.258199834,61.721374219,4.431814214,62.742139213,4.431814213Z" fill="rgb(206, 206, 206)" />
		<path d="M4.121094788,23.764766576L4.121094787,5.77027134L12.213587534,5.009230363C13.031011043,4.932313763,13.807563381,5.371014127,14.101047964,6.138013438C14.747600414,7.828799797,15.757561629,11.032459814,15.757561628,14.547873325C15.757561628,18.105635285,14.722979224,21.344109655,14.077904048,23.018153609C13.794267934,23.753440835,13.062526168,24.19007302,12.275140505,24.152648805L4.121094788,23.764766576Z" fill="rgb(179, 179, 179)" />
		<path d="M3.242610727,25.113613855C2.34787668,25.113613855,1.583142507,24.472281099,1.406854798,23.595175825C0.736173575,20.258512146,0,17.518666114,1e-9,14.772714035C1e-9,12.026761946,0.736173576,9.286915922,1.406854799,5.950252239C1.583142507,5.073146966,2.347876679,4.431814213,3.242610727,4.431814214C4.263405268,4.431814212,5.090677249,5.258199835,5.090677248,6.278945132C5.090677248,8.4536856,5.090677249,12.106633089,5.090677248,14.772714035C5.090677248,17.438794976,5.090677248,21.091742459,5.090677248,23.266482934C5.090677249,24.28722823,4.263405267,25.113613855,3.242610727,25.113613855Z" fill="rgb(206, 206, 206)" />
	</g>
</svg>
