<svg xmlns="http://www.w3.org/2000/svg" version="1.1" viewBox="0 0 81.16004998200015 85.68174138199993" x="0" y="0" width="48" height="48">
	<g>
		<path fill="#B3B3B3" d="M15.958805398,42.840870694C15.958805398,56.438778482,26.982087656,67.462060747,40.579995444,67.462060747C54.177903234,67.462060747,65.2011855,56.438778482,65.2011855,42.840870694C65.2011855,29.242962902,54.177903234,18.21968064,40.579995444,18.21968064C26.982087656,18.21968064,15.958805398,29.242962902,15.958805398,42.840870694" />
		<path d="M31.587992142,4.121222824L49.582388895,4.121222824L50.343676085,12.213390565C50.420494198,13.03101105,49.981744595,13.807661864,49.214548311,14.100949483C47.523958921,14.747551184,44.32029891,15.757561638,40.804836152,15.757561638C37.247074185,15.757561638,34.008599818,14.723077723,32.334555868,14.077756326C31.599317886,13.794317189,31.162636461,13.062329203,31.20006067,12.275239001L31.587992142,4.121222824Z" fill="#B3B3B3" />
		<path d="M30.239095628,3.242650123C30.239095628,2.34800472,30.880428383,1.583181916,31.757533657,1.406899119C35.094197333,0.736301612,37.834043363,0,40.579995444,0C43.325996769,0,46.065793562,0.736301612,49.402654206,1.406899119C50.279660997,1.583181916,50.920796784,2.34800472,50.920796784,3.242650123C50.920796784,4.263410197,50.094509647,5.090923471,49.073715106,5.090923471C46.899023875,5.090923471,43.246125628,5.090923471,40.579995444,5.090923471C37.913914502,5.090923471,34.26101626,5.090923471,32.086275788,5.090923471C31.065481247,5.090923471,30.239095628,4.263415117,30.239095628,3.242650123Z" fill="#CECECE" />
		<path d="M49.572047994,81.560646597L31.577552764,81.560646597L30.816511768,73.468153849C30.739595173,72.650730338,31.178295538,71.874178014,31.945344095,71.580693415C33.636081213,70.934140963,36.839741221,69.924179753,40.355154731,69.924179753C43.912965937,69.924179753,47.151440314,70.958762156,48.825533508,71.603837334C49.560722247,71.887473449,49.997502156,72.619215211,49.960077944,73.406600871L49.572047994,81.560646597Z" fill="#B3B3B3" />
		<path d="M50.920796784,82.439130657C50.920796784,83.333864703,50.279660997,84.098598863,49.402654206,84.274886587C46.065793562,84.945567807,43.325996769,85.681741382,40.579995444,85.681741382C37.834043363,85.681741382,35.094197333,84.945567807,31.757533657,84.274886587C30.880428383,84.098598863,30.239095628,83.333864703,30.239095628,82.439130657C30.239095628,81.418336117,31.065481247,80.591064129,32.086275788,80.591064129C34.26101626,80.591064129,37.913914502,80.591064129,40.579995444,80.591064129C43.246125628,80.591064129,46.899023875,80.591064129,49.073715106,80.591064129C50.094509647,80.591064129,50.920796784,81.418336117,50.920796784,82.439130657Z" fill="#CECECE" />
		<path d="M69.616158811,15.693694272L78.613234083,31.277381061L71.985702142,35.982588965C71.316498197,36.457974897,70.424226272,36.466346105,69.787029869,35.948759446C68.38165234,34.8078135,65.904760629,32.538379925,64.147300076,29.493920542C62.368172886,26.412824812,61.644802323,23.090983092,61.367075297,21.318552867C61.244461771,20.540080079,61.660067457,19.795929228,62.360786533,19.434785611L69.616158811,15.693694272Z" fill="#B3B3B3" />
		<path d="M69.702825401,14.086275257C70.477408044,13.638957478,71.460285954,13.811945952,72.051686939,14.483415047C74.300586431,17.037765033,76.308198272,19.042373085,77.681075826,21.420435354C79.054445809,23.798497607,79.786680004,26.539426972,80.873951755,29.764359687C81.160049982,30.612116508,80.818307863,31.549937636,80.043725219,31.997255409C79.15933208,32.507652679,78.029711876,32.20569841,77.519560819,31.321699202C76.431796643,29.438325888,74.605396768,26.274798425,73.272405535,23.965872455C71.939414302,21.65699574,70.113014433,18.493468277,69.025742679,16.610094968C68.515099192,15.726095753,68.818432262,14.596672526,69.702825401,14.086275257Z" fill="#CECECE" />
		<path d="M11.543832079,69.988194849L2.546594312,54.404458813L9.174141016,49.699349398C9.843738905,49.223766487,10.735666139,49.215395286,11.373207231,49.732834212C12.778535521,50.873780163,15.255082541,53.143361459,17.012789296,56.188017824C18.791670274,59.269113544,19.514991595,62.591004507,19.793161799,64.363237766C19.915332151,65.141759795,19.499726466,65.885812161,18.799401332,66.246758808L11.543832079,69.988194849Z" fill="#B3B3B3" />
		<path d="M11.457362447,71.595466131C10.682582843,72.042586943,9.699606456,71.869746188,9.108353201,71.19857255C6.859256725,68.643877867,4.851694137,66.639220573,3.478718093,64.261306045C2.105737127,61.88339151,1.373473389,59.142068214,0.285891412,55.917184734C0,55.06972337,0.341702721,54.131656033,1.116487261,53.684535219C2.000491388,53.173891733,3.130308557,53.476239944,3.640676281,54.360140673C4.728046517,56.24366171,6.554544887,59.406992211,7.887585355,61.71596741C9.220625826,64.024942616,11.047074952,67.188273112,12.134445184,69.071794151C12.644842452,69.95569487,12.341410902,71.085315078,11.457362447,71.595466131Z" fill="#CECECE" />
		<path d="M78.608309848,54.413322438L69.610742147,69.997058472L62.22241544,66.610167572C61.475900952,66.267933028,61.022871062,65.499751899,61.152378518,64.688729897C61.437491908,62.901231504,62.164801855,59.621688986,63.922262399,56.577032626C65.701389597,53.495936904,68.216197943,51.208628348,69.612219422,50.081470264C70.225287052,49.586584344,71.077672652,49.574273748,71.740475088,50.000220342L78.608309848,54.413322438Z" fill="#B3B3B3" />
		<path d="M80.043725219,53.684535219C80.818307863,54.131656033,81.160049982,55.06972337,80.873951755,55.917184734C79.786680004,59.14256063,79.054445809,61.88339151,77.681075826,64.261306045C76.308198272,66.639220573,74.300586431,68.643877867,72.051686939,71.19857255C71.460285954,71.869746188,70.477408044,72.042586943,69.702825401,71.595466131C68.818432262,71.085315078,68.515099192,69.95569487,69.025742679,69.071794151C70.113014433,67.188273112,71.939414302,64.024942616,73.272405535,61.71596741C74.605396768,59.406992211,76.431796643,56.24366171,77.519560819,54.360140673C78.029711876,53.476239944,79.15933208,53.173891733,80.043725219,53.684535219Z" fill="#CECECE" />
		<path d="M2.551804154,31.268418943L11.549051768,15.684682912L18.937624695,19.071721547C19.684139173,19.413906843,20.137366045,20.182137216,20.007858585,20.993060729C19.722449752,22.780608376,18.995336756,26.060052405,17.237630001,29.104511786C15.458749019,32.185656757,12.943595973,34.472965312,11.547722226,35.600074154C10.93460535,36.095107803,10.082367473,36.107319916,9.419466556,35.681324078L2.551804154,31.268418943Z" fill="#B3B3B3" />
		<path d="M1.116487261,31.997255409C0.341697795,31.549937636,0,30.612116508,0.285891412,29.764359687C1.373473389,26.539426972,2.105737127,23.798497607,3.478718093,21.420435354C4.851694137,19.042373085,6.859256725,17.037765033,9.108353201,14.483365808C9.699606456,13.811945952,10.682582843,13.638957478,11.457362447,14.086275257C12.341410902,14.596672526,12.644842452,15.726046513,12.134445184,16.610045721C11.047074952,18.493468277,9.220625826,21.65699574,7.887585355,23.965872455C6.554544887,26.274798425,4.728046517,29.438325888,3.640676281,31.321699202C3.130308557,32.20569841,2.000491388,32.50760344,1.116487261,31.997255409Z" fill="#CECECE" />
	</g>
</svg>
