<svg width="48" height="48" viewBox="0 0 48 48" fill="none" xmlns="http://www.w3.org/2000/svg">
<g clip-path="url(#clip0_5884_3377)">
<path fill-rule="evenodd" clip-rule="evenodd" d="M24 48C37.2548 48 48 37.2548 48 24C48 10.7452 37.2548 0 24 0C10.7452 0 0 10.7452 0 24C0 37.2548 10.7452 48 24 48ZM32.0134 16.5633C32.375 16.9374 32.7961 17.1258 33.2769 17.1258C33.7792 17.1258 34.2058 16.9374 34.5565 16.5633C34.9073 16.1879 35.0833 15.7506 35.0833 15.25C35.0833 14.8253 34.9113 14.3444 34.566 13.8072C34.222 13.2701 33.9255 12.851 33.675 12.5501C33.5545 12.4249 33.4217 12.3631 33.2769 12.3631C33.1333 12.3631 33.0006 12.4249 32.8801 12.5501C32.6391 12.851 32.3438 13.2729 31.9958 13.8156C31.6465 14.3598 31.4718 14.838 31.4718 15.25C31.4718 15.7506 31.6519 16.1879 32.0134 16.5633ZM34.956 26.6317C35.5939 27.294 36.359 27.6245 37.25 27.6245C38.16 27.6245 38.9291 27.294 39.5575 26.6317C40.1858 25.9694 40.5 25.1749 40.5 24.2496C40.5 23.4494 40.1872 22.5129 39.5602 21.4372C38.9346 20.3629 38.3807 19.5121 37.9 18.8878C37.7307 18.6881 37.5154 18.5883 37.25 18.5883C36.9859 18.5883 36.7693 18.6881 36.6 18.8878C36.1179 19.5121 35.5641 20.3629 34.9384 21.4372C34.3128 22.5129 34 23.4494 34 24.2496C34 25.1749 34.3182 25.9694 34.956 26.6317ZM21.7218 30.9993V29.1249H19.9167C19.6092 29.1249 19.352 29.018 19.1448 28.8057C18.9362 28.5933 18.8333 28.3275 18.8333 28.0069C18.8333 27.6863 18.9362 27.4177 19.1448 27.1998C19.352 26.9832 19.6093 26.8749 19.9167 26.8749H21.7218V25.0005C21.7218 24.6813 21.8247 24.4141 22.0292 24.199C22.2337 23.9824 22.4896 23.8755 22.7983 23.8755C23.1071 23.8755 23.3657 23.9824 23.5756 24.199C23.7842 24.4141 23.8884 24.6813 23.8884 25.0005V26.8749H25.6935C26.001 26.8749 26.2582 26.9818 26.4654 27.1942C26.674 27.4065 26.7769 27.6723 26.7769 27.9929C26.7769 28.3135 26.674 28.5821 26.4654 28.8001C26.2582 29.0166 26.0009 29.1249 25.6935 29.1249H23.8884V30.9993C23.8884 31.3186 23.7855 31.5857 23.5811 31.8009C23.3766 32.0174 23.1206 32.1243 22.8119 32.1243C22.5031 32.1243 22.2445 32.0174 22.0346 31.8009C21.826 31.5857 21.7218 31.3185 21.7218 30.9993ZM15.15 37.825C15.5833 38.275 16.0884 38.5 16.6667 38.5L28.9438 38.5C29.5221 38.5 30.0271 38.275 30.4605 37.825C30.8938 37.375 31.1105 36.8491 31.1105 36.2501V23.1246C31.1105 20.9744 30.4253 19.0971 29.0521 17.4926C27.6804 15.8882 25.9591 14.9151 23.8885 14.5748V10.7499H27.1385C27.5231 10.7499 27.8847 10.8006 28.2219 10.9004C28.5591 11.0002 28.8963 11.138 29.2335 11.3124C29.5463 11.4122 29.7386 11.4629 29.8103 11.4629C30.1205 11.4629 30.3845 11.356 30.6025 11.1437C30.8206 10.9313 30.9303 10.6655 30.9303 10.3435C30.9303 10.1171 30.8761 9.91602 30.7677 9.74025C30.6594 9.56309 30.5091 9.42528 30.3168 9.32544C30.0514 9.12575 29.6303 8.93733 29.052 8.76296C28.4752 8.58859 27.8373 8.5 27.1386 8.5H19.5553C19.2478 8.5 18.9906 8.60687 18.7834 8.81921C18.5762 9.03156 18.4719 9.29874 18.4719 9.61935C18.4719 9.93995 18.5762 10.2086 18.7834 10.4251C18.9906 10.6417 19.2479 10.7499 19.5553 10.7499H21.7219V14.5748C19.6513 14.9151 17.9301 15.8882 16.5583 17.4927C15.1852 19.0971 14.5 20.9745 14.5 23.1246V36.2501C14.5 36.8491 14.7167 37.375 15.15 37.825Z" fill="black"/>
</g>
<defs>
<clipPath id="clip0_5884_3377">
<rect width="48" height="48" fill="white"/>
</clipPath>
</defs>
</svg>
