<svg width="20" height="20" viewBox="0 0 20 20" fill="none" xmlns="http://www.w3.org/2000/svg">
<path d="M15.1106 6.60044C14.8518 6.60044 14.625 6.49994 14.4303 6.30045C14.2356 6.1002 14.1386 5.86697 14.1386 5.59999C14.1386 5.38025 14.2327 5.12525 14.4208 4.83501C14.6082 4.54553 14.7672 4.32053 14.897 4.16004C14.9619 4.09329 15.0333 4.0603 15.1106 4.0603C15.1886 4.0603 15.2601 4.0933 15.325 4.16004C15.4599 4.32054 15.6196 4.54403 15.8048 4.83052C15.9907 5.11701 16.0833 5.37349 16.0833 5.59999C16.0833 5.86697 15.9885 6.10022 15.7997 6.30045C15.6108 6.49995 15.3811 6.60044 15.1106 6.60044ZM17.25 12.1997C16.7702 12.1997 16.3582 12.0235 16.0148 11.6702C15.6714 11.317 15.5 10.8933 15.5 10.3998C15.5 9.97304 15.6684 9.47357 16.0053 8.89984C16.3422 8.32686 16.6404 7.87312 16.9 7.54015C16.9911 7.43365 17.1078 7.38041 17.25 7.38041C17.3929 7.38041 17.5089 7.43365 17.6 7.54015C17.8589 7.87314 18.1571 8.32688 18.494 8.89984C18.8316 9.47357 19 9.97304 19 10.3998C19 10.8933 18.8308 11.317 18.4925 11.6702C18.1542 12.0235 17.74 12.1997 17.25 12.1997ZM8.88864 12.9999V13.9996C8.88864 14.1699 8.94479 14.3124 9.05708 14.4271C9.1701 14.5426 9.30938 14.5996 9.47562 14.5996C9.64187 14.5996 9.77968 14.5426 9.8898 14.4271C9.9999 14.3124 10.0553 14.1699 10.0553 13.9996V12.9999H11.0273C11.1928 12.9999 11.3314 12.9422 11.4429 12.8267C11.5552 12.7104 11.6106 12.5672 11.6106 12.3962C11.6106 12.2252 11.5552 12.0835 11.4429 11.9702C11.3314 11.857 11.1928 11.8 11.0273 11.8H10.0553V10.8003C10.0553 10.63 9.99917 10.4875 9.88688 10.3728C9.77386 10.2573 9.63458 10.2003 9.46834 10.2003C9.30209 10.2003 9.16428 10.2573 9.05416 10.3728C8.94406 10.4875 8.88864 10.63 8.88864 10.8003V11.8H7.91667C7.75115 11.8 7.61261 11.8577 7.50103 11.9732C7.38874 12.0895 7.33333 12.2327 7.33333 12.4037C7.33333 12.5747 7.38874 12.7164 7.50103 12.8297C7.6126 12.9429 7.75113 12.9999 7.91667 12.9999H8.88864ZM6.16667 18C5.85531 18 5.58333 17.88 5.35 17.64C5.11667 17.4 5 17.1195 5 16.8V9.79981C5 8.65309 5.36897 7.65179 6.10833 6.79608C6.84697 5.94037 7.77375 5.42138 8.88873 5.23989V3.19997H7.72207C7.55655 3.19997 7.41801 3.14222 7.30643 3.02672C7.19487 2.91123 7.13873 2.76797 7.13873 2.59699C7.13873 2.426 7.19487 2.2835 7.30643 2.17024C7.418 2.057 7.55653 2 7.72207 2H11.8054C12.1816 2 12.5251 2.04725 12.8357 2.14024C13.1471 2.23324 13.3738 2.33373 13.5167 2.44023C13.6203 2.49348 13.7012 2.56698 13.7596 2.66147C13.8179 2.75521 13.8471 2.86246 13.8471 2.98321C13.8471 3.15495 13.788 3.29669 13.6706 3.40995C13.5532 3.52319 13.411 3.58019 13.244 3.58019C13.2054 3.58019 13.1018 3.5532 12.9334 3.49995C12.7518 3.40695 12.5703 3.33345 12.3887 3.28021C12.2071 3.22697 12.0125 3.19996 11.8054 3.19996H10.0554V5.23988C11.1703 5.42138 12.0971 5.94035 12.8358 6.79608C13.5751 7.65179 13.9441 8.65301 13.9441 9.7998V16.8C13.9441 17.1195 13.8274 17.4 13.5941 17.64C13.3608 17.88 13.0888 18 12.7774 18L6.16667 18Z" fill="black"/>
</svg>
