<svg width="20" height="20" viewBox="0 0 20 20" fill="none" xmlns="http://www.w3.org/2000/svg">
<path d="M6.88125 6.16105C6.76194 6.64954 6.5233 7.60301 6.40399 8.07457C6.18251 8.79885 6.38686 9.28733 6.59121 9.57327C6.72765 9.75826 6.88125 9.89308 7.05132 10.011L5.99466 14.3729C5.87535 14.8275 6.18187 15.2991 6.64262 15.4169C6.71052 15.4339 6.77907 15.4339 6.84696 15.4339C7.23917 15.4339 7.61425 15.1642 7.69929 14.7604L8.73882 10.4825C8.87527 10.4995 8.99458 10.4995 9.1139 10.5164C9.93195 10.5835 9.94908 10.7352 9.96622 11.0049V11.0388C10.0005 11.3254 10.2049 12.3388 10.2563 12.7602C10.3242 13.1809 10.6821 13.5014 11.1086 13.5014C11.16 13.5014 11.1936 13.5014 11.245 13.4845C11.7223 13.4174 12.0631 12.979 11.9952 12.5075C11.8416 11.6314 11.688 10.786 11.688 10.786C11.5858 9.99468 11.2108 8.93373 9.21667 8.79884H9.13163L9.49688 6.5779C9.63332 6.71272 9.8475 7.19924 9.96681 7.3002C10.0861 7.40116 10.2054 7.51905 10.3247 7.62001C10.4098 7.70403 10.512 7.77177 10.6148 7.80499C11.3307 8.02384 11.9272 8.09158 12.6774 8.0577C13.1032 8.02383 13.4447 7.67016 13.4104 7.23247C13.3762 6.828 13.0182 6.50819 12.5924 6.52513C12.0809 6.559 11.7058 6.52513 11.2457 6.39031C11.1606 6.30628 11.075 6.23855 10.9899 6.17146C10.5127 5.75071 10.2062 5.41331 9.88184 4.99256C9.81395 4.90854 9.72825 4.82387 9.66036 4.75677C9.38746 4.48712 8.79091 4.0833 7.92139 4.25135C7.3077 4.36924 6.72828 4.58808 6.40461 4.82387C6.37034 4.8408 6.33672 4.85774 6.30244 4.87467C6.18313 4.94176 5.19436 5.61588 4.73425 6.1884C4.73425 6.2392 3.66044 7.58614 3.9841 8.29349C4.13703 8.57941 4.3928 8.74812 4.69932 8.74812C5.09153 8.74812 5.43233 8.46153 5.48308 8.07464C5.53449 7.92288 5.72171 7.51906 5.97746 7.19861C6.20625 6.82801 6.55693 6.39683 6.88125 6.16105Z" fill="black"/>
<path d="M9.91875 1.11848C10.719 1.44609 11.0993 2.35208 10.7678 3.14286C10.4362 3.93358 9.51863 4.30939 8.71897 3.98176C7.91872 3.65415 7.53838 2.74751 7.86996 1.95671C8.20152 1.166 9.11909 0.790851 9.91875 1.11848Z" fill="black"/>
<path d="M15.9056 11.8302H12.8212C12.4909 11.8302 12.2268 12.0881 12.2268 12.4105V13.829H9.75C9.41977 13.829 9.15558 14.0869 9.15558 14.4093V15.8342H6.67221C6.34198 15.8342 6.07779 16.0921 6.07779 16.4145V17.8394H3.59442C3.26419 17.8394 3 18.0973 3 18.4197C3 18.7421 3.26419 19 3.59442 19H6.67221C7.00245 19 7.26663 18.7421 7.26663 18.4197V16.9948H9.75C10.0802 16.9948 10.3444 16.7369 10.3444 16.4145V14.9896H12.8212C13.1514 14.9896 13.4156 14.7316 13.4156 14.4093V12.9908H15.9056C16.2358 12.9908 16.5 12.7329 16.5 12.4105C16.5 12.0881 16.2358 11.8302 15.9056 11.8302Z" fill="black"/>
</svg>
