<svg width="48" height="48" viewBox="0 0 48 48" fill="none" xmlns="http://www.w3.org/2000/svg">
<g clip-path="url(#clip0_5884_3431)">
<path fill-rule="evenodd" clip-rule="evenodd" d="M24 48C37.2548 48 48 37.2548 48 24C48 10.7452 37.2548 0 24 0C10.7452 0 0 10.7452 0 24C0 37.2548 10.7452 48 24 48ZM25.8375 6.23696C27.438 6.89218 28.1987 8.70417 27.5355 10.2857C26.8724 11.8672 25.0373 12.6188 23.4379 11.9635C21.8375 11.3083 21.0768 9.49501 21.7399 7.91342C22.403 6.332 24.2382 5.5817 25.8375 6.23696ZM19.7625 16.3221C19.5239 17.2991 19.0466 19.206 18.808 20.1491C18.365 21.5977 18.7737 22.5747 19.1824 23.1465C19.4553 23.5165 19.7625 23.7862 20.1026 24.0219L17.9893 32.7457C17.7507 33.655 18.3637 34.5981 19.2852 34.8339C19.421 34.8678 19.5581 34.8678 19.6939 34.8678C20.4783 34.8678 21.2285 34.3285 21.3986 33.5208L23.4776 24.9651C23.6092 24.9814 23.7327 24.9898 23.8522 24.998L23.8523 24.998C23.9806 25.0068 24.1042 25.0153 24.2278 25.0328C25.8639 25.167 25.8982 25.4705 25.9324 26.0098V26.0775C25.9638 26.3393 26.066 26.9043 26.1777 27.5213L26.1778 27.5217L26.1779 27.5222L26.1779 27.5223L26.1779 27.5223L26.1779 27.5226C26.3107 28.2561 26.4567 29.0628 26.5125 29.5204C26.6483 30.3619 27.3642 31.0028 28.2172 31.0028H28.2172C28.32 31.0028 28.3873 31.0028 28.4901 30.9689C29.4446 30.8347 30.1262 29.9581 29.9904 29.0149C29.6832 27.2629 29.376 25.5721 29.376 25.5721C29.1717 23.9894 28.4215 21.8675 24.4333 21.5977H24.2633L24.9937 17.1558C25.1291 17.2895 25.3026 17.5962 25.4723 17.896C25.6448 18.2008 25.8133 18.4986 25.9336 18.6004C26.0529 18.7014 26.1723 18.8108 26.2916 18.9202L26.2917 18.9203L26.2917 18.9204C26.411 19.0297 26.5302 19.1391 26.6495 19.24C26.8196 19.4081 27.0239 19.5435 27.2296 19.61C28.6613 20.0477 29.8544 20.1832 31.3548 20.1154C32.2065 20.0477 32.8894 19.3403 32.8209 18.4649C32.7523 17.656 32.0365 17.0164 31.1848 17.0503C30.1618 17.118 29.4116 17.0503 28.4914 16.7806C28.3213 16.6126 28.1499 16.4771 27.9798 16.3429C27.0254 15.5014 26.4123 14.8266 25.7637 13.9851C25.628 13.8172 25.4569 13.6481 25.3211 13.514L25.3207 13.5135C24.7749 12.9742 23.5818 12.1666 21.8428 12.5027C20.6154 12.7385 19.4566 13.1762 18.8092 13.6477L18.707 13.6986L18.6049 13.7493C18.3663 13.8835 16.3887 15.2318 15.4685 16.3768C15.4685 16.3942 15.4054 16.4878 15.3041 16.638C14.8144 17.3643 13.4318 19.4148 13.9682 20.587C14.2741 21.1588 14.7856 21.4962 15.3986 21.4962C16.1831 21.4962 16.8647 20.9231 16.9662 20.1493C17.069 19.8458 17.4434 19.0381 17.9549 18.3972C18.4125 17.656 19.1139 16.7937 19.7625 16.3221ZM31.6424 27.6604H37.8112C38.4716 27.6604 39 28.1762 39 28.821C39 29.4657 38.4716 29.9816 37.8112 29.9816H32.8312V32.8185C32.8312 33.4633 32.3028 33.9791 31.6424 33.9791H26.6888V36.829C26.6888 37.4737 26.1605 37.9896 25.5 37.9896H20.5333V40.8394C20.5333 41.4842 20.0049 42 19.3444 42H13.1888C12.5284 42 12 41.4842 12 40.8394C12 40.1947 12.5284 39.6788 13.1888 39.6788H18.1556V36.829C18.1556 36.1842 18.684 35.6684 19.3444 35.6684H24.3112V32.8185C24.3112 32.1738 24.8395 31.6579 25.5 31.6579H30.4535V28.821C30.4535 28.1762 30.9819 27.6604 31.6424 27.6604Z" fill="black"/>
</g>
<defs>
<clipPath id="clip0_5884_3431">
<rect width="48" height="48" fill="white"/>
</clipPath>
</defs>
</svg>
