<svg width="48" height="48" viewBox="0 0 48 48" fill="none" xmlns="http://www.w3.org/2000/svg">
<g clip-path="url(#clip0_5884_3361)">
<path fill-rule="evenodd" clip-rule="evenodd" d="M24 48C37.2548 48 48 37.2548 48 24C48 10.7452 37.2548 0 24 0C10.7452 0 0 10.7452 0 24C0 37.2548 10.7452 48 24 48ZM14.3077 15.6102C16.1089 15.6102 17.569 14.1304 17.569 12.3051C17.569 10.4797 16.1089 9 14.3077 9C12.5065 9 11.0463 10.4797 11.0463 12.3051C11.0463 14.1304 12.5065 15.6102 14.3077 15.6102ZM9.11101 27.0508C9.72027 27.0508 10.222 26.5424 10.222 25.9249V20.2591C10.222 19.6417 10.5804 19.1332 11.0822 18.8789V37.4746C11.0822 38.2736 11.7273 38.9273 12.5157 38.9273C13.3042 38.9273 13.9493 38.2736 13.9493 37.4746V29.0484H14.7019V37.5109C14.7019 38.3099 15.347 38.9637 16.1355 38.9637C16.9239 38.9637 17.569 38.3099 17.569 37.5109V18.9879C18.0349 19.2421 18.3216 19.7506 18.3216 20.2954V25.9613C18.3216 26.5787 18.8234 27.0872 19.4326 27.0872C20.0419 27.0872 20.5437 26.5787 20.5437 25.9613V20.6586C20.5437 18.1525 18.5367 16.1187 16.0638 16.1187H12.5157C10.007 16.1187 8 18.1525 8 20.6586V25.9249C8 26.5787 8.50175 27.0508 9.11101 27.0508ZM35.8111 12.3051C35.8111 14.1304 34.3509 15.6102 32.5497 15.6102C30.7485 15.6102 29.2884 14.1304 29.2884 12.3051C29.2884 10.4797 30.7485 9 32.5497 9C34.3509 9 35.8111 10.4797 35.8111 12.3051ZM38.7499 20.6586C38.1048 18.0073 35.7035 16.1187 32.9798 16.1187H32.0121C29.2884 16.1187 26.8872 18.0073 26.2421 20.6586L25.0594 25.6344C24.916 26.2155 25.2744 26.8329 25.8478 26.9782C26.4212 27.1235 27.0305 26.7603 27.1739 26.1792L28.5716 20.6949C28.7149 20.1501 28.9658 19.6417 29.3242 19.2058V19.2422L27.0067 31.2304C26.9633 31.4548 27.1328 31.6634 27.3584 31.6634H29.3242V37.5472C29.3242 38.3462 29.9693 39 30.7578 39C31.5462 39 32.1913 38.3462 32.1913 37.5472V31.6634H32.9798V37.5472C32.9798 38.3462 33.6249 39 34.4133 39C35.2018 39 35.8469 38.3462 35.8469 37.5472V31.6634H37.812C38.0378 31.6634 38.2073 31.4543 38.1636 31.2298L35.8469 19.3511C36.1336 19.7506 36.3487 20.1865 36.4562 20.6586L37.8539 26.1429C37.9972 26.724 38.6065 27.0872 39.1799 26.9419C39.7534 26.7966 40.1117 26.1792 39.9684 25.5981L38.7499 20.6586ZM23.4108 14.1937V34.5327C23.4108 34.8336 23.1701 35.0775 22.8732 35.0775C22.5763 35.0775 22.3356 34.8336 22.3356 34.5327V14.1937C22.3356 13.8928 22.5763 13.6489 22.8732 13.6489C23.1701 13.6489 23.4108 13.8928 23.4108 14.1937Z" fill="black"/>
</g>
<defs>
<clipPath id="clip0_5884_3361">
<rect width="48" height="48" fill="white"/>
</clipPath>
</defs>
</svg>
