<svg width="20" height="20" viewBox="0 0 20 20" fill="none" xmlns="http://www.w3.org/2000/svg">
<path d="M4.54806 5.24576C5.56123 5.24576 6.38257 4.40724 6.38257 3.37288C6.38257 2.33852 5.56123 1.5 4.54806 1.5C3.53489 1.5 2.71355 2.33852 2.71355 3.37288C2.71355 4.40724 3.53489 5.24576 4.54806 5.24576Z" fill="black"/>
<path d="M1.62494 11.7288C1.96765 11.7288 2.24989 11.4407 2.24989 11.0908V7.88015C2.24989 7.53027 2.45148 7.24213 2.73371 7.09807V17.6356C2.73371 18.0884 3.09658 18.4588 3.54009 18.4588C3.9836 18.4588 4.34647 18.0884 4.34647 17.6356V12.8608H4.76982V17.6562C4.76982 18.1089 5.13269 18.4794 5.57619 18.4794C6.0197 18.4794 6.38257 18.1089 6.38257 17.6562V7.15981C6.64464 7.30388 6.80592 7.59201 6.80592 7.90073V11.1114C6.80592 11.4613 7.08815 11.7494 7.43086 11.7494C7.77357 11.7494 8.0558 11.4613 8.0558 11.1114V8.10654C8.0558 6.68644 6.92688 5.5339 5.53587 5.5339H3.54009C2.12893 5.5339 1 6.68644 1 8.10654V11.0908C1 11.4613 1.28223 11.7288 1.62494 11.7288Z" fill="black"/>
<path d="M14.8092 5.24576C15.8224 5.24576 16.6437 4.40724 16.6437 3.37288C16.6437 2.33852 15.8224 1.5 14.8092 1.5C13.796 1.5 12.9747 2.33852 12.9747 3.37288C12.9747 4.40724 13.796 5.24576 14.8092 5.24576Z" fill="black"/>
<path d="M18.2968 8.10655C17.9339 6.60413 16.5832 5.53391 15.0511 5.53391H14.5068C12.9747 5.53391 11.624 6.60413 11.2612 8.10655L10.5959 10.9262C10.5153 11.2555 10.7168 11.6053 11.0394 11.6877C11.362 11.77 11.7047 11.5642 11.7853 11.2349L12.5715 8.12713C12.6522 7.81841 12.7933 7.53028 12.9949 7.28331V7.30389L11.6913 14.0972C11.6669 14.2244 11.7622 14.3426 11.8891 14.3426H12.9949V17.6768C12.9949 18.1295 13.3577 18.5 13.8012 18.5C14.2448 18.5 14.6076 18.1295 14.6076 17.6768V14.3426H15.0511V17.6768C15.0511 18.1295 15.414 18.5 15.8575 18.5C16.301 18.5 16.6639 18.1295 16.6639 17.6768V14.3426H17.7692C17.8963 14.3426 17.9916 14.2241 17.967 14.0969L16.6639 7.36563C16.8252 7.59202 16.9461 7.839 17.0066 8.10655L17.7928 11.2143C17.8735 11.5436 18.2162 11.7494 18.5387 11.6671C18.8613 11.5848 19.0629 11.2349 18.9822 10.9056L18.2968 8.10655Z" fill="black"/>
<path d="M9.66856 15.9685V4.44311C9.66856 4.27261 9.53318 4.13439 9.36617 4.13439C9.19916 4.13439 9.06378 4.27261 9.06378 4.44311V15.9685C9.06378 16.139 9.19916 16.2772 9.36617 16.2772C9.53318 16.2772 9.66856 16.139 9.66856 15.9685Z" fill="black"/>
</svg>
