<svg width="48" height="48" viewBox="0 0 48 48" fill="none" xmlns="http://www.w3.org/2000/svg">
<g clip-path="url(#clip0_5884_3369)">
<path fill-rule="evenodd" clip-rule="evenodd" d="M24 48C37.2548 48 48 37.2548 48 24C48 10.7452 37.2548 0 24 0C10.7452 0 0 10.7452 0 24C0 37.2548 10.7452 48 24 48ZM27.5235 10.6356C27.5235 12.6435 25.9631 14.2712 24.0383 14.2712C22.1135 14.2712 20.5531 12.6435 20.5531 10.6356C20.5531 8.62771 22.1135 7 24.0383 7C25.9631 7 27.5235 8.62771 27.5235 10.6356ZM24.4979 14.8305C27.4086 14.8305 29.9747 16.908 30.6641 19.8245L31.9662 25.2579C32.1194 25.8971 31.7364 26.5763 31.1236 26.7361C30.5109 26.8959 29.8598 26.4964 29.7066 25.8572L28.2129 19.8245C28.098 19.3051 27.8682 18.8257 27.5618 18.3862L30.0375 31.4528C30.0843 31.6998 29.9031 31.9298 29.6618 31.9298H27.5618V38.4019C27.5618 39.2809 26.8724 40 26.0299 40C25.1873 40 24.4979 39.2809 24.4979 38.4019V31.9298H23.6553V38.4019C23.6553 39.2809 22.9659 40 22.1233 40C21.2808 40 20.5914 39.2809 20.5914 38.4019V31.9298H18.4906C18.2496 31.9298 18.0684 31.7002 18.1148 31.4535L20.5914 18.2664V18.2264C20.2084 18.7058 19.9403 19.2652 19.7871 19.8644L18.2934 25.8971C18.1402 26.5363 17.4891 26.9359 16.8764 26.776C16.2636 26.6162 15.8806 25.9371 16.0338 25.2978L17.2977 19.8245C17.987 16.908 20.5531 14.8305 23.4638 14.8305H24.4979Z" fill="black"/>
</g>
<defs>
<clipPath id="clip0_5884_3369">
<rect width="48" height="48" fill="white"/>
</clipPath>
</defs>
</svg>
