<svg width="20" height="20" viewBox="0 0 20 20" fill="none" xmlns="http://www.w3.org/2000/svg">
<path d="M10.0215 4.9661C11.1043 4.9661 11.982 4.07826 11.982 2.98305C11.982 1.88784 11.1043 1 10.0215 1C8.93883 1 8.06111 1.88784 8.06111 2.98305C8.06111 4.07826 8.93883 4.9661 10.0215 4.9661Z" fill="black"/>
<path d="M13.7485 7.99517C13.3607 6.40437 11.9173 5.2712 10.2801 5.2712H9.69839C8.06111 5.2712 6.61771 6.40437 6.22993 7.99517L5.519 10.9806C5.43283 11.3293 5.64826 11.6998 5.99295 11.7869C6.33765 11.8741 6.70388 11.6562 6.79005 11.3075L7.63024 8.01696C7.71642 7.69009 7.86722 7.385 8.08265 7.1235V7.14529L6.68957 14.3383C6.6635 14.4729 6.76538 14.5981 6.90098 14.5981H8.08265V18.1283C8.08265 18.6077 8.47043 19 8.94438 19C9.41833 19 9.80611 18.6077 9.80611 18.1283V14.5981H10.2801V18.1283C10.2801 18.6077 10.6678 19 11.1418 19C11.6157 19 12.0035 18.6077 12.0035 18.1283V14.5981H13.1847C13.3205 14.5981 13.4224 14.4726 13.3961 14.3379L12.0035 7.21067C12.1759 7.45038 12.3051 7.71188 12.3698 7.99517L13.2099 11.2857C13.2961 11.6344 13.6624 11.8523 14.007 11.7651C14.3517 11.678 14.5672 11.3075 14.481 10.9588L13.7485 7.99517Z" fill="black"/>
</svg>
