<svg id="You are here" x="0" y="0" width="48" height="48" xmlns="http://www.w3.org/2000/svg" version="1.1" viewBox="0 0 80 120">
	<g fill="#ff0000">
		<path d="M52.96,36.42C52.96,44.424,46.426,50.916,38.366,50.916C30.315,50.916,23.784,44.424,23.784,36.42C23.784,28.416,30.315,21.924,38.366,21.924C46.426,21.924,52.96,28.416,52.96,36.42Z" />
		<path fill-rule="evenodd" d="M70.15,58.884C80,40.368,72.561,16.212,52.328,8.256C31.56,0,8.601,12.156,3.296,33.72C0,47.436,6.823,58.872,13.486,70.056L13.486,70.056L13.486,70.056C14.299,71.412,15.096,72.744,15.873,74.088C19.993,81.3,24.168,88.452,28.317,95.604L28.317,95.604C30.913,100.056,33.495,104.508,36.065,108.948C37.104,110.784,39.985,110.784,41.024,108.948C50.722,92.436,60.296,76.032,69.87,59.52C69.993,59.304,70.087,59.1,70.15,58.884ZM61.727,62.028L64.91,56.532L64.91,56.532C75.295,37.728,62.943,11.928,40.096,11.472C19.911,11.004,2.833,30.276,9.639,50.34C11.016,54.432,13,58.44,15.241,62.364C15.448,60.036,16.369,57.78,18.066,56.064C20.24,53.844,22.815,52.008,25.672,50.616C29.015,53.664,33.479,55.512,38.366,55.512C43.263,55.512,47.727,53.664,51.074,50.616C53.926,52.008,56.504,53.844,58.68,56.064C60.288,57.708,61.317,59.82,61.727,62.028Z" />
		<path d="M29.809,107.82C29.809,106.428,28.68,105.3,27.289,105.3C25.896,105.3,24.767,106.428,24.767,107.82C24.767,114.408,31.167,120,38.457,120C45.744,120,52.143,114.408,52.143,107.82C52.143,106.428,51.008,105.3,49.625,105.3C48.232,105.3,47.097,106.428,47.097,107.82C47.097,111.12,43.496,114.984,38.457,114.984C33.407,114.984,29.809,111.12,29.809,107.82Z" />
	</g>
</svg>
