<svg id="You are here 3" x="0" y="0" width="48" height="48" viewBox="0 0 121 155" fill="none" xmlns="http://www.w3.org/2000/svg">
	<g>
		<path d="M19.5 117C16 112.5 14.5 109.5 12 105L18.5 82V26.5C31.5 22.8333 57.7 15.5 58.5 15.5C59.3 15.5 85.5 30.5 98.5 38C102.333 59.3333 110.94 100.651 110 103C109 105.5 104 114 102 117C75.6667 118.167 20.7279 118.579 19.5 117Z" fill="white" />
		<path fill-rule="evenodd" clip-rule="evenodd" d="M56.5039 87.9898H64.9519C73.0359 88.0239 81.0297 89.6976 88.4533 92.9103C95.8769 96.1231 102.577 100.809 108.152 106.686C116.194 92.5527 120.429 76.5598 120.44 60.2834C120.44 44.309 114.119 28.9889 102.866 17.6933C91.6142 6.39768 76.3529 0.0518799 60.4399 0.0518799C44.527 0.0518799 29.2657 6.39768 18.0135 17.6933C6.76135 28.9889 0.439941 44.309 0.439941 60.2834C0.513001 76.6349 4.84871 92.6825 13.0159 106.83C18.6204 100.903 25.3635 96.1776 32.838 92.9394C40.3124 89.7012 48.3632 88.0175 56.5039 87.9898ZM60.7279 24.6263C66.1662 24.5881 71.4933 26.1721 76.0336 29.1774C80.5739 32.1826 84.1229 36.4737 86.2305 41.5065C88.338 46.5393 88.9092 52.0871 87.8716 57.4462C86.834 62.8053 84.2343 67.7344 80.4023 71.6083C76.5702 75.4822 71.6785 78.1264 66.3474 79.2056C61.0162 80.2848 55.4859 79.7504 50.4578 77.6701C45.4297 75.5898 41.1303 72.0573 38.1048 67.5207C35.0793 62.9841 33.4641 57.6477 33.4639 52.1883C33.4511 44.9078 36.3134 37.919 41.4236 32.7529C46.5339 27.5868 53.4755 24.6646 60.7279 24.6263Z" fill="#FF0000" />
		<path fill-rule="evenodd" clip-rule="evenodd" d="M100.377 114.203C95.795 109.405 90.2965 105.583 84.2099 102.967C78.1234 100.351 71.5738 98.9934 64.9528 98.9762H56.5048C49.8679 98.9939 43.3034 100.361 37.207 102.994C31.1106 105.628 25.6086 109.473 21.0328 114.299L19.1128 116.516C30.1736 131.851 44.3601 144.647 60.7288 154.052C77.1201 144.618 91.3229 131.79 102.393 116.419L100.377 114.203Z" fill="#FF0000" />
		<path d="M60.7279 68.7159C69.7677 68.7159 77.0959 61.3162 77.0959 52.1883C77.0959 43.0604 69.7677 35.6608 60.7279 35.6608C51.6881 35.6608 44.3599 43.0604 44.3599 52.1883C44.3599 61.3162 51.6881 68.7159 60.7279 68.7159Z" fill="#FF0000" />
	</g>
</svg>
