<svg id="Drinking water" width="64" height="64" viewBox="0 0 64 64" fill="none" xmlns="http://www.w3.org/2000/svg">
	<g fill="#c4c4c4">
		<path fill-rule="evenodd" clip-rule="evenodd" d="M32 64C49.6731 64 64 49.6731 64 32C64 14.3269 49.6731 0 32 0C14.3269 0 0 14.3269 0 32C0 49.6731 14.3269 64 32 64ZM47.0645 16.3323C46.8815 16.1211 46.6168 16 46.338 16L37.5213 15.9999L38 17.9149L45.2284 17.915L40.4044 50.6611H22.8936L18.0667 17.915H24.5L25 16H16.9571C16.6783 16 16.4136 16.1211 16.2334 16.3323C16.0503 16.5435 15.9687 16.8223 16.0109 17.0983L21.1194 51.7594C21.1898 52.2297 21.5925 52.5789 22.0684 52.5789H41.2323C41.7082 52.5789 42.111 52.2297 42.1814 51.7594L47.287 17.0983C47.3265 16.8223 47.2448 16.5435 47.0645 16.3323ZM39.0244 49.0644H24.2706L21.1841 28.1207C21.8347 28.0503 22.4965 28.039 23.1583 28.07L25.7745 28.4276C27.0896 28.7149 28.3991 29.1542 29.6805 29.7062C34.2949 31.6886 37.0893 30.6797 40.2746 29.5297L40.2746 29.5297C40.8314 29.3287 41.4002 29.1233 41.9926 28.9289L39.0244 49.0644ZM31.2222 22.6667C33.1861 22.6667 34.7778 20.8759 34.7778 18.6667C34.7778 16.4575 31.2222 12 31.2222 12C31.2222 12 27.6667 16.4575 27.6667 18.6667C27.6667 20.8759 29.2584 22.6667 31.2222 22.6667Z" />
	</g>
</svg>
