<svg id="Electrical outlet" width="64" height="64" viewBox="0 0 64 64" fill="none" xmlns="http://www.w3.org/2000/svg">
	<g fill="#c4c4c4">
		<path fill-rule="evenodd" clip-rule="evenodd" d="M64 32C64 49.6731 49.6731 64 32 64C14.3269 64 0 49.6731 0 32C0 14.3269 14.3269 0 32 0C49.6731 0 64 14.3269 64 32ZM35.4201 33.5538C34.7395 32.8732 33.7186 32.8732 33.038 33.5538L29.9752 36.6166L27.4229 34.0643L30.4857 31.0015C31.1663 30.3209 31.1663 29.3 30.4857 28.6194C29.8051 27.9387 28.7841 27.9387 28.1035 28.6194L25.0407 31.6821L23.9347 30.5761C23.5944 30.2358 23.169 30.0657 22.7436 30.0657C22.3183 30.0657 21.8929 30.2358 21.5526 30.5761L16.7882 35.3404C13.8956 38.2331 13.5553 42.6571 15.7673 45.9751L12.5344 49.208C11.8538 49.8886 11.8538 50.9096 12.5344 51.5902C12.8747 51.9305 13.3001 52.1006 13.7255 52.1006C14.1509 52.1006 14.5762 51.9305 14.9165 51.5902L18.1495 48.3573C19.5107 49.2931 21.1272 49.7185 22.8287 49.7185C25.0407 49.7185 27.1677 48.8677 28.7841 47.2513L33.5484 42.4869C34.2291 41.8063 34.2291 40.7854 33.5484 40.1048L32.4424 38.9988L35.5052 35.936C36.1008 35.2554 36.1008 34.1494 35.4201 33.5538ZM49.1175 12.5393C49.7981 11.8587 50.8191 11.8587 51.4997 12.5393C52.1803 13.1348 52.1803 14.2408 51.4146 14.9214L48.1817 18.1544C50.3937 21.4724 50.0534 25.8964 47.1607 28.789L42.3964 33.5533C42.0561 33.8936 41.6307 34.0638 41.2053 34.0638C40.78 34.0638 40.3546 33.8936 40.0143 33.5533L30.4856 24.0247C30.1453 23.6844 29.9752 23.259 29.9752 22.8336C29.9752 22.4082 30.1453 21.9828 30.4856 21.6425L35.2499 16.8782C36.8664 15.2617 38.9933 14.411 41.2053 14.411C42.9069 14.411 44.5234 14.8364 45.8846 15.7722L49.1175 12.5393Z" />
	</g>
</svg>
