<svg id="Entrance" width="64" height="64" viewBox="0 0 64 64" fill="none" xmlns="http://www.w3.org/2000/svg">
	<g fill="#c4c4c4">
		<path fill-rule="evenodd" clip-rule="evenodd" d="M64 32C64 49.6731 49.6731 64 32 64C14.3269 64 0 49.6731 0 32C0 14.3269 14.3269 0 32 0C49.6731 0 64 14.3269 64 32ZM22.0806 14.2193H32V16.571H22.0806V26.4904H19.7289V16.571V14.2193H22.0806ZM32 50.4606H22.0806H19.7289V48.1089V38.1895H22.0806V48.1089H32V50.4606ZM24.6756 27.4012C24.3577 27.7365 24.3577 28.3114 24.6756 28.6467L26.3109 30.3713H13.8176C13.3634 30.3713 13 30.7545 13 31.2335V32.7665C13 33.2455 13.3634 33.6288 13.8176 33.6288H26.3563L24.6756 35.4012C24.3577 35.7365 24.3577 36.3114 24.6756 36.6467L25.7204 37.7485C26.0383 38.0838 26.5834 38.0838 26.9013 37.7485L31.7615 32.6227C32.0795 32.2874 32.0795 31.7126 31.7615 31.3773L26.9013 26.2515C26.5834 25.9162 26.0383 25.9162 25.7204 26.2515L24.6756 27.4012ZM50 32.34V15.7877L34.0802 11.9883V32.34V52.6916L50 48.8931V32.34Z" />
	</g>
</svg>
