<svg id="Escalator up" width="64" height="64" viewBox="0 0 64 64" fill="none" xmlns="http://www.w3.org/2000/svg">
	<g fill="#c4c4c4">
		<path fill-rule="evenodd" clip-rule="evenodd" d="M64 32C64 49.6731 49.6731 64 32 64C14.3269 64 0 49.6731 0 32C0 14.3269 14.3269 0 32 0C49.6731 0 64 14.3269 64 32ZM47.1298 22.7173H39.8584C38.4555 22.7173 37.0863 23.2904 36.1017 24.2896L21.2237 39.3884H16.442C15.2415 39.3884 14.1168 39.8598 13.2748 40.7159C12.4331 41.5719 11.9806 42.7046 12.0006 43.9058C12.0408 46.3135 14.0574 48.2724 16.496 48.2724H23.1298C24.5326 48.2724 25.9018 47.6993 26.8865 46.7L41.7645 31.6012H47.1839C48.3843 31.6012 49.5092 31.1298 50.3511 30.2738C51.1927 29.4179 51.6452 28.285 51.6252 27.084C51.585 24.6761 49.5684 22.7173 47.1298 22.7173ZM24 16.2299C24 13.8975 25.8977 11.9999 28.23 11.9999C30.5625 11.9999 32.4601 13.8976 32.4601 16.23C32.4601 18.5624 30.5625 20.46 28.23 20.46C25.8977 20.46 24 18.5623 24 16.2299ZM28.3207 21.5554C25.9447 21.5146 24 23.5005 24 25.8768V34.351L32.4936 25.8015C32.4936 23.4845 30.6284 21.5949 28.3207 21.5554ZM38.3538 41.5862C37.9926 41.5862 37.683 41.2766 37.683 40.9153L37.6572 39.7026C37.6572 39.3414 37.9668 39.0318 38.328 39.0318L43.8497 39.0318C44.2109 39.0318 44.5206 39.3414 44.5206 39.7026V45.2243C44.5206 45.5855 44.2109 45.8952 43.8497 45.8952L42.6628 45.8952C42.3016 45.8952 41.9919 45.5856 41.9919 45.2243V43.315L36.5735 48.7334C36.3154 48.9915 35.9026 48.9915 35.6446 48.7334L34.8189 47.9078C34.5609 47.6497 34.5609 47.2369 34.8189 46.9789L40.2116 41.5862H38.3538Z" />
	</g>
</svg>
