<svg id="Escalator" width="64" height="64" viewBox="0 0 64 64" fill="none" xmlns="http://www.w3.org/2000/svg">
	<g fill="#c4c4c4">
		<path fill-rule="evenodd" clip-rule="evenodd" d="M32 64C49.6731 64 64 49.6731 64 32C64 14.3269 49.6731 0 32 0C14.3269 0 0 14.3269 0 32C0 49.6731 14.3269 64 32 64ZM41.6721 23.2278H49.2898C51.8446 23.2278 53.9572 25.2799 53.9993 27.8024C54.0203 29.0607 53.5462 30.2476 52.6645 31.1441C51.7825 32.0409 50.6041 32.5348 49.3465 32.5348H43.6689L28.0824 48.3527C27.0509 49.3996 25.6164 50 24.1468 50H17.1971C14.6423 50 12.5297 47.9478 12.4876 45.4254C12.4666 44.167 12.9407 42.9803 13.8224 42.0836C14.7045 41.1868 15.8828 40.6929 17.1405 40.6929H22.1499L37.7364 24.875C38.7679 23.8282 40.2024 23.2278 41.6721 23.2278ZM29.49 12C27.0465 12 25.0585 13.9879 25.0585 16.4314C25.0585 18.8749 27.0465 20.863 29.49 20.863C31.9335 20.863 33.9215 18.875 33.9215 16.4315C33.9215 13.988 31.9335 12 29.49 12ZM25.0585 26.5378C25.0585 24.0483 27.0958 21.9679 29.5849 22.0105C32.0026 22.052 33.9566 24.0316 33.9566 26.4589L25.0585 35.4155V26.5378Z" />
	</g>
</svg>
