<svg id="Exit" width="64" height="64" viewBox="0 0 64 64" fill="none" xmlns="http://www.w3.org/2000/svg">
	<g fill="#c4c4c4">
		<path fill-rule="evenodd" clip-rule="evenodd" d="M64 32C64 49.6731 49.6731 64 32 64C14.3269 64 0 49.6731 0 32C0 14.3269 14.3269 0 32 0C49.6731 0 64 14.3269 64 32ZM41.9194 50.4607H32V48.109H41.9194L41.9194 38.1896L44.2711 38.1896V48.109V50.4607H41.9194ZM32 14.2193L41.9194 14.2193H44.2711V16.571V26.4905L41.9194 26.4905L41.9194 16.571L32 16.571V14.2193ZM46.6756 37.2787C46.3577 36.9434 46.3577 36.3686 46.6756 36.0332L48.3109 34.3087H35.8176C35.3634 34.3087 35 33.9254 35 33.4464V31.9134C35 31.4344 35.3634 31.0512 35.8176 31.0512H48.3563L46.6756 29.2787C46.3577 28.9434 46.3577 28.3685 46.6756 28.0332L47.7204 26.9314C48.0383 26.5961 48.5834 26.5961 48.9013 26.9314L53.7615 32.0572C54.0795 32.3925 54.0795 32.9674 53.7615 33.3027L48.9013 38.4284C48.5834 38.7638 48.0383 38.7638 47.7204 38.4284L46.6756 37.2787ZM14 32.34L14 48.8922L29.9198 52.6917L29.9198 32.34L29.9198 11.9883L14 15.7868L14 32.34Z" />
	</g>
</svg>
