<svg id="food" width="64" height="64" viewBox="0 0 64 64" fill="none" xmlns="http://www.w3.org/2000/svg">
	<g fill="#c4c4c4">
		<path fill-rule="evenodd" clip-rule="evenodd" d="M32 64C49.6731 64 64 49.6731 64 32C64 14.3269 49.6731 0 32 0C14.3269 0 0 14.3269 0 32C0 49.6731 14.3269 64 32 64ZM38.3244 35.1716C42.0295 38.1582 45.9239 41.2974 49.048 45.5115C50.3452 47.2613 50.2071 48.3781 49.2924 49.2928C48.3777 50.2076 47.2582 50.3436 45.5111 49.0484C41.297 45.9243 38.1578 42.0299 35.1712 38.3249L35.1712 38.3248C33.4794 36.2261 31.8367 34.1881 30.0753 32.3853C28.5702 30.845 26.935 30.5121 25.2957 30.503C22.4679 30.4873 20.7134 29.2266 17.3722 25.1632L14.1676 21.266C14.0514 21.1247 13.992 20.9452 14.0009 20.7624C14.0098 20.5797 14.0864 20.4068 14.2157 20.2774L14.2417 20.2514C14.3798 20.1133 14.5672 20.0357 14.7625 20.0357C14.9579 20.0357 15.1452 20.1133 15.2833 20.2514L21.6877 26.6558C21.8167 26.8136 22.0023 26.9146 22.2048 26.9375C22.4073 26.9604 22.6107 26.9032 22.7716 26.7783C22.8966 26.6173 22.9537 26.4139 22.9309 26.2114C22.908 26.0089 22.8069 25.8234 22.6492 25.6944L16.2448 19.29C16.107 19.1518 16.0296 18.9645 16.0297 18.7693C16.0299 18.5742 16.1075 18.387 16.2455 18.249C16.3835 18.111 16.5706 18.0334 16.7658 18.0333C16.961 18.0331 17.1482 18.1105 17.2864 18.2483L23.6908 24.6527C23.8199 24.8104 24.0054 24.9115 24.2079 24.9344C24.4104 24.9573 24.6138 24.9001 24.7747 24.7752C24.8997 24.6142 24.9569 24.4108 24.934 24.2083C24.9111 24.0058 24.81 23.8203 24.6523 23.6912L18.2479 17.2869C18.1102 17.1486 18.0331 16.9614 18.0333 16.7664C18.0335 16.5713 18.111 16.3843 18.249 16.2463C18.3869 16.1084 18.5739 16.0308 18.769 16.0306C18.9641 16.0304 19.1513 16.1076 19.2895 16.2453L25.6939 22.6496C25.823 22.8074 26.0085 22.9084 26.211 22.9313C26.4135 22.9542 26.6169 22.897 26.7778 22.772C26.9028 22.6111 26.9599 22.4077 26.9371 22.2052C26.9142 22.0027 26.8131 21.8172 26.6554 21.6881L20.251 15.2837C20.1826 15.2154 20.1284 15.1342 20.0914 15.0448C20.0543 14.9554 20.0353 14.8597 20.0353 14.7629C20.0353 14.6662 20.0543 14.5704 20.0914 14.4811C20.1284 14.3917 20.1826 14.3105 20.251 14.2421L20.277 14.2162C20.4064 14.0868 20.5793 14.0102 20.762 14.0013C20.9448 13.9924 21.1243 14.0519 21.2656 14.1681L25.1627 17.3726C29.2262 20.7138 30.4869 22.4683 30.5026 25.2962C30.5117 26.9354 30.8445 28.5706 32.3849 30.0757C34.1876 31.8371 36.2256 33.4798 38.3244 35.1716L38.3244 35.1716ZM35.7022 30.9293C36.7834 30.3518 37.9906 30.0505 39.2164 30.0524C39.491 30.0398 39.7628 30.0362 40.0352 30.0325H40.0352C41.9433 30.0069 43.877 29.9809 46.9619 26.8961C47.9475 25.8992 48.75 24.7366 49.3326 23.4615C50.6842 20.6166 49.8462 17.8471 48.0413 15.9587C46.1528 14.1538 43.3834 13.3157 40.5385 14.6673C39.2633 15.2499 38.1007 16.0524 37.1038 17.0381C34.019 20.1229 33.993 22.0566 33.9674 23.9647V23.9647C33.9638 24.2371 33.9601 24.5089 33.9476 24.7835C33.952 26.0427 33.633 27.2819 33.0211 28.3824C33.1684 28.5767 33.3294 28.7601 33.5031 28.9313C34.1988 29.6111 34.94 30.2719 35.7022 30.9293ZM25.9455 34.8623C26.7387 34.2214 27.5234 33.5873 28.2907 32.9515C28.5193 33.117 28.7335 33.3016 28.9309 33.5033C29.6328 34.2217 30.3145 34.9873 30.9929 35.7761C30.3756 36.5222 29.7596 37.2845 29.1373 38.0547C26.0787 41.8401 22.8641 45.8186 18.5591 49.0199C16.7727 50.3484 15.6374 50.2138 14.7118 49.2882C13.7862 48.3626 13.6516 47.2274 14.9801 45.4409C18.1815 41.1358 22.1601 37.921 25.9455 34.8623Z" />
	</g>
</svg>
