<svg id="Info" width="64" height="64" viewBox="0 0 64 64" fill="none" xmlns="http://www.w3.org/2000/svg">
	<g fill="#c4c4c4">
		<path fill-rule="evenodd" clip-rule="evenodd" d="M32 64C49.6731 64 64 49.6731 64 32C64 14.3269 49.6731 0 32 0C14.3269 0 0 14.3269 0 32C0 49.6731 14.3269 64 32 64ZM27.3936 16.9296C27.3936 15.123 28.459 14 30.1767 14H32.1845C33.8976 14 34.9676 15.123 34.9676 16.9296V18.6947C34.9676 20.5281 33.9254 21.6219 32.1845 21.6219H30.1767C28.459 21.6219 27.3936 20.4988 27.3936 18.6947V16.9296ZM40 46.9605C40 47.8736 39.6565 50 36.4532 50H27.5468C24.3459 50 24 47.8736 24 46.9605C24 46.0475 24.3459 43.9186 27.5468 43.9186H29.1809V32.9985H27.5468C24.3459 32.9985 24 30.8721 24 29.9566C24 29.0435 24.3459 26.9147 27.5468 26.9147H31.2352C33.5401 26.9147 34.9676 27.547 34.9676 30.6866V43.9186H36.4532C39.6565 43.9186 40 46.0475 40 46.9605Z" />
	</g>
</svg>
