<svg id="Live music" width="64" height="64" viewBox="0 0 64 64" fill="none" xmlns="http://www.w3.org/2000/svg">
	<g fill="#c4c4c4">
		<path fill-rule="evenodd" clip-rule="evenodd" d="M32 64C49.6731 64 64 49.6731 64 32C64 14.3269 49.6731 0 32 0C14.3269 0 0 14.3269 0 32C0 49.6731 14.3269 64 32 64ZM13.6286 26.2846L13.6068 26.2482C13.52 26.1028 12.7469 24.7743 12.3088 22.8848C12.0597 21.8089 11.964 20.7486 12.0246 19.7334C12.0997 18.477 12.4156 17.2831 12.9638 16.1849C14.0002 14.1082 15.8344 12.438 18.1285 11.4821C19.2701 11.0062 20.4871 10.7202 21.7455 10.6314C23.0506 10.5396 24.3647 10.6633 25.6519 10.9995L25.66 11.0015L26.9166 11.7748L26.9098 11.8123C26.6638 13.2001 26.252 14.5724 25.6856 15.8908C24.7631 18.0382 23.469 19.9517 21.8392 21.5779C19.0007 24.4108 15.8299 25.695 13.6697 26.2736L13.6286 26.2846ZM20.5033 29.4695C19.5415 29.4695 18.5685 29.2996 17.597 28.9613C16.7722 28.6739 15.9486 28.2599 15.2152 27.7633L15.1287 27.7047L15.2253 27.6649C18.6979 26.2338 21.7979 23.9731 24.1906 21.1279C26.1765 18.7663 27.6533 16.0642 28.5798 13.0965L28.6131 12.9905L29.7129 14.4911C30.3523 15.6859 31.3251 18.1069 30.654 20.8965C30.1449 23.0126 28.9162 24.3387 27.8321 25.5085L27.8319 25.5088C26.4347 27.0165 24.696 28.8928 21.8087 29.3639C21.3766 29.4344 20.941 29.4695 20.5033 29.4695ZM45.8528 52.6013C45.2929 52.6013 44.7079 52.5483 44.1021 52.442C42.984 52.2461 41.8242 51.8741 40.655 51.3367C39.4503 50.7826 38.2602 50.0637 37.1182 49.1996L37.1155 49.1973C35.6558 47.9443 34.206 46.6208 32.8068 45.2633C31.3537 43.8536 30.5695 43.0051 29.997 42.3856L29.997 42.3856L29.9952 42.3837C29.3005 41.6319 28.9518 41.2547 28.1331 40.682C27.6056 40.3131 26.1924 39.3868 24.4647 38.7523C22.1238 37.8927 20.1535 37.8961 18.6084 38.7618C17.4707 39.3994 16.8685 40.3464 16.5792 40.8016C14.787 43.6207 15.6483 46.8194 15.955 47.7325L15.9743 47.79L13.2446 48.4725L13.2275 48.4245C12.833 47.3119 12.596 46.1667 12.5229 45.0207C12.4522 43.9074 12.5371 42.8166 12.7755 41.7782C13.0127 40.7445 13.3958 39.7899 13.9139 38.9406C14.443 38.0734 15.1004 37.3373 15.8676 36.753C17.5053 35.5058 19.5803 34.9954 22.0346 35.2358C23.9816 35.4264 25.6054 36.0438 26.2178 36.2767L26.2189 36.2771C28.3623 37.0925 30.3125 38.4899 31.8587 40.3187C33.6091 42.272 35.5282 44.0966 37.5615 45.741C38.7006 46.6621 39.8961 47.5431 41.1147 48.3591L41.1176 48.3613C42.8175 49.6712 44.811 50.2292 46.5872 49.8922C47.6073 49.6988 48.4156 49.2146 48.805 48.5642C49.55 47.3195 48.962 45.1427 47.4068 43.388L47.3718 43.3484L49.3186 41.4017L49.3581 41.4363C49.4489 41.5158 50.2645 42.2458 50.9641 43.4003C51.3626 44.058 51.6505 44.7322 51.8194 45.4042C52.0288 46.2366 52.0562 47.0697 51.901 47.8807C51.6354 49.2683 50.8104 50.6026 49.6942 51.4501C49.0047 51.9736 48.166 52.3234 47.2013 52.4901C46.7717 52.564 46.321 52.6013 45.8528 52.6013ZM30.2246 27.5783C32.1202 25.5152 32.2395 23.2006 32.25 22.5684C37.6285 28.0805 43.0071 33.5926 48.3858 39.1047C48.4042 39.4437 48.41 40.4201 47.7304 41.3923C46.9209 42.55 45.7018 42.8967 45.39 42.976L24.9824 30.2283C25.6164 30.1501 28.2197 29.7608 30.2246 27.5783Z" />
	</g>
</svg>
