<svg id="Lounge" width="64" height="64" viewBox="0 0 64 64" fill="none" xmlns="http://www.w3.org/2000/svg">
	<g fill="#c4c4c4">
		<path fill-rule="evenodd" clip-rule="evenodd" d="M64 32C64 49.6731 49.6731 64 32 64C14.3269 64 0 49.6731 0 32C0 14.3269 14.3269 0 32 0C49.6731 0 64 14.3269 64 32ZM14.3858 27.2362C16.1804 27.8857 18.3829 30.295 20.1749 33C20.3667 33.289 20.5549 33.5905 20.7454 33.9125L42.922 34C43.113 33.6776 43.3012 33.376 43.4921 33.0875C45.4559 30.1237 47.807 27.5228 49.7 27.0861C49.7064 27.0598 49.7128 27.0338 49.7192 27.0081C49.7256 26.9827 49.7319 26.9574 49.7382 26.9322C49.753 26.8733 49.7679 26.8143 49.7825 26.753C51.4815 19.5919 43.0059 16 32.0183 16C21.0307 16 12.3901 19.6663 14.254 26.753C14.2786 26.8453 14.303 26.9339 14.3273 27.0222C14.3468 27.0931 14.3663 27.1638 14.3858 27.2362ZM45.1966 34.9545C48.0605 30.7154 51.6685 27.9053 53.2559 29.413C54.8428 30.9207 53.8083 35.5798 50.9439 39.8199C49.4338 42.0551 47.7197 43.7158 46.2013 44.5763C46.0028 46.5773 45.2724 48.0649 44.3992 48.0649C43.6253 48.0649 42.9629 46.8975 42.6837 45.2392H21.7179C21.4392 46.8975 20.7763 48.0649 20.0024 48.0649C19.162 48.0649 18.4526 46.6873 18.2238 44.7992C16.6071 44.0302 14.7092 42.2668 13.0558 39.8194C10.1919 35.5798 9.15694 30.9207 10.7443 29.413C12.3318 27.9057 15.9402 30.7154 18.8041 34.9545C19.1097 35.4067 19.3893 35.8638 19.6523 36.3209C19.6687 36.3198 19.6851 36.3181 19.7015 36.3164C19.7324 36.3133 19.7634 36.3102 19.7951 36.3102H44.3547C44.6158 35.8565 44.8935 35.4028 45.1966 34.9545Z" />
	</g>
</svg>
