<svg id="Male toilet" width="64" height="64" viewBox="0 0 64 64" fill="none" xmlns="http://www.w3.org/2000/svg">
	<g fill="#c4c4c4">
		<path fill-rule="evenodd" clip-rule="evenodd" d="M64 32C64 49.6731 49.6731 64 32 64C14.3269 64 0 49.6731 0 32C0 14.3269 14.3269 0 32 0C49.6731 0 64 14.3269 64 32ZM40.6966 23.038V34.9639C40.6966 36.1997 39.8557 37.2108 38.8278 37.2108C38.097 37.2108 37.4606 36.6992 37.1544 35.9596C37.0293 35.6588 36.959 35.3207 36.959 34.9635V23.0154H36.234L36.2294 52.6107C36.2294 53.8 35.3137 54.7735 34.195 54.7735C33.0755 54.7735 32.1606 53.8 32.1606 52.6107V37.069H31.5364V52.586C31.5364 53.7758 30.6206 54.7497 29.502 54.7497C28.3829 54.7497 27.4675 53.7762 27.4675 52.586C27.4675 52.586 27.4793 36.0667 27.4629 36.0662V23.0158H26.7375V34.9639C26.7375 35.3212 26.6672 35.6592 26.5426 35.96C26.2355 36.6996 25.5992 37.2113 24.8688 37.2113C23.8409 37.2108 23 36.1997 23 34.9639V23.038C23 22.9292 23.0038 22.8205 23.0117 22.7138C23.1782 20.3978 25.1122 18.5512 27.4625 18.524C27.4797 18.5232 27.4972 18.5232 27.5148 18.5232H36.1818C36.1993 18.5232 36.2169 18.5232 36.234 18.524C38.5843 18.5512 40.5184 20.3978 40.6849 22.7138L40.6849 22.7142C40.685 22.7147 40.6852 22.7154 40.6849 22.7163C40.6928 22.8221 40.6966 22.9301 40.6966 23.038ZM32.8225 8.89784C35.0816 9.43591 36.4768 11.7035 35.9387 13.9626C35.4007 16.2216 33.1331 17.6168 30.874 17.0788C28.6149 16.5407 27.2198 14.2731 27.7578 12.014C28.2959 9.75494 30.5634 8.35978 32.8225 8.89784Z" />
	</g>
</svg>
