<svg id="Phone charge" width="64" height="64" viewBox="0 0 64 64" fill="none" xmlns="http://www.w3.org/2000/svg">
	<g fill="#c4c4c4">
		<path fill-rule="evenodd" clip-rule="evenodd" d="M32 64C49.6731 64 64 49.6731 64 32C64 14.3269 49.6731 0 32 0C14.3269 0 0 14.3269 0 32C0 49.6731 14.3269 64 32 64ZM29.2889 10C27.6688 10 26.3555 11.3133 26.3555 12.9333V13.9111H22.9333C21.3133 13.9111 20 15.2244 20 16.8445V51.0667C20 52.6867 21.3133 54 22.9333 54H40.0444C41.6645 54 42.9778 52.6867 42.9778 51.0667V16.8445C42.9778 15.2244 41.6645 13.9111 40.0444 13.9111H36.6222V12.9333C36.6222 11.3133 35.3089 10 33.6889 10H29.2889ZM24.6445 35.4224L33.6889 18.0669L29.0445 32.2447H38.5778L27.0889 50.8224L32.4667 35.4224H24.6445Z" />
	</g>
</svg>
