<svg id="Registration" width="64" height="64" viewBox="0 0 64 64" fill="none" xmlns="http://www.w3.org/2000/svg">
	<g fill="#c4c4c4">
		<path fill-rule="evenodd" clip-rule="evenodd" d="M32 64C49.6731 64 64 49.6731 64 32C64 14.3269 49.6731 0 32 0C14.3269 0 0 14.3269 0 32C0 49.6731 14.3269 64 32 64ZM41.1262 21.6714C40.2095 21.6714 39.3571 21.3959 38.6469 20.9238C37.4374 20.1204 36.6403 18.7464 36.6403 17.1856C36.6403 14.708 38.6486 12.6997 41.1262 12.6997C43.6038 12.6997 45.612 14.708 45.612 17.1856C45.612 18.7464 44.8149 20.1204 43.6055 20.9238C42.8952 21.3959 42.0429 21.6714 41.1262 21.6714ZM51.4063 29.263H47.7399V26.8246V26.7613C47.7399 24.2998 45.7443 22.3042 43.2828 22.3042H38.9695C36.508 22.3042 34.5124 24.2998 34.5124 26.7613V26.8246V29.263H29.6815V26.8246V26.7613C29.6815 24.2998 27.6859 22.3042 25.2244 22.3042H20.9111C18.4496 22.3042 16.4539 24.2998 16.4539 26.7613V26.8246V29.263H12.5944C11.1618 29.263 10.0001 30.4248 10.0001 31.8574V32.4261V49.0324V51.6268H11.8979V32.0575C11.8979 31.652 12.2269 31.3231 12.6323 31.3231H16.4539V35.8423C16.4539 36.0976 16.4925 36.3444 16.5632 36.5767C16.5753 36.6152 16.5879 36.6538 16.6018 36.6917C16.7248 37.0328 16.9192 37.3393 17.1677 37.5935C17.1924 37.6188 17.2183 37.6441 17.2442 37.6683C17.3086 37.7287 17.3759 37.7856 17.446 37.8391C17.6611 38.0024 17.9027 38.1324 18.1643 38.2198C18.2914 38.2624 18.4231 38.2951 18.5583 38.317V49.1705C18.5583 49.7232 18.7406 50.2339 19.0477 50.6445C19.3076 50.9924 19.6579 51.2691 20.0633 51.4404C20.1094 51.46 20.1565 51.4778 20.2042 51.4945C20.2623 51.5146 20.321 51.533 20.3808 51.5491C20.4285 51.5618 20.4768 51.5739 20.5257 51.5842C20.6057 51.6009 20.6873 51.613 20.7702 51.6216C20.853 51.6302 20.9369 51.6342 21.022 51.6342H25.1128C25.1979 51.6342 25.2819 51.6296 25.3647 51.6216C25.4475 51.613 25.5292 51.6009 25.6091 51.5842C25.658 51.5744 25.7063 51.5624 25.7541 51.5491C25.8139 51.533 25.8725 51.5146 25.9306 51.4945C25.9783 51.4778 26.0255 51.46 26.0715 51.4404C26.477 51.2691 26.8266 50.9924 27.0872 50.6445C27.3948 50.2333 27.5766 49.7232 27.5766 49.1705V38.317C27.7117 38.2951 27.8434 38.2624 27.9705 38.2198C28.2316 38.1324 28.4738 38.0024 28.6888 37.8391C28.7475 37.7942 28.8044 37.7471 28.8591 37.697C28.8959 37.6637 28.9321 37.6292 28.9672 37.5935C29.2156 37.3393 29.41 37.0328 29.5331 36.6917C29.5469 36.6538 29.5596 36.6158 29.5716 36.5767C29.643 36.3444 29.6809 36.0982 29.6809 35.8423V31.3231H51.3677C51.7732 31.3231 52.1022 31.652 52.1022 32.0575V51.6268H54V49.0324V32.4261V31.8574C54.0006 30.4248 52.8389 29.263 51.4063 29.263ZM23.0677 21.6714C22.151 21.6714 21.2987 21.3959 20.5884 20.9238C19.379 20.1204 18.5818 18.7464 18.5818 17.1856C18.5818 14.708 20.5901 12.6997 23.0677 12.6997C25.5453 12.6997 27.5536 14.708 27.5536 17.1856C27.5536 18.7464 26.7565 20.1204 25.547 20.9238C24.8367 21.3959 23.9844 21.6714 23.0677 21.6714Z" />
	</g>
</svg>
