<svg id="Sanitizer" width="64" height="64" viewBox="0 0 64 64" fill="none" xmlns="http://www.w3.org/2000/svg">
	<g fill="#c4c4c4">
		<path fill-rule="evenodd" clip-rule="evenodd" d="M32 64C49.6731 64 64 49.6731 64 32C64 14.3269 49.6731 0 32 0C14.3269 0 0 14.3269 0 32C0 49.6731 14.3269 64 32 64ZM42.6349 13.7143C43.477 13.7143 44.1587 13.0321 44.1587 12.1905C44.1587 11.3488 43.477 10.6667 42.6349 10.6667H27.3968C26.5546 10.6667 25.873 11.3488 25.873 12.1905C25.873 13.0321 26.5546 13.7143 27.3968 13.7143H28.9206V18.2857H27.3968C26.5551 18.2857 25.873 18.9679 25.873 19.8095V24.3809H35.0158V19.8095C35.0158 18.9679 34.3337 18.2857 33.492 18.2857H31.9682V13.7143H42.6349ZM51.7778 24.4444C51.7778 26.6536 50.1861 28.4444 48.2222 28.4444C46.2584 28.4444 44.6667 26.6536 44.6667 24.4444C44.6667 22.2353 48.2222 17.7778 48.2222 17.7778C48.2222 17.7778 51.7778 22.2353 51.7778 24.4444ZM36.5397 27.4286H24.3492C21.8242 27.4286 19.7778 29.4751 19.7778 32V53.3334H41.1111V32C41.1111 29.4751 39.0646 27.4286 36.5397 27.4286ZM32.8148 43.2593H37.5555V38.5185H32.8148V33.7778H28.0741V38.5185H23.3333V43.2593H28.0741V48H32.8148V43.2593Z" />
	</g>
</svg>
