<svg id="Stairs" width="64" height="64" viewBox="0 0 64 64" fill="none" xmlns="http://www.w3.org/2000/svg">
	<g fill="#c4c4c4">
		<path fill-rule="evenodd" clip-rule="evenodd" d="M64 32C64 49.6731 49.6731 64 32 64C14.3269 64 0 49.6731 0 32C0 14.3269 14.3269 0 32 0C49.6731 0 64 14.3269 64 32ZM38.7539 12.4478C38.7938 10.0711 36.8994 8.11216 34.5228 8.07229C32.1461 8.03241 30.1872 9.92674 30.1473 12.3034C30.1074 14.68 32.0017 16.639 34.3784 16.6789C36.755 16.7188 38.714 14.8244 38.7539 12.4478ZM41.2407 40.189V34.3692H52V36.9613H43.7838V42.83H34.296V48.6987H24.8082V54.5674H14V51.9754H22.2162V46.1067H24.6615C24.6289 46.0089 24.6398 45.9111 24.6507 45.8132C24.6561 45.7643 24.6615 45.7154 24.6615 45.6665C24.6764 45.5922 24.7725 44.9719 24.91 44.0838C25.2253 42.0482 25.7585 38.6061 26.0309 37.108C26.2004 36.1758 26.1129 34.9866 26.0229 33.7631C26.009 33.5745 25.995 33.385 25.982 33.1955C25.9653 32.862 25.9429 32.5285 25.9207 32.1969C25.8777 31.5561 25.8353 30.9224 25.8353 30.31C25.4929 28.3538 26.0798 24.2457 27.009 21.2135C26.7859 21.4366 26.3759 21.8882 26.0902 22.2028C25.9376 22.3709 25.8204 22.4999 25.7864 22.534C25.444 23.023 24.8571 25.126 24.4659 27.1311C24.3192 27.8647 23.6834 28.4027 22.9498 28.4027C22.9009 28.4027 22.852 28.3905 22.8031 28.3782C22.7542 28.366 22.7053 28.3538 22.6564 28.3538C21.825 28.2071 21.287 27.3757 21.4337 26.5443C21.7761 24.6858 22.5097 21.458 23.5367 20.3821C23.5569 20.3618 23.5772 20.3332 23.6009 20.2996C23.6345 20.2522 23.675 20.1949 23.7323 20.1376C23.7478 20.1204 23.7638 20.1027 23.7804 20.0844C24.7564 19.0041 27.5609 15.8999 31.2638 16.9098C31.6707 17.0115 32.1305 17.125 32.5719 17.2339C33.4037 17.4392 34.1702 17.6284 34.3938 17.6923C37.6216 18.4748 38.1107 21.1646 38.3552 22.7785C38.366 22.8429 38.3767 22.9145 38.388 22.9894C38.428 23.2558 38.4745 23.5658 38.5508 23.7566C39.1377 24.0011 40.8005 24.4413 42.3166 24.6858C43.148 24.7836 43.7349 25.615 43.5882 26.4465C43.4903 27.18 42.8057 27.718 42.0721 27.718H41.8275C36.7902 26.8866 36.2033 25.9085 35.9588 25.4683C35.5713 24.8655 35.4491 24.1869 35.3253 23.4993C35.3085 23.4058 35.2917 23.3122 35.2741 23.2187C35.2252 22.8763 35.1763 22.5829 35.1274 22.3383C34.5405 24.3924 34.1982 26.9355 33.9537 28.9407C36.2523 29.3319 38.1107 29.9677 38.5019 31.8261C38.8932 33.7824 38.0618 38.5751 37.7683 40.189H41.2407ZM28.6718 46.1067H31.704V40.238H33.758C33.7091 40.0423 33.7091 39.7978 33.758 39.6022C34.1982 37.3525 34.5405 34.5649 34.5405 33.2444C33.758 32.9999 32.193 32.8042 31.2149 32.7064L31.2141 32.7063C30.7742 32.6575 30.3344 32.6086 29.9434 32.5597C29.9923 32.6575 29.9923 32.7553 29.9923 32.8531C30.139 34.467 30.2857 36.1788 29.9923 37.7927C29.8682 38.599 29.6393 40.0173 29.4052 41.4672C29.0856 43.4469 28.7565 45.4856 28.6718 46.1067Z" />
	</g>
</svg>
