<svg id="Toilets" width="64" height="64" viewBox="0 0 64 64" fill="none" xmlns="http://www.w3.org/2000/svg">
	<g fill="#c4c4c4">
		<path fill-rule="evenodd" clip-rule="evenodd" d="M64 32C64 49.6731 49.6731 64 32 64C14.3269 64 0 49.6731 0 32C0 14.3269 14.3269 0 32 0C49.6731 0 64 14.3269 64 32ZM27.8871 23.0383V34.9641C27.8871 36.1999 27.0462 37.2111 26.0184 37.2111C25.2875 37.2111 24.6512 36.6994 24.345 35.9598C24.2199 35.659 24.1496 35.321 24.1496 34.9637V23.0157H23.4246L23.42 52.6109C23.42 53.8003 22.5042 54.7738 21.3856 54.7738C20.2661 54.7738 19.3511 53.8003 19.3511 52.6109V37.0693H18.727V52.5862C18.727 53.776 17.8112 54.7499 16.6925 54.7499C15.5734 54.7499 14.6581 53.7764 14.6581 52.5862C14.6581 52.5862 14.6698 36.0669 14.6535 36.0665V23.0161H13.9281V34.9641C13.9281 35.3214 13.8578 35.6594 13.7331 35.9602C13.4261 36.6999 12.7898 37.2115 12.0593 37.2115C11.0314 37.2111 10.1906 36.1999 10.1906 34.9641V23.0383C10.1906 22.9295 10.1943 22.8207 10.2023 22.714C10.3688 20.3981 12.3028 18.5515 14.6531 18.5243C14.6702 18.5234 14.6878 18.5234 14.7054 18.5234H23.3723C23.3899 18.5234 23.4074 18.5234 23.4246 18.5243C25.7749 18.5515 27.7089 20.3981 27.8754 22.714C27.8754 22.7145 27.8758 22.7153 27.8754 22.7165C27.8834 22.8224 27.8871 22.9303 27.8871 23.0383ZM20.0131 8.89797C22.2722 9.43603 23.6674 11.7036 23.1293 13.9627C22.5912 16.2218 20.3237 17.6169 18.0646 17.0789C15.8055 16.5408 14.4103 14.2733 14.9484 12.0142C15.4864 9.75507 17.754 8.3599 20.0131 8.89797ZM48.0398 13.0327C48.0398 15.3549 46.1572 17.2371 43.835 17.2371C41.5127 17.2371 39.6306 15.3545 39.6306 13.0327C39.6306 10.7108 41.5131 8.82825 43.835 8.82825C46.1572 8.82783 48.0398 10.7104 48.0398 13.0327ZM50.5679 33.1586C50.7988 34.3601 51.7489 35.1742 52.6781 34.9675C53.608 34.7608 54.1799 33.6091 53.9486 32.4072L51.7062 20.742C51.623 20.309 51.4464 19.9262 51.2113 19.6237C51.0331 19.394 50.8214 19.2104 50.5905 19.0857C50.4361 19.0225 50.2558 18.9644 50.0529 18.9104C49.2593 18.7 48.1256 18.5674 46.8726 18.5674H40.7982C39.5452 18.5674 38.4119 18.7 37.6179 18.9104C37.415 18.9644 37.2347 19.0225 37.0803 19.0857C36.8494 19.2104 36.6377 19.394 36.4595 19.6237C36.2244 19.9262 36.0479 20.3094 35.9646 20.742L33.7223 32.4072C33.4909 33.6087 34.0624 34.7608 34.9924 34.9671C35.9215 35.1742 36.8712 34.3596 37.1021 33.1581L38.8905 23.8532H39.7193L36.4808 41.154C36.383 41.6774 36.7093 42.1062 37.2063 42.1062H40.0209V52.8979C40.0209 53.9455 40.7585 54.8027 41.6604 54.8027C42.562 54.8027 43.2999 53.9455 43.2999 52.8979V42.1062H44.3701V52.8979C44.3701 53.9455 45.108 54.8027 46.0096 54.8027C46.9111 54.8027 47.6491 53.9455 47.6491 52.8979V42.1062H50.4637C50.9603 42.1062 51.287 41.6774 51.1892 41.154L47.9507 23.8532H48.7799L50.5679 33.1586Z" />
	</g>
</svg>
