<svg id="Coffee" width="64" height="64" viewBox="0 0 64 64" fill="none" xmlns="http://www.w3.org/2000/svg">
	<g fill="#c4c4c4">
		<path fill-rule="evenodd" clip-rule="evenodd" d="M32 64C49.6731 64 64 49.6731 64 32C64 14.3269 49.6731 0 32 0C14.3269 0 0 14.3269 0 32C0 49.6731 14.3269 64 32 64ZM45.3892 32.9581C47.0269 33.1416 48.338 33.6379 49.296 34.4406C50.4265 35.387 51.0237 36.7501 51.0249 38.382C51.0249 39.9592 50.419 41.433 49.2238 42.7632C48.3409 43.7454 47.1325 44.6479 45.631 45.4455C44.4451 46.075 43.2673 46.539 42.3503 46.8547C41.2215 48.9552 40.1724 50.2687 39.6155 50.8948C39.3651 51.1758 39.0286 51.3328 38.6778 51.3328H30.1959H21.714C21.3631 51.3328 21.0261 51.1758 20.7763 50.8948C19.958 49.9749 18.0767 47.572 16.4412 43.3651C14.8116 39.1738 14.9282 33.1127 15.0845 30.3837C15.1307 29.581 15.7141 28.9572 16.4187 28.9572H30.1953H43.9719C44.6765 28.9572 45.2599 29.581 45.3061 30.3837C45.3453 31.0624 45.3817 31.9476 45.3892 32.9581ZM43.9176 43.4453C44.1011 43.3559 44.2858 43.2624 44.4699 43.1637C46.2923 42.1896 48.4644 40.5686 48.4644 38.382C48.4644 37.4968 48.2076 36.8684 47.6553 36.4044C47.0713 35.9139 46.2219 35.6542 45.3413 35.5301C45.2218 38.1229 44.8559 41.0331 43.9494 43.3645C43.9442 43.3779 43.939 43.3911 43.9337 43.4043L43.9334 43.405L43.9331 43.4058C43.9279 43.4189 43.9227 43.432 43.9176 43.4453ZM36.8144 18.1716C36.7862 17.5542 36.5854 16.9575 36.2593 16.4323C35.9517 15.9366 35.4687 15.0248 35.4127 14.1131C35.3807 13.5924 35.471 13.2892 35.5564 13.0023C35.6925 12.5451 35.8162 12.1295 35.4127 10.942C35.2784 11.4817 34.8068 11.941 34.3223 12.4129C34.0617 12.6667 33.7975 12.9241 33.5799 13.1995C33.0461 13.8759 32.8701 14.7282 32.8476 15.1316C32.8419 15.2407 32.8419 15.3492 32.8465 15.4548C32.8747 16.0722 33.0756 16.6689 33.4016 17.1941C33.7092 17.6898 34.1922 18.6016 34.2482 19.5133C34.2802 20.034 34.1899 20.3373 34.1045 20.6241C33.9684 21.0813 33.8447 21.4969 34.2482 22.6844C34.3825 22.1447 34.8541 21.6854 35.3386 21.2135L35.3387 21.2135C35.5992 20.9597 35.8634 20.7023 36.081 20.4269C36.6148 19.7505 36.7908 18.8982 36.8133 18.4948C36.8196 18.3857 36.8196 18.2778 36.8144 18.1716ZM31.578 17.669C32.1026 18.5144 32.4263 19.4747 32.4719 20.4684C32.4794 20.6381 32.48 20.8124 32.4702 20.9884C32.4344 21.637 32.151 23.0093 31.2918 24.0977C30.9416 24.5411 30.5161 24.9554 30.0967 25.3638C29.317 26.1231 28.5581 26.8621 28.3423 27.7304C27.6927 25.8195 27.892 25.1505 28.1111 24.4147C28.2486 23.953 28.3939 23.465 28.3423 22.6273C28.2523 21.1598 27.475 19.6928 26.9798 18.8947C26.4553 18.0493 26.1321 17.0891 26.086 16.0953C26.0785 15.9251 26.0779 15.7508 26.0877 15.5754C26.1235 14.9267 26.4068 13.5539 27.2661 12.4661C27.6163 12.0226 28.0417 11.6083 28.461 11.1999C29.2406 10.4407 29.9994 9.70168 30.2155 8.83339C30.8651 10.7442 30.6659 11.4132 30.4467 12.149C30.3092 12.6107 30.1639 13.0988 30.2155 13.9365C30.3055 15.404 31.0829 16.8709 31.578 17.669Z" />
	</g>
</svg>
