<svg id="Conference" width="64" height="64" viewBox="0 0 64 64" fill="none" xmlns="http://www.w3.org/2000/svg">
	<g fill="#c4c4c4">
		<path fill-rule="evenodd" clip-rule="evenodd" d="M32 64C49.6731 64 64 49.6731 64 32C64 14.3269 49.6731 0 32 0C14.3269 0 0 14.3269 0 32C0 49.6731 14.3269 64 32 64ZM15.773 19.9809C15.773 22.1794 14.033 23.9617 11.8865 23.9617C9.74005 23.9617 8 22.1794 8 19.9809C8 17.7823 9.74005 16 11.8865 16C14.033 16 15.773 17.7823 15.773 19.9809ZM21.1045 37.3336C20.8554 36.3639 20.0582 35.7004 19.1114 35.7004H15.5239V29.3718L17.1682 30.0863C17.3675 30.1884 17.6166 30.2394 17.8159 30.2394H21.3038C22.2007 30.2394 22.9481 29.4739 22.9481 28.5552C22.9481 27.6366 22.2007 26.871 21.3038 26.871H18.1647C18.1647 26.871 14.6768 25.3399 14.3779 25.2378C14.0789 25.1358 13.78 25.0337 13.4312 25.0337H10.2422C9.09623 25.0337 8.19934 26.0034 8.19934 27.1262V37.895C8.19934 39.0688 9.14605 39.9875 10.2422 39.9875H17.4672L18.962 46.3161C19.2111 47.2858 20.0582 47.9492 20.955 47.9492C21.1045 47.9492 21.3038 47.9492 21.4533 47.8982C22.5495 47.643 23.2471 46.4692 22.9481 45.3464L21.1045 37.3336ZM56 19.9809C56 22.1794 54.2599 23.9617 52.1135 23.9617C49.967 23.9617 48.227 22.1794 48.227 19.9809C48.227 17.7823 49.967 16 52.1135 16C54.2599 16 56 17.7823 56 19.9809ZM55.8007 37.7932V27.0754C55.8007 25.9016 54.854 24.9829 53.7578 24.9829H50.5689C50.2201 24.9829 49.9211 25.085 49.6221 25.1871C49.3232 25.2891 45.8353 26.8202 45.8353 26.8202H42.6962C41.7993 26.8202 41.0519 27.5858 41.0519 28.5044C41.0519 29.4231 41.7993 30.1887 42.6962 30.1887H46.1841C46.3834 30.1887 46.6325 30.1376 46.8318 30.0356L48.4761 29.321V35.6496H44.8886C43.9419 35.6496 43.0948 36.3131 42.8955 37.2828L41.0021 45.1935C40.753 46.3163 41.4007 47.4902 42.4969 47.7453C42.6464 47.7964 42.8457 47.7964 42.9952 47.7964C43.9419 47.7964 44.7889 47.1329 44.9882 46.1632L46.483 39.8346H53.6581C54.854 39.9367 55.8007 38.967 55.8007 37.7932ZM41.6664 31.7705C42.3142 31.7705 42.8125 32.2809 42.8125 32.9444C42.8125 33.6078 42.3142 34.1182 41.6664 34.1182H33.146V46.8264C33.146 47.4899 32.6478 48.0002 32 48.0002C31.3523 48.0002 30.854 47.4899 30.854 46.8264V34.1182H22.3336C21.6858 34.1182 21.1876 33.6078 21.1876 32.9444C21.1876 32.2809 21.6858 31.7705 22.3336 31.7705H41.6664Z" />
	</g>
</svg>
