<svg id="Elevator" width="64" height="64" viewBox="0 0 64 64" fill="none" xmlns="http://www.w3.org/2000/svg">
	<g fill="#c4c4c4">
		<path fill-rule="evenodd" clip-rule="evenodd" d="M32 64C49.6731 64 64 49.6731 64 32C64 14.3269 49.6731 0 32 0C14.3269 0 0 14.3269 0 32C0 49.6731 14.3269 64 32 64ZM18.52 12.4691H35.2137C37.393 12.4691 39.2021 14.2783 39.2021 16.4575V47.5425C39.2021 49.7217 37.4341 51.5309 35.2137 51.5309H18.52C16.3407 51.5309 14.5316 49.7628 14.5316 47.5425V16.4575C14.5316 14.2783 16.2996 12.4691 18.52 12.4691ZM28.2316 22.3405C30.684 22.3405 32.6359 24.0422 32.9862 26.4946C33.025 26.7501 33.0781 27.0955 33.1398 27.497L33.1405 27.5016L33.1409 27.5042C33.4783 29.699 34.0718 33.5594 33.9872 33.6016C34.0873 34.3524 33.5868 35.003 32.8861 35.1031H32.6859C32.0353 35.1031 31.4848 34.6527 31.3847 34.002C31.3847 33.9767 31.1664 32.5773 30.9184 30.9877L30.9182 30.9864L30.9178 30.9837L30.9173 30.9807L30.9162 30.9739C30.6752 29.4289 30.4067 27.7076 30.2836 26.895V26.845L30.1334 35.5035L31.2846 47.9658C31.3847 48.8667 30.684 49.6675 29.7831 49.7676H29.6329C28.7821 49.7676 28.0814 49.0669 27.9813 48.2161L26.8802 36.004H26.7301L25.629 48.2161C25.5789 49.117 24.7281 49.8177 23.8272 49.7176C22.9263 49.6675 22.2256 48.8167 22.3257 47.9158L23.4769 35.4535L23.3267 26.845V26.895C23.2033 27.7098 22.9336 29.4381 22.6921 30.9864L22.6919 30.9875L22.6919 30.9876L22.6918 30.9885L22.6915 30.9902C22.4437 32.5787 22.2256 33.9767 22.2256 34.002C22.1255 34.6527 21.575 35.1031 20.9243 35.1031H20.7241C20.0234 34.953 19.5229 34.3023 19.623 33.6016C19.6634 33.5613 20.1922 30.0367 20.5266 27.8081L20.5266 27.8077L20.5267 27.8077C20.6068 27.2736 20.6758 26.8139 20.7241 26.4946C21.0745 24.0422 23.0264 22.3405 25.4788 22.3405H28.2316ZM26.8802 21.4396C28.8704 21.4396 30.4838 19.8262 30.4838 17.836C30.4838 15.8458 28.8704 14.2324 26.8802 14.2324C24.89 14.2324 23.2767 15.8458 23.2767 17.836C23.2767 19.8262 24.89 21.4396 26.8802 21.4396ZM42.7794 21.885C43.0672 22.1728 43.5606 22.1728 43.8484 21.885L45.3287 20.4047V28.9983C45.3287 29.4095 45.6576 29.7385 46.0688 29.7385H47.3845C47.7957 29.7385 48.1247 29.4095 48.1247 28.9983V20.3636L49.646 21.885C49.9338 22.1728 50.4272 22.1728 50.7151 21.885L51.6608 20.9393C51.9486 20.6514 51.9486 20.158 51.6608 19.8702L47.2612 15.4706C46.9733 15.1828 46.4799 15.1828 46.1921 15.4706L41.7925 19.8702C41.5047 20.158 41.5047 20.6514 41.7925 20.9393L42.7794 21.885ZM49.7282 42.1149C50.0161 41.8271 50.5095 41.8271 50.7973 42.1149L51.7841 43.0607C52.0719 43.3485 52.0719 43.8419 51.7841 44.1297L47.3845 48.5293C47.0967 48.8171 46.6033 48.8171 46.3155 48.5293L41.9159 44.1297C41.6281 43.8419 41.6281 43.3485 41.9159 43.0607L42.8616 42.1149C43.1494 41.8271 43.6428 41.8271 43.9307 42.1149L45.452 43.6363V35.0016C45.452 34.5904 45.7809 34.2615 46.1921 34.2615H47.5079C47.9191 34.2615 48.248 34.5904 48.248 35.0016V43.5952L49.7282 42.1149Z" />
	</g>
</svg>
