<svg id="Emergency exit" width="64" height="64" viewBox="0 0 64 64" fill="none" xmlns="http://www.w3.org/2000/svg">
	<g fill="#c4c4c4">
		<path fill-rule="evenodd" clip-rule="evenodd" d="M32 64C49.6731 64 64 49.6731 64 32C64 14.3269 49.6731 0 32 0C14.3269 0 0 14.3269 0 32C0 49.6731 14.3269 64 32 64ZM18 8C16.8954 8 16 8.89543 16 10V24.661C16.0158 24.6442 16.032 24.6277 16.0486 24.6113L20.7161 20.0001H29.2748L34.7926 21.9792L37.4942 28.2663H42.1523C43.1729 28.2663 44.0005 29.084 44 30.0918V30.3914C44 31.3997 43.1729 32.2168 42.1523 32.2168H40.3568H36.9784H35.1307L33.1469 28.2663L30.604 35.4274L35.7557 41.4571V52.0985C35.7557 53.1486 34.8938 54.0001 33.831 54.0001H33.6817C32.6189 54.0001 31.757 53.1486 31.757 52.0985V43.8719C31.757 43.8519 31.7598 43.8326 31.7625 43.8134L31.7625 43.8133C31.7646 43.7989 31.7667 43.7844 31.7676 43.7697L26.207 37.9693L21.5996 43.2747H20.089H19.0863H16V54C16 55.1046 16.8954 56 18 56H46C47.1046 56 48 55.1046 48 54V10C48 8.89543 47.1046 8 46 8H18ZM16 39.3242V27.3552C16.0158 27.372 16.032 27.3886 16.0486 27.405C16.0486 27.405 17.5033 28.7614 18.8763 27.405L22.3755 23.9479H26.6696L22.9156 35.1616L19.6865 39.3242H16ZM37.1457 12.6729C38.7703 14.2976 38.7703 16.9316 37.1457 18.5562C35.5211 20.1808 32.8871 20.1808 31.2625 18.5562C29.6379 16.9316 29.6379 14.2976 31.2625 12.6729C32.8871 11.0483 35.5211 11.0483 37.1457 12.6729Z" />
		<path fill-rule="evenodd" clip-rule="evenodd" d="M34.7926 21.9792L37.4942 28.2663H42.1523C43.1729 28.2663 44.0005 29.0839 44 30.0917V30.3914C44 31.3997 43.1729 32.2168 42.1523 32.2168H35.1307L33.1469 28.2663L30.604 35.4273L35.7557 41.457V52.0985C35.7557 53.1485 34.8938 54 33.831 54H33.6817C32.6189 54 31.757 53.1485 31.757 52.0985V43.8718C31.757 43.8519 31.7598 43.8326 31.7625 43.8133C31.7646 43.7989 31.7667 43.7844 31.7676 43.7697L26.207 37.9693L21.5996 43.2746H9.92472C8.86188 43.2746 8 42.4231 8 41.3731V41.2256C8 40.1751 8.86188 39.3236 9.92472 39.3241H19.6865L22.9156 35.1615L26.6696 23.9479H22.3755L18.8763 27.4049C17.5033 28.7613 16.0486 27.4049 16.0486 27.4049C15.2679 26.6331 15.2679 25.3825 16.0486 24.6113L20.7161 20H29.2748L34.7926 21.9792ZM22.7862 24.9479L19.5791 28.1163C18.5799 29.1034 17.4645 29.1263 16.6456 28.8669C16.2618 28.7453 15.9507 28.5674 15.7399 28.4259C15.6327 28.3539 15.5463 28.2878 15.4838 28.2372C15.4525 28.2117 15.4268 28.1899 15.4072 28.1728C15.3974 28.1642 15.3891 28.1568 15.3824 28.1507L15.3733 28.1425L15.3697 28.1391L15.3681 28.1376L15.3673 28.1369C15.367 28.1366 15.3666 28.1363 16.0486 27.4049L15.3673 28.1369L15.3559 28.1263L15.3455 28.116C14.1691 26.953 14.1687 25.0627 15.3458 23.8999L20.3055 19H29.4487L35.5396 21.1847L38.153 27.2663H42.1523C43.7133 27.2663 45.0005 28.5198 45 30.0917C45 30.0919 45 30.0915 45 30.0917V30.3914C45 31.9634 43.7137 33.2168 42.1523 33.2168H34.5138L33.305 30.8095L31.7398 35.2172L36.7557 41.088V52.0985C36.7557 53.7122 35.4347 55 33.831 55H33.6817C32.0781 55 30.757 53.7122 30.757 52.0985V44.1606L26.2435 39.4524L22.0556 44.2746H9.92472C8.32106 44.2746 7 42.9868 7 41.3731V41.2256C7 39.6118 8.32063 38.3236 9.92472 38.3241C9.92488 38.3241 9.92456 38.3241 9.92472 38.3241H19.1966L22.0213 34.6829L25.2803 24.9479H22.7862Z" />
	</g>
</svg>
