<svg id="Escalator down" width="64" height="64" viewBox="0 0 64 64" fill="none" xmlns="http://www.w3.org/2000/svg">
	<g fill="#c4c4c4">
		<path fill-rule="evenodd" clip-rule="evenodd" d="M64 32C64 49.6731 49.6731 64 32 64C14.3269 64 0 49.6731 0 32C0 14.3269 14.3269 0 32 0C49.6731 0 64 14.3269 64 32ZM47.1298 22.7174H39.8584C38.4555 22.7174 37.0863 23.2905 36.1017 24.2898L21.2237 39.3886H16.442C15.2415 39.3886 14.1168 39.86 13.2748 40.716C12.4331 41.572 11.9806 42.7048 12.0006 43.9059C12.0408 46.3137 14.0574 48.2725 16.496 48.2725H23.1298C24.5326 48.2725 25.9018 47.6994 26.8865 46.7002L41.7645 31.6014H47.1839C48.3843 31.6013 49.5092 31.1299 50.3511 30.2739C51.1927 29.4181 51.6452 28.2852 51.6252 27.0841C51.585 24.6763 49.5684 22.7174 47.1298 22.7174ZM24 16.2299C24 13.8976 25.8977 12 28.23 12C30.5625 12 32.4601 13.8977 32.4601 16.23C32.4601 18.5624 30.5625 20.4601 28.23 20.4601C25.8977 20.4601 24 18.5623 24 16.2299ZM28.3207 21.5554C25.9447 21.5147 24 23.5005 24 25.8769V34.351L32.4936 25.8016C32.4936 23.4846 30.6284 21.595 28.3207 21.5554ZM41.1986 45.9662C41.5598 45.9662 41.8694 46.2758 41.8694 46.637L41.8952 47.8497C41.8952 48.211 41.5856 48.5206 41.2243 48.5206H35.7027C35.3414 48.5206 35.0318 48.211 35.0318 47.8497V42.3281C35.0318 41.9668 35.3414 41.6572 35.7027 41.6572L36.8896 41.6572C37.2508 41.6572 37.5604 41.9668 37.5604 42.328V44.2374L42.9789 38.8189C43.2369 38.5609 43.6497 38.5609 43.9078 38.8189L44.7334 39.6446C44.9915 39.9026 44.9915 40.3155 44.7334 40.5735L39.3408 45.9662H41.1986Z" />
	</g>
</svg>
