<svg id="Fire hose" width="64" height="64" viewBox="0 0 64 64" fill="none" xmlns="http://www.w3.org/2000/svg">
	<g fill="#c4c4c4">
		<path fill-rule="evenodd" clip-rule="evenodd" d="M64 32C64 49.6731 49.6731 64 32 64C14.3269 64 0 49.6731 0 32C0 14.3269 14.3269 0 32 0C49.6731 0 64 14.3269 64 32ZM22.157 44.0403V46.5366C22.157 46.5684 22.1309 46.5944 22.0988 46.5944H14.0582C14.0261 46.5944 14 46.5684 14 46.5366V44.0403C14 44.0085 14.0261 43.9824 14.0582 43.9824H22.0988C22.1309 43.9824 22.157 44.0085 22.157 44.0403ZM46.3276 40.8982V31.6021L46.3223 31.6138C46.2794 31.7088 46.2359 31.803 46.1913 31.8969L46.1688 31.9447C46.1245 32.0372 46.0799 32.129 46.0342 32.2203L46.0333 32.2222L46.033 32.2227C46.0256 32.2376 46.0181 32.2525 46.0106 32.2671C45.9639 32.3603 45.916 32.4527 45.8678 32.5445C45.8621 32.5552 45.8564 32.5659 45.8507 32.5762C45.7997 32.6723 45.7479 32.7679 45.6951 32.8625L45.6947 32.8636L45.6936 32.8654C45.6408 32.9604 45.5869 33.0542 45.5319 33.1481L45.5221 33.1653L45.5123 33.1824C45.4598 33.2716 45.4063 33.3605 45.352 33.4487L45.3256 33.4923C45.2717 33.5797 45.2167 33.6665 45.161 33.7529L45.148 33.773L45.135 33.7932C45.0778 33.8814 45.02 33.9688 44.9611 34.0559L44.9529 34.0681L44.9447 34.0802C44.884 34.1694 44.8226 34.2583 44.7598 34.3469L44.7544 34.3547C44.692 34.4425 44.6284 34.5296 44.5645 34.6164L44.5572 34.6263C44.5514 34.6342 44.5456 34.6421 44.5395 34.6499C44.4778 34.7331 44.4153 34.8156 44.3517 34.8973L44.3515 34.8977C44.3412 34.9111 44.331 34.9246 44.3203 34.938C44.2571 35.0191 44.1929 35.1001 44.1283 35.1801L44.0983 35.2165C44.0315 35.2986 43.9637 35.3803 43.8952 35.4614L43.8791 35.4803C43.8095 35.562 43.7392 35.6431 43.6681 35.7237L43.6553 35.7384C43.5842 35.8183 43.5121 35.8976 43.4397 35.9765C43.4293 35.9879 43.419 35.999 43.4086 36.01C43.3383 36.0864 43.2669 36.1617 43.1948 36.2367L43.1766 36.256V40.8982H46.3276ZM38.7222 17.6056C36.7703 15.654 34.1754 14.5791 31.4152 14.5791C28.655 14.5791 26.0602 15.654 24.1086 17.6056C22.1566 19.5572 21.0817 22.1524 21.0817 24.9122C21.0817 27.6724 22.1566 30.2676 24.1086 32.2192C26.0602 34.1708 28.655 35.2457 31.4152 35.2457C34.1754 35.2457 36.7703 34.1708 38.7222 32.2192C40.6738 30.2676 41.7487 27.6724 41.7487 24.9122C41.7487 22.1524 40.6738 19.5572 38.7222 17.6056ZM36.4939 29.9913C35.1374 31.3478 33.334 32.095 31.4152 32.095C29.4968 32.095 27.693 31.3478 26.3365 29.9913C24.9799 28.6344 24.2328 26.831 24.2328 24.9122C24.2328 22.9938 24.9799 21.19 26.3365 19.8335C27.693 18.477 29.4968 17.7298 31.4152 17.7298C33.334 17.7298 35.1374 18.477 36.4939 19.8335C37.8508 21.19 38.598 22.9938 38.598 24.9122C38.598 26.831 37.8508 28.6344 36.4939 29.9913ZM31.4152 19.1577C32.9524 19.1577 34.3974 19.7564 35.4844 20.8434C36.5714 21.93 37.1701 23.3754 37.1701 24.9122C37.1701 26.4494 36.5714 27.8944 35.4844 28.9814C34.3974 30.0684 32.9524 30.6671 31.4152 30.6671C29.8781 30.6671 28.433 30.0684 27.346 28.9814C26.2594 27.8944 25.6607 26.4494 25.6607 24.9122C25.6607 23.3754 26.2594 21.93 27.346 20.8434C28.433 19.7564 29.8781 19.1577 31.4152 19.1577ZM31.4152 27.516C32.121 27.516 32.7575 27.2526 33.2565 26.7535C33.7552 26.2545 34.019 25.618 34.019 24.9122C34.019 24.2068 33.7552 23.5703 33.2565 23.0713C32.7575 22.5722 32.121 22.3088 31.4152 22.3088C30.7098 22.3088 30.073 22.5722 29.5743 23.0713C29.0752 23.57 28.8114 24.2068 28.8114 24.9122C28.8114 25.618 29.0752 26.2545 29.5743 26.7535C30.073 27.2526 30.7098 27.516 31.4152 27.516ZM32.5911 24.9123C32.5911 25.2358 32.4751 25.5153 32.2466 25.7441C32.0181 25.9726 31.7386 26.0882 31.4152 26.0882C31.0921 26.0882 30.8123 25.9726 30.5838 25.7441C30.3553 25.5153 30.2393 25.2358 30.2393 24.9123C30.2393 24.5893 30.3553 24.3098 30.5838 24.0809C30.8123 23.8525 31.0921 23.7368 31.4152 23.7368C31.7386 23.7368 32.0181 23.8525 32.2466 24.0809C32.4751 24.3098 32.5911 24.5893 32.5911 24.9123ZM46.1913 26.9419C46.2816 26.2747 46.3277 25.5971 46.3277 24.9121C46.3277 16.6898 39.6379 10 31.4152 10C23.1925 10 16.5031 16.6898 16.5031 24.9121V42.5547H19.6538V24.9121L19.654 24.9108L19.6542 24.9096C19.6549 21.7689 20.8779 18.8167 23.0987 16.5959C25.3201 14.3744 28.2738 13.1511 31.4152 13.1511C34.557 13.1511 37.5103 14.3744 39.7318 16.5959C41.9532 18.817 43.1766 21.7707 43.1766 24.9121C43.1766 28.0539 41.9532 31.0072 39.7318 33.2286C37.5103 35.4501 34.557 36.6735 31.4152 36.6735C28.2738 36.6735 25.3201 35.4501 23.0987 33.2286C22.2905 32.4204 21.6151 31.5148 21.0817 30.5388V35.6636C23.8733 38.3492 27.5309 39.8246 31.4152 39.8246C35.397 39.8246 39.1413 38.2742 41.9579 35.4591V35.4587C43.9305 33.4867 45.2824 31.0593 45.9164 28.4141C45.9332 28.3434 45.9496 28.2727 45.9657 28.2017C46.0189 27.9646 46.066 27.7258 46.1078 27.4852C46.1181 27.4252 46.1281 27.3649 46.1378 27.3046C46.157 27.1839 46.1749 27.0633 46.1913 26.9419ZM48.8304 42.3839V44.1531C48.8304 44.1852 48.8044 44.2112 48.7726 44.2112H40.7317C40.6995 44.2112 40.6738 44.1852 40.6738 44.1531V42.3839C40.6738 42.3517 40.6995 42.3257 40.7317 42.3257H48.7726C48.8044 42.3257 48.8304 42.3517 48.8304 42.3839ZM45.9792 54.9792L47.2358 45.6392H42.2684L43.525 54.9792H45.9792Z" />
	</g>
</svg>
