<svg id="Handicap" width="64" height="64" viewBox="0 0 64 64" fill="none" xmlns="http://www.w3.org/2000/svg">
	<g fill="#c4c4c4">
		<path fill-rule="evenodd" clip-rule="evenodd" d="M32 64C49.6731 64 64 49.6731 64 32C64 14.3269 49.6731 0 32 0C14.3269 0 0 14.3269 0 32C0 49.6731 14.3269 64 32 64ZM35.1573 13.0182C35.1573 16.342 32.4629 19.0365 29.1391 19.0365C25.8153 19.0365 23.1208 16.342 23.1208 13.0182C23.1208 9.69446 25.8153 7 29.1391 7C32.4629 7 35.1573 9.69446 35.1573 13.0182ZM49.9203 49.9717L46.7462 37.2754C46.4828 36.1303 45.4572 35.2764 44.233 35.2764H32.5782V30.3083H40.5071C41.6146 30.3083 42.5132 29.4103 42.5132 28.3023C42.5132 27.1943 41.6151 26.2962 40.5071 26.2962H32.5782V21.3292C32.5782 21.1711 32.4501 21.043 32.292 21.043H25.9869C25.8282 21.043 25.7001 21.1711 25.7001 21.3292V36.9957C25.7001 38.8943 27.2399 40.4347 29.1391 40.4347H42.2188L44.9157 51.2236C45.2614 52.6059 46.6617 53.4456 48.0434 53.0999C49.4252 52.7542 50.2654 51.3539 49.9203 49.9717ZM17.4385 39.6582C17.4385 46.8144 23.2605 52.6364 30.4167 52.6364C35.3226 52.6364 39.5998 49.9001 41.8065 45.8744L42.9129 50.2998C39.9013 53.8327 35.4218 56.0754 30.4167 56.0754C21.3498 56.0754 13.9995 48.7256 14 39.6582C14 32.876 18.113 27.0551 23.9808 24.5518V28.3954C20.076 30.6354 17.4385 34.8428 17.4385 39.6582Z" />
	</g>
</svg>
