<svg id="Kiosk" width="64" height="64" viewBox="0 0 64 64" fill="none" xmlns="http://www.w3.org/2000/svg">
	<g fill="#c4c4c4">
		<path fill-rule="evenodd" clip-rule="evenodd" d="M32 64C49.6731 64 64 49.6731 64 32C64 14.3269 49.6731 0 32 0C14.3269 0 0 14.3269 0 32C0 49.6731 14.3269 64 32 64ZM47.882 12C49.0515 12 49.9996 12.9426 49.9996 14.1053L50 45.6837C50 46.8464 49.052 47.7894 47.8824 47.7895V49.8947C47.8824 51.0574 46.9343 52 45.7648 52C44.5952 52 43.6471 51.0574 43.6471 49.8947V47.789L20.353 47.7895V49.8947C20.353 51.0574 19.4049 52 18.2353 52C17.0658 52 16.1177 51.0574 16.1177 49.8947L16.1177 47.789C14.9483 47.7888 14.0004 46.8464 14.0004 45.6838L14 14.1053C14 12.9426 14.9481 12 16.1177 12H47.882ZM27.9946 23.9301C26.4477 23.9301 25.0612 23.3363 23.9945 22.382C22.9278 23.3363 21.542 23.9301 20.0059 23.9301C19.291 23.9301 18.6297 23.7815 18.0005 23.5589V35.86H46.0006V23.5589C45.3713 23.7815 44.6991 23.9301 43.9951 23.9301C42.4481 23.9301 41.0616 23.3363 39.995 22.382C38.9283 23.3363 37.5413 23.9301 35.9949 23.9301C34.4479 23.9301 33.0614 23.3363 31.9947 22.382C30.9281 23.3363 29.541 23.9301 27.9946 23.9301ZM45.9993 17.971V15.9773H41.9888L41.9883 17.971C41.9883 19.0741 42.8843 19.9648 43.9938 19.9648C45.1033 19.9648 45.9993 19.0633 45.9993 17.971ZM37.9996 17.971V15.9773H33.9887V17.971C33.9887 19.0741 34.8846 19.9648 35.9942 19.9648C37.1037 19.9648 37.9996 19.0633 37.9996 17.971ZM29.9995 17.971V15.9773H25.989L25.9886 17.971C25.9886 19.0741 26.8845 19.9648 27.994 19.9648C29.1036 19.9648 29.9995 19.0633 29.9995 17.971ZM21.9998 17.971V15.9773H17.9893L17.9888 17.971C17.9888 19.0741 18.8848 19.9648 19.9943 19.9648C21.1038 19.9648 21.9998 19.0633 21.9998 17.971Z" />
	</g>
</svg>
