<svg id="Medics" width="64" height="64" viewBox="0 0 64 64" fill="none" xmlns="http://www.w3.org/2000/svg">
	<g fill="#c4c4c4">
		<path fill-rule="evenodd" clip-rule="evenodd" d="M32 64C49.6731 64 64 49.6731 64 32C64 14.3269 49.6731 0 32 0C14.3269 0 0 14.3269 0 32C0 49.6731 14.3269 64 32 64ZM14.7908 25.6994C14.2863 26.2039 14.002 26.8875 14 27.6009V36.3991C14.002 37.1125 14.2863 37.7961 14.7908 38.3006C15.2952 38.805 15.9788 39.0893 16.6922 39.0914H24.9086V47.3078C24.9107 48.0212 25.195 48.7048 25.6994 49.2092C26.2039 49.7137 26.8875 49.998 27.6009 50H36.3991C37.1125 49.998 37.7961 49.7137 38.3006 49.2092C38.805 48.7048 39.0893 48.0212 39.0914 47.3078V39.0914H47.3078C48.0212 39.0893 48.7048 38.805 49.2092 38.3006C49.7136 37.7961 49.998 37.1125 50 36.3991V27.6009C49.998 26.8875 49.7136 26.2039 49.2092 25.6994C48.7048 25.195 48.0212 24.9107 47.3078 24.9086H39.0914V16.6922C39.0893 15.9788 38.805 15.2953 38.3006 14.7908C37.7961 14.2864 37.1125 14.002 36.3991 14H27.6009C26.8875 14.002 26.2039 14.2864 25.6994 14.7908C25.195 15.2953 24.9107 15.9788 24.9086 16.6922V24.9086H16.6922C15.9788 24.9107 15.2952 25.195 14.7908 25.6994Z" />
	</g>
</svg>
