<svg id="Restaurant" width="64" height="64" viewBox="0 0 64 64" fill="none" xmlns="http://www.w3.org/2000/svg">
	<g fill="#c4c4c4">
		<path fill-rule="evenodd" clip-rule="evenodd" d="M32 64C49.6731 64 64 49.6731 64 32C64 14.3269 49.6731 0 32 0C14.3269 0 0 14.3269 0 32C0 49.6731 14.3269 64 32 64ZM30.2439 16.1985C30.2439 15.0621 29.3752 14.116 28.2683 14.0036C28.2194 13.9987 28.1722 14.0003 28.1238 14.0019C28.0993 14.0028 28.0744 14.0036 28.0488 14.0036C26.8365 14.0036 25.8537 14.9863 25.8537 16.1985C25.8537 16.5796 25.9573 16.9288 26.1281 17.2411C19.4915 18.3734 14.0001 25.1873 14.0001 32.0019H37.2683C37.2683 24.7885 35.2044 22.887 29.9128 18.0114C29.8139 17.9203 29.714 17.8282 29.6128 17.7349C29.6236 17.724 29.633 17.7112 29.6424 17.6984C29.6505 17.6873 29.6587 17.6762 29.6677 17.6664C36.0519 20.6916 39.4634 23.7939 39.4634 32.0019H42.0975C42.0975 25.1873 36.6061 18.3734 29.9695 17.2411C30.1403 16.9288 30.2439 16.5796 30.2439 16.1985ZM44.7316 33.7578V32.8798H11.805V33.7578V34.6357V35.5137H44.7316V34.6357V33.7578ZM40.657 37.2696L32.2332 36.8306C31.3459 37.2696 31.3368 38.1475 31.7805 38.5865L38.4344 40.3424C38.4344 40.7814 36.6611 41.2204 30.4497 41.2204L22.9177 38.1475C22.0304 37.7086 21.1433 38.5865 21.587 39.4645L30.9024 45.6102H42.8795L43.5518 46.9408L45.5136 38.7511L40.657 37.2696ZM52.195 39.9034L47.2286 39.149L44.8277 49.1495L52.195 50V39.9034Z" />
	</g>
</svg>
