<svg id="Woman toilet" width="64" height="64" viewBox="0 0 64 64" fill="none" xmlns="http://www.w3.org/2000/svg">
	<g fill="#c4c4c4">
		<path fill-rule="evenodd" clip-rule="evenodd" d="M64 32C64 49.6731 49.6731 64 32 64C14.3269 64 0 49.6731 0 32C0 14.3269 14.3269 0 32 0C49.6731 0 64 14.3269 64 32ZM36.3689 13.0325C36.3689 15.3548 34.4864 17.2369 32.1641 17.2369C29.8419 17.2369 27.9597 15.3544 27.9597 13.0325C27.9597 10.7107 29.8423 8.82812 32.1641 8.82812C34.4864 8.82771 36.3689 10.7103 36.3689 13.0325ZM38.8971 33.1586C39.128 34.3601 40.0781 35.1742 41.0072 34.9675C41.9372 34.7608 42.5091 33.6091 42.2777 32.4072L40.0354 20.742C39.9521 20.309 39.7756 19.9262 39.5405 19.6237C39.3623 19.394 39.1506 19.2104 38.9197 19.0857C38.7653 19.0225 38.585 18.9644 38.3821 18.9104C37.5885 18.7 36.4548 18.5674 35.2018 18.5674H29.1274C27.8744 18.5674 26.7411 18.7 25.9471 18.9104C25.7442 18.9644 25.5639 19.0225 25.4095 19.0857C25.1786 19.2104 24.9669 19.394 24.7887 19.6237C24.5536 19.9262 24.377 20.3094 24.2938 20.742L22.0514 32.4072C21.8201 33.6087 22.3915 34.7608 23.3215 34.9671C24.2507 35.1742 25.2003 34.3596 25.4313 33.1581L27.2197 23.8532H28.0484L24.81 41.154C24.7121 41.6774 25.0384 42.1062 25.5354 42.1062H28.3501V52.8979C28.3501 53.9455 29.0876 54.8027 29.9896 54.8027C30.8911 54.8027 31.6291 53.9455 31.6291 52.8979V42.1062H32.6992V52.8979C32.6992 53.9455 33.4372 54.8027 34.3387 54.8027C35.2403 54.8027 35.9782 53.9455 35.9782 52.8979V42.1062H38.7929C39.2895 42.1062 39.6162 41.6774 39.5183 41.154L36.2799 23.8532H37.109L38.8971 33.1586Z" />
	</g>
</svg>
