<svg id="You are here 2" width="244" height="232" viewBox="0 0 244 232" fill="none" xmlns="http://www.w3.org/2000/svg">
	<g>
		<path d="M241 89.832L158.825 77.8463L122 3L85.1748 77.8463L3 89.832L62.5036 147.811L48.6035 230L121.998 191.109L195.393 230L181.493 147.811L241 89.832Z" fill="#E70000" />
		<path fill-rule="evenodd" clip-rule="evenodd" d="M122 0.734833L159.49 76.9327L243.149 89.1348L182.566 148.161L196.717 231.833L121.998 192.241L47.2793 231.833L61.4302 148.161L0.851562 89.1348L84.5098 76.9327L122 0.734833ZM122 5.26516L85.8398 78.7599L5.14852 90.5292L63.5771 147.461L49.9278 228.167L121.998 189.978L194.068 228.167L180.419 147.461L238.851 90.5292L158.16 78.7599L122 5.26516Z" fill="white" />
		<path d="M95.7094 114H90.0294V103.08L79.7494 87.32H86.2294L92.8694 98.04L99.4294 87.32H105.909L95.7094 103.08V114Z" fill="white" />
		<path d="M119.409 114.48C115.382 114.48 112.049 113.187 109.409 110.6C106.796 107.987 105.489 104.68 105.489 100.68C105.489 96.68 106.796 93.3867 109.409 90.8C112.049 88.1867 115.382 86.88 119.409 86.88C123.462 86.88 126.796 88.1733 129.409 90.76C132.049 93.3467 133.369 96.6533 133.369 100.68C133.369 104.707 132.049 108.013 129.409 110.6C126.796 113.187 123.462 114.48 119.409 114.48ZM113.529 106.96C115.022 108.613 116.982 109.44 119.409 109.44C121.836 109.44 123.796 108.613 125.289 106.96C126.782 105.307 127.529 103.213 127.529 100.68C127.529 98.1467 126.782 96.0533 125.289 94.4C123.796 92.7467 121.836 91.92 119.409 91.92C116.982 91.92 115.022 92.7467 113.529 94.4C112.062 96.0533 111.329 98.1467 111.329 100.68C111.329 103.213 112.062 105.307 113.529 106.96Z" fill="white" />
		<path d="M158.355 111.48C156.328 113.48 153.342 114.48 149.395 114.48C145.448 114.48 142.448 113.48 140.395 111.48C138.368 109.453 137.355 106.747 137.355 103.36V87.32H143.115V103.16C143.115 105.08 143.662 106.613 144.755 107.76C145.848 108.88 147.395 109.44 149.395 109.44C151.395 109.44 152.928 108.88 153.995 107.76C155.088 106.613 155.635 105.08 155.635 103.16V87.32H161.435V103.32C161.435 106.76 160.408 109.48 158.355 111.48Z" fill="white" />
		<path d="M111.337 147H104.857L103.217 142.48H91.7765L90.0965 147H83.6165L93.9365 120.32H101.057L111.337 147ZM101.657 137.48L97.4965 126L93.3365 137.48H101.657Z" fill="white" />
		<path d="M135.4 147H128.88L123.64 137.52H119.48V147H113.8V120.32H126.28C129.027 120.32 131.2 121.12 132.8 122.72C134.427 124.32 135.24 126.387 135.24 128.92C135.24 131.107 134.667 132.88 133.52 134.24C132.4 135.6 131.027 136.467 129.4 136.84L135.4 147ZM125.44 132.52C126.614 132.52 127.574 132.2 128.32 131.56C129.067 130.893 129.44 130.013 129.44 128.92C129.44 127.827 129.067 126.96 128.32 126.32C127.574 125.653 126.614 125.32 125.44 125.32H119.48V132.52H125.44Z" fill="white" />
		<path d="M158.383 147H139.503V120.32H158.383V125.32H145.183V130.96H158.103V135.96H145.183V142H158.383V147Z" fill="white" />
		<path d="M97.8394 180H92.1194V168.8H79.5194V180H73.8394V153.32H79.5194V163.8H92.1194V153.32H97.8394V180Z" fill="white" />
		<path d="M121.977 180H103.097V153.32H121.977V158.32H108.777V163.96H121.697V168.96H108.777V175H121.977V180Z" fill="white" />
		<path d="M148.017 180H141.497L136.257 170.52H132.097V180H126.417V153.32H138.897C141.644 153.32 143.817 154.12 145.417 155.72C147.044 157.32 147.857 159.387 147.857 161.92C147.857 164.107 147.284 165.88 146.137 167.24C145.017 168.6 143.644 169.467 142.017 169.84L148.017 180ZM138.057 165.52C139.231 165.52 140.191 165.2 140.937 164.56C141.684 163.893 142.057 163.013 142.057 161.92C142.057 160.827 141.684 159.96 140.937 159.32C140.191 158.653 139.231 158.32 138.057 158.32H132.097V165.52H138.057Z" fill="white" />
		<path d="M171.001 180H152.121V153.32H171.001V158.32H157.801V163.96H170.721V168.96H157.801V175H171.001V180Z" fill="white" />
	</g>
</svg>
